<svg width="134" height="32" viewBox="0 0 134 32" fill="none" xmlns="http://www.w3.org/2000/svg">
<path d="M116.448 16.3517C116.177 16.5088 115.889 16.6654 115.59 16.8188C115.586 16.8088 115.581 16.7985 115.577 16.7885C115.414 16.4644 115.104 16.2433 114.746 16.1971C114.318 16.1418 113.86 16.1974 113.427 16.2592C113.383 16.2654 113.34 16.2713 113.297 16.2772C113.374 16.2513 113.451 16.2245 113.527 16.1971C114.545 15.8295 115.487 15.2729 116.252 14.5874C117.018 13.9015 117.585 13.1165 117.942 12.2511C118.627 11.9809 119.313 11.6863 119.982 11.3743C120.261 11.2442 120.576 11.1153 120.79 11.2351C120.958 11.3293 121.015 11.563 120.997 11.7402C120.971 11.9821 120.836 12.2173 120.712 12.4186C119.779 13.9289 118.344 15.252 116.448 16.3517Z" fill="white"/>
<path d="M107.645 16.3599C108.681 16.5877 109.661 16.8026 110.727 16.804C111.654 16.8773 112.587 16.8482 113.501 16.7175C113.903 16.6601 114.326 16.6083 114.696 16.656C114.905 16.6831 115.079 16.8073 115.174 16.9965C115.203 17.0548 115.223 17.1158 115.233 17.1773C115.234 17.182 115.235 17.1867 115.235 17.1914C115.256 17.3277 115.23 17.4672 115.159 17.5932C114.668 18.4653 113.529 18.9595 112.894 19.1765C111.138 19.776 109.218 19.9977 107.342 19.8175C105.171 19.4473 104.135 18.8754 103.133 18.3223C102.045 17.7221 101.01 17.1514 98.6747 17.023C100.416 16.3013 102.016 15.9204 103.54 15.8633C105.114 15.8045 106.401 16.087 107.645 16.3602L107.645 16.3599Z" fill="white"/>
<path d="M99.6911 14.2442C100.432 13.4062 101.272 12.7525 101.994 12.4505C103.855 11.6734 105.861 11.9059 107.985 12.152C109.901 12.3742 111.883 12.6038 113.728 12.0092C113.728 12.0092 113.728 12.0092 113.729 12.009C113.729 12.009 113.729 12.009 113.729 12.009C113.823 11.9792 115.619 11.4111 116.801 10.8501C116.993 10.7592 117.265 10.6697 117.47 10.7606C117.634 10.833 117.703 11.0067 117.716 11.2066C117.716 11.2169 117.716 11.2272 117.718 11.2375C117.726 11.4435 117.678 11.6731 117.615 11.8479C117.294 12.7392 116.735 13.5457 115.955 14.2448C115.233 14.8912 114.343 15.4166 113.38 15.7645C112.57 16.0574 111.702 16.2463 110.727 16.3423C109.711 16.3408 108.755 16.1312 107.744 15.909C105.332 15.3789 102.609 14.7811 98.0663 16.7812C98.4493 15.8946 99.0141 15.0101 99.6905 14.2448L99.6911 14.2442Z" fill="white"/>
<path d="M118.732 10.3434C118.532 10.5067 118.322 10.6663 118.097 10.8264C118.018 10.615 117.876 10.4414 117.654 10.3431C117.361 10.2133 117.006 10.2451 116.6 10.4376C116.211 10.6224 115.744 10.8108 115.296 10.9797C116.205 10.2103 116.754 9.37791 117.078 8.72506C117.346 8.18699 117.526 7.63804 117.613 7.11705C118.238 6.74618 118.831 6.3232 119.376 5.85755C119.872 5.43428 120.355 5.06606 120.807 5.21235C121.071 5.29771 121.282 5.57056 121.345 5.90729C121.397 6.19134 121.358 6.5213 121.222 6.94515C120.832 8.15991 119.971 9.33494 118.732 10.3434Z" fill="white"/>
<path d="M97.4824 13.1058C98.1188 11.8145 99.3071 10.8361 99.6155 10.6277C100.645 9.93156 101.986 9.54597 103.835 9.4141C104.364 9.37642 104.906 9.35817 105.431 9.34081C106.408 9.30814 107.419 9.27458 108.406 9.1124C109.666 8.90577 110.864 8.49133 111.968 7.88086C113.107 7.25067 114.083 6.44505 114.868 5.48637L114.896 5.45193C115.242 5.02954 115.634 4.55035 116.108 4.57095C116.584 4.59156 116.93 5.12521 117.096 5.61794C117.347 6.36528 117.181 7.47643 116.664 8.51753C116.219 9.41292 115.32 10.6692 113.565 11.5772C111.82 12.1344 109.895 11.9116 108.033 11.6959C105.944 11.4536 103.783 11.2034 101.812 12.0267C100.652 12.5112 98.163 14.5534 97.3709 17.4671C99.9281 17.5168 101.843 18.041 102.906 18.726C104.694 19.8783 108.583 20.9618 109.322 21.1252L109.403 21.1428C109.829 21.2356 110.268 21.3315 110.433 21.6456C110.596 21.9567 110.39 22.38 110.094 22.5804C109.753 22.8118 109.295 22.8598 108.851 22.8771C107.3 22.9375 105.249 22.3941 103.223 21.3869C101.713 20.6363 99.6991 18.9915 97.1804 18.416C96.955 18.9877 96.3763 19.8786 95.2189 19.8786C96.5635 18.2047 96.0189 16.0772 97.4833 13.1055L97.4824 13.1058Z" fill="white"/>
<path d="M105.972 23.0735C106.021 23.1339 106.069 23.1936 106.117 23.2534C106.163 23.311 106.209 23.3687 106.255 23.4261C106.465 23.6875 106.639 23.9092 106.807 24.1417C106.849 24.1994 106.919 24.2962 106.914 24.3516C106.911 24.3907 106.847 24.4463 106.769 24.459C106.658 24.4775 106.526 24.4396 106.39 24.3957C104.965 23.9348 103.527 22.8654 102.47 21.5117C103.623 22.1346 104.806 22.6135 105.922 22.9246C105.921 22.9767 105.937 23.0297 105.972 23.0735Z" fill="white"/>
<path d="M110.829 21.4068C110.558 20.9226 109.974 20.7951 109.503 20.6924L109.423 20.6751C109.059 20.5947 108.705 20.482 108.361 20.3374C109.956 20.3666 111.554 20.1205 113.04 19.6131C114.343 19.1683 115.029 18.572 115.39 18.0798C116.544 17.9671 117.698 17.7799 118.823 17.5232C119.137 17.4517 119.518 17.3949 119.675 17.5939C119.77 17.7128 119.753 17.9014 119.694 18.036C119.614 18.2196 119.453 18.378 119.308 18.5119C117.88 19.8312 115.858 20.7416 113.462 21.1448C112.658 21.2802 111.795 21.3659 110.829 21.4068H110.829Z" fill="white"/>
<path d="M106.583 23.0943C107.313 23.2583 108.004 23.3442 108.624 23.3442C108.709 23.3442 108.791 23.3427 108.873 23.3395C109.385 23.3195 109.92 23.26 110.357 22.9636C110.592 22.8044 110.783 22.5604 110.881 22.294C110.893 22.2625 110.902 22.2307 110.911 22.1992C111.289 22.392 111.658 22.5607 112.017 22.7246C112.493 22.9421 112.943 23.1473 113.308 23.3663C113.622 23.5553 113.65 23.6621 113.639 23.7089C113.631 23.7404 113.582 23.8211 113.301 23.8799C111.08 24.3429 108.698 24.0657 106.587 23.0999C106.586 23.0981 106.584 23.0964 106.583 23.0946L106.583 23.0943Z" fill="white"/>
<path d="M16.6691 16.3517C16.9401 16.5088 17.228 16.6654 17.5268 16.8188C17.5315 16.8088 17.5359 16.7985 17.5406 16.7885C17.7028 16.4644 18.0133 16.2433 18.3712 16.1971C18.7989 16.1418 19.2575 16.1974 19.6905 16.2592C19.7338 16.2654 19.777 16.2713 19.8206 16.2772C19.7432 16.2513 19.6664 16.2245 19.5901 16.1971C18.5726 15.8295 17.6304 15.2729 16.8651 14.5874C16.0995 13.9015 15.5326 13.1165 15.1753 12.2511C14.49 11.9809 13.8039 11.6863 13.1352 11.3743C12.8564 11.2442 12.5409 11.1153 12.3275 11.2351C12.1588 11.3293 12.102 11.563 12.1205 11.7402C12.1462 11.9821 12.281 12.2173 12.4052 12.4186C13.3385 13.9289 14.7732 15.252 16.6691 16.3517Z" fill="white"/>
<path d="M25.4723 16.3599C24.4359 16.5877 23.4566 16.8026 22.3905 16.804C21.4633 16.8773 20.53 16.8482 19.616 16.7175C19.2145 16.6601 18.7913 16.6083 18.421 16.656C18.2123 16.6831 18.038 16.8073 17.9433 16.9965C17.9141 17.0548 17.8944 17.1158 17.8838 17.1773C17.8832 17.182 17.8826 17.1867 17.8817 17.1914C17.8614 17.3277 17.887 17.4672 17.9577 17.5932C18.4495 18.4653 19.5884 18.9595 20.2233 19.1765C21.9793 19.776 23.899 19.9977 25.7749 19.8175C27.9463 19.4473 28.9824 18.8754 29.9846 18.3223C31.0722 17.7221 32.1068 17.1514 34.4425 17.023C32.7008 16.3013 31.1013 15.9204 29.5769 15.8633C28.0028 15.8045 26.7165 16.087 25.472 16.3602L25.4723 16.3599Z" fill="white"/>
<path d="M33.4261 14.2442C32.6849 13.4062 31.8454 12.7525 31.1228 12.4505C29.262 11.6734 27.2557 11.9059 25.132 12.152C23.2159 12.3742 21.234 12.6038 19.3894 12.0092C19.3894 12.0092 19.3888 12.0092 19.3885 12.009C19.3885 12.009 19.3882 12.009 19.3879 12.009C19.2937 11.9792 17.4982 11.4111 16.3161 10.8501C16.1242 10.7592 15.8522 10.6697 15.6471 10.7606C15.4831 10.833 15.4143 11.0067 15.401 11.2066C15.401 11.2169 15.4007 11.2272 15.3992 11.2375C15.3916 11.4435 15.4396 11.6731 15.5026 11.8479C15.8237 12.7392 16.3821 13.5457 17.1627 14.2448C17.8844 14.8912 18.7745 15.4166 19.737 15.7645C20.547 16.0574 21.4153 16.2463 22.3905 16.3423C23.4066 16.3408 24.3617 16.1312 25.3728 15.909C27.7853 15.3789 30.5082 14.7811 35.0509 16.7812C34.6679 15.8946 34.1031 15.0101 33.4267 14.2448L33.4261 14.2442Z" fill="white"/>
<path d="M14.3851 10.3434C14.5856 10.5067 14.7955 10.6663 15.0203 10.8264C15.0989 10.615 15.2411 10.4414 15.4633 10.3431C15.7562 10.2133 16.1109 10.2451 16.5168 10.4376C16.9065 10.6224 17.373 10.8108 17.8213 10.9797C16.9124 10.2103 16.3631 9.37791 16.0388 8.72506C15.7715 8.18699 15.5917 7.63804 15.504 7.11705C14.8788 6.74618 14.286 6.3232 13.7408 5.85755C13.2449 5.43428 12.7624 5.06606 12.31 5.21235C12.0457 5.29771 11.8349 5.57056 11.7725 5.90729C11.7199 6.19134 11.759 6.5213 11.8953 6.94515C12.2856 8.15991 13.1465 9.33494 14.3851 10.3434Z" fill="white"/>
<path d="M35.6348 13.1058C34.9984 11.8145 33.8101 10.8361 33.5016 10.6277C32.4723 9.93156 31.1316 9.54597 29.2819 9.4141C28.7527 9.37642 28.2108 9.35817 27.6866 9.34081C26.7091 9.30814 25.6986 9.27458 24.7108 9.1124C23.4513 8.90577 22.253 8.49133 21.1492 7.88086C20.0098 7.25067 19.034 6.44505 18.2493 5.48637L18.221 5.45193C17.8752 5.02954 17.4828 4.55035 17.0089 4.57095C16.5333 4.59156 16.1868 5.12521 16.0214 5.61794C15.7706 6.36528 15.936 7.47643 16.4532 8.51753C16.898 9.41292 17.7969 10.6692 19.5521 11.5772C21.2972 12.1344 23.2223 11.9116 25.084 11.6959C27.1732 11.4536 29.3337 11.2034 31.3055 12.0267C32.4653 12.5112 34.9542 14.5534 35.7463 17.4671C33.1891 17.5168 31.2746 18.041 30.2115 18.726C28.4233 19.8783 24.5344 20.9618 23.795 21.1252L23.7141 21.1428C23.2885 21.2356 22.8487 21.3315 22.6839 21.6456C22.5208 21.9567 22.7275 22.38 23.023 22.5804C23.3644 22.8118 23.8224 22.8598 24.2663 22.8771C25.8175 22.9375 27.8682 22.3941 29.8945 21.3869C31.4041 20.6363 33.4181 18.9915 35.9368 18.416C36.1622 18.9877 36.7409 19.8786 37.8983 19.8786C36.5537 18.2047 37.0982 16.0772 35.6339 13.1055L35.6348 13.1058Z" fill="white"/>
<path d="M27.145 23.0735C27.0967 23.1339 27.0484 23.1936 27.0004 23.2534C26.9539 23.311 26.9077 23.3687 26.8618 23.4261C26.6522 23.6875 26.4783 23.9092 26.3102 24.1417C26.2684 24.1994 26.1986 24.2962 26.2034 24.3516C26.2066 24.3907 26.2705 24.4463 26.3479 24.459C26.4594 24.4775 26.591 24.4396 26.727 24.3957C28.1525 23.9348 29.5898 22.8654 30.6477 21.5117C29.4944 22.1346 28.3109 22.6135 27.1953 22.9246C27.1965 22.9767 27.18 23.0297 27.145 23.0735Z" fill="white"/>
<path d="M22.2879 21.4068C22.5587 20.9226 23.1433 20.7951 23.6145 20.6924L23.6943 20.6751C24.0578 20.5947 24.4125 20.482 24.756 20.3374C23.1613 20.3666 21.563 20.1205 20.0771 19.6131C18.7743 19.1683 18.0882 18.572 17.7271 18.0798C16.5732 17.9671 15.4188 17.7799 14.2941 17.5232C13.9801 17.4517 13.5989 17.3949 13.4417 17.5939C13.3475 17.7128 13.3643 17.9014 13.4229 18.036C13.5029 18.2196 13.6642 18.378 13.8091 18.5119C15.2375 19.8312 17.2591 20.7416 19.655 21.1448C20.4595 21.2802 21.3225 21.3659 22.2882 21.4068H22.2879Z" fill="white"/>
<path d="M26.5346 23.0943C25.8044 23.2583 25.1135 23.3442 24.4928 23.3442C24.4086 23.3442 24.3259 23.3427 24.2443 23.3395C23.7319 23.3195 23.1976 23.26 22.7602 22.9636C22.5254 22.8044 22.3346 22.5604 22.2363 22.294C22.2245 22.2625 22.2148 22.2307 22.2057 22.1992C21.8278 22.392 21.4589 22.5607 21.1001 22.7246C20.6239 22.9421 20.1741 23.1473 19.8094 23.3663C19.4948 23.5553 19.4671 23.6621 19.4786 23.7089C19.4865 23.7404 19.5351 23.8211 19.8162 23.8799C22.0367 24.3429 24.4189 24.0657 26.5299 23.0999C26.5314 23.0981 26.5329 23.0964 26.534 23.0946L26.5346 23.0943Z" fill="white"/>
<path d="M42.2578 14.9963L45.2955 6.29912H47.4351L50.4668 14.9963H48.5562L47.8992 12.8868H44.8254L44.1684 14.9963H42.2578ZM46.3442 7.98671L45.2473 11.5246H47.4773L46.3804 7.98671H46.3442Z" fill="white"/>
<path d="M51.6056 14.9963V6.29912H53.1968L57.1265 11.9526H57.1627V6.29912H58.9768V14.9963H57.3977L53.456 9.30063H53.4198V14.9963H51.6056Z" fill="white"/>
<path d="M64.5939 15.1469C61.9962 15.1469 60.405 13.4533 60.405 10.6206V10.6145C60.405 7.83001 62.0022 6.14844 64.5517 6.14844C66.6431 6.14844 68.0655 7.36592 68.3548 8.99927L68.3729 9.08365H66.5467L66.5226 9.02338C66.2333 8.17958 65.5401 7.69138 64.5577 7.69138C63.1233 7.69138 62.2614 8.75216 62.2614 10.5965V10.6025C62.2614 12.489 63.1775 13.604 64.624 13.604C65.8114 13.604 66.625 12.8988 66.6732 11.826L66.6793 11.6994H64.6903V10.3433H68.4512V11.3438C68.4512 13.7125 67.0168 15.1469 64.5939 15.1469Z" fill="white"/>
<path d="M69.9035 14.9963V6.29912H75.6655V7.79987H71.7237V9.88526H75.4425V11.3077H71.7237V13.4955H75.6655V14.9963H69.9035Z" fill="white"/>
<path d="M77.2263 14.9963V6.29912H79.0464V13.4955H82.8496V14.9963H77.2263Z" fill="white"/>
<path d="M87.3516 15.1469C85.2843 15.1469 83.9523 14.2007 83.8498 12.5975L83.8438 12.501H85.5615L85.5736 12.5673C85.6881 13.2424 86.4053 13.6643 87.3998 13.6643C88.4063 13.6643 89.0392 13.2243 89.0392 12.5613V12.5553C89.0392 11.9646 88.6113 11.6693 87.5324 11.4463L86.6163 11.2655C84.8986 10.9219 84.0306 10.1022 84.0306 8.79435V8.78832C84.0306 7.19716 85.4169 6.14844 87.3456 6.14844C89.3586 6.14844 90.5942 7.15497 90.6786 8.67983L90.6846 8.79435H88.9669L88.9608 8.72202C88.8704 8.04096 88.2436 7.62508 87.3456 7.62508C86.4114 7.63111 85.8508 8.05904 85.8508 8.67983V8.68586C85.8508 9.23433 86.2968 9.55377 87.2974 9.75266L88.2195 9.9395C90.0397 10.3011 90.8594 11.0425 90.8594 12.4106V12.4167C90.8594 14.0862 89.5455 15.1469 87.3516 15.1469Z" fill="white"/>
<path d="M59.4852 27.5333C57.6656 27.5333 56.4831 26.5575 56.3683 25.1684L56.3626 25.0995H57.7804L57.7861 25.1627C57.8665 25.8343 58.5094 26.3222 59.4795 26.3222C60.4381 26.3222 61.0752 25.7941 61.0752 25.0421V25.0306C61.0752 24.1581 60.4323 23.676 59.3762 23.676H58.3946V22.5739H59.3417C60.2544 22.5739 60.8629 22.0573 60.8629 21.334V21.3225C60.8629 20.5763 60.3577 20.1401 59.468 20.1401C58.5955 20.1401 57.9985 20.5935 57.9239 21.3053L57.9182 21.3627H56.5405L56.5463 21.2938C56.6668 19.8932 57.7976 18.9633 59.468 18.9633C61.1786 18.9633 62.2864 19.8416 62.2864 21.1274V21.1388C62.2864 22.1663 61.5402 22.8494 60.5471 23.056V23.0847C61.7698 23.1995 62.5791 23.9228 62.5791 25.0708V25.0823C62.5791 26.5231 61.3163 27.5333 59.4852 27.5333Z" fill="white"/>
<path d="M67.0964 27.5333C65.0644 27.5333 63.8417 25.8859 63.8417 23.2512V23.2397C63.8417 20.605 65.0644 18.9633 67.0964 18.9633C69.1227 18.9633 70.351 20.605 70.351 23.2397V23.2512C70.351 25.8859 69.1227 27.5333 67.0964 27.5333ZM67.0964 26.3222C68.21 26.3222 68.8586 25.1627 68.8586 23.2512V23.2397C68.8586 21.3283 68.21 20.1802 67.0964 20.1802C65.9771 20.1802 65.3342 21.3283 65.3342 23.2397V23.2512C65.3342 25.1627 65.9771 26.3222 67.0964 26.3222Z" fill="white"/>
<path d="M71.7514 24.6633V23.389H74.1565V21.1216H75.4251V23.389H77.8359V24.6633H75.4251V26.9306H74.1565V24.6633H71.7514Z" fill="white"/>
</svg>
