<svg width="99" height="32" viewBox="0 0 99 32" fill="none" xmlns="http://www.w3.org/2000/svg">
<g clip-path="url(#clip0_150_14565)">
<path fill-rule="evenodd" clip-rule="evenodd" d="M31.0863 15.9104C31.0863 21.5994 26.4664 26.2113 20.7674 26.2113C15.3605 26.2113 10.9249 22.0601 10.4844 16.7762H24.1237V15.0445H10.4844C10.9249 9.76059 15.3605 5.60938 20.7674 5.60938C26.4664 5.60938 31.0863 10.2213 31.0863 15.9104ZM69.3425 24.345C72.918 24.345 75.2631 22.418 75.2631 19.5157C75.2631 16.8224 73.4985 15.5454 70.8285 15.1043L68.4602 14.7096C66.6493 14.4078 65.4418 13.6183 65.4418 11.877C65.4418 10.1124 66.7886 8.76576 69.3425 8.76576C71.8269 8.76576 73.1038 10.0195 73.2431 11.8073H75.031C74.8917 9.43909 73.0806 7.32624 69.3657 7.32624C65.6972 7.32624 63.6774 9.39264 63.6774 11.9466C63.6774 14.6631 65.5115 15.9169 68.0191 16.3348L70.4106 16.7063C72.4073 17.0546 73.5217 17.8672 73.5217 19.5854C73.5217 21.6054 71.8733 22.9056 69.3657 22.9056C66.7654 22.9056 65.14 21.6518 65.0007 19.5157H63.2362C63.3755 22.3019 65.5115 24.345 69.3425 24.345ZM42.9831 24.02H36.482V7.67451H42.7509C45.5139 7.67451 47.4409 9.29977 47.4409 11.9002C47.4409 13.7809 46.3729 15.0346 44.6549 15.4526V15.5222C46.698 15.9169 47.9517 17.31 47.9517 19.4925C47.9517 22.3019 45.8854 24.02 42.9831 24.02ZM42.5188 14.8489C44.4924 14.8489 45.6997 13.7809 45.6997 12.1092V11.877C45.6997 10.2053 44.4924 9.16047 42.5188 9.16047H38.2235V14.8489H42.5188ZM42.7277 22.5341C44.8871 22.5341 46.2104 21.35 46.2104 19.5389V19.3068C46.2104 17.4261 44.8638 16.2884 42.7045 16.2884H38.2235V22.5341H42.7277ZM62.0138 24.02H60.1563L58.7633 19.5854H52.2622L50.8692 24.02H49.1045L54.468 7.67451H56.5807L62.0138 24.02ZM55.6056 9.46231H55.4663L52.7265 18.1226H58.3221L55.6056 9.46231ZM77.8786 24.02V7.67451H88.3732V9.18368H79.62V14.8025H87.6767V16.2884H79.62V22.5108H88.3732V24.02H77.8786Z" fill="white"/>
</g>
<defs>
<clipPath id="clip0_150_14565">
<rect width="77.8888" height="20.7828" fill="white" transform="translate(10.4922 5.60938)"/>
</clipPath>
</defs>
</svg>
