<svg width="1366" height="548" viewBox="0 0 1366 548" fill="none" xmlns="http://www.w3.org/2000/svg">
<g clip-path="url(#clip0_212_1984)">
<mask id="mask0_212_1984" style="mask-type:luminance" maskUnits="userSpaceOnUse" x="0" y="0" width="1366" height="548">
<path d="M1366 0H0V548H1366V0Z" fill="white"/>
</mask>
<g mask="url(#mask0_212_1984)">
<path d="M1366 0H0V548H1366V0Z" fill="#101012"/>
<mask id="mask1_212_1984" style="mask-type:alpha" maskUnits="userSpaceOnUse" x="0" y="0" width="1367" height="548">
<path d="M0.234375 0H1366.23V548H0.234375V0Z" fill="url(#paint0_radial_212_1984)"/>
</mask>
<g mask="url(#mask1_212_1984)">
<path d="M455.897 -41.7344L474.068 -10.1606L455.897 21.4132H419.554L401.383 -10.1606L419.554 -41.7344H455.897Z" stroke="#1A1A1A" stroke-width="2" stroke-linejoin="round"/>
<path d="M237.858 -41.7344L256.029 -10.1606L237.858 21.4132H201.515L183.344 -10.1606L201.515 -41.7344H237.858Z" stroke="#1A1A1A" stroke-width="2" stroke-linejoin="round"/>
<path d="M19.8189 -41.7344L37.9903 -10.1606L19.8189 21.4132H-16.5239L-34.6953 -10.1606L-16.5239 -41.7344H19.8189Z" stroke="#1A1A1A" stroke-width="2" stroke-linejoin="round"/>
<path d="M455.897 210.852L474.068 242.425L455.897 273.999H419.554L401.383 242.425L419.554 210.852H455.897Z" stroke="#1A1A1A" stroke-width="2" stroke-linejoin="round"/>
<path d="M237.874 210.852L256.045 242.425L237.874 273.999H201.531L183.359 242.425L201.531 210.852H237.874Z" stroke="#1A1A1A" stroke-width="2" stroke-linejoin="round"/>
<path d="M19.8189 210.852L37.9903 242.425L19.8189 273.999H-16.5239L-34.6953 242.425L-16.5239 210.852H19.8189Z" stroke="#1A1A1A" stroke-width="2" stroke-linejoin="round"/>
<path d="M564.897 -41.7344L583.068 -10.1606L564.897 21.4132H528.554L510.383 -10.1606L528.554 -41.7344H564.897Z" stroke="#1A1A1A" stroke-width="2" stroke-linejoin="round"/>
<path d="M346.866 -41.7344L365.037 -10.1606L346.866 21.4132H310.523L292.352 -10.1606L310.523 -41.7344H346.866Z" stroke="#1A1A1A" stroke-width="2" stroke-linejoin="round"/>
<path d="M128.827 -41.7344L146.998 -10.1606L128.827 21.4132H92.4839L74.3125 -10.1606L92.4839 -41.7344H128.827Z" stroke="#1A1A1A" stroke-width="2" stroke-linejoin="round"/>
<path d="M564.897 210.852L583.068 242.425L564.897 273.999H528.554L510.383 242.425L528.554 210.852H564.897Z" stroke="#1A1A1A" stroke-width="2" stroke-linejoin="round"/>
<path d="M346.866 210.852L365.037 242.425L346.866 273.999H310.523L292.352 242.425L310.523 210.852H346.866Z" stroke="#1A1A1A" stroke-width="2" stroke-linejoin="round"/>
<path d="M128.827 210.852L146.998 242.425L128.827 273.999H92.4839L74.3125 242.425L92.4839 210.852H128.827Z" stroke="#1A1A1A" stroke-width="2" stroke-linejoin="round"/>
<path d="M891.944 -41.7344L910.115 -10.1606L891.944 21.4132H855.601L837.43 -10.1606L855.601 -41.7344H891.944Z" stroke="#1A1A1A" stroke-width="2" stroke-linejoin="round"/>
<path d="M891.944 210.852L910.115 242.425L891.944 273.999H855.601L837.43 242.425L855.601 210.852H891.944Z" stroke="#1A1A1A" stroke-width="2" stroke-linejoin="round"/>
<path d="M673.905 -41.7344L692.076 -10.1606L673.905 21.4132H637.562L619.391 -10.1606L637.562 -41.7344H673.905Z" stroke="#1A1A1A" stroke-width="2" stroke-linejoin="round"/>
<path d="M673.905 210.852L692.076 242.425L673.905 273.999H637.562L619.391 242.425L637.562 210.852H673.905Z" stroke="#1A1A1A" stroke-width="2" stroke-linejoin="round"/>
<path d="M782.928 -41.7344L801.1 -10.1606L782.928 21.4132H746.585L728.414 -10.1606L746.585 -41.7344H782.928Z" stroke="#1A1A1A" stroke-width="2" stroke-linejoin="round"/>
<path d="M782.928 210.852L801.1 242.425L782.928 273.999H746.585L728.414 242.425L746.585 210.852H782.928Z" stroke="#1A1A1A" stroke-width="2" stroke-linejoin="round"/>
<path d="M474.058 179.281L455.887 210.855L474.058 242.429H510.401L528.572 210.855L510.401 179.281H474.058Z" stroke="#1A1A1A" stroke-width="2" stroke-linejoin="round"/>
<path d="M256.011 179.281L237.84 210.855L256.011 242.429H292.354L310.525 210.855L292.354 179.281H256.011Z" stroke="#1A1A1A" stroke-width="2" stroke-linejoin="round"/>
<path d="M37.9683 179.281L19.7969 210.855L37.9683 242.429H74.3112L92.4826 210.855L74.3112 179.281H37.9683Z" stroke="#1A1A1A" stroke-width="2" stroke-linejoin="round"/>
<path d="M583.078 179.281L564.906 210.855L583.078 242.429H619.42L637.592 210.855L619.42 179.281H583.078Z" stroke="#1A1A1A" stroke-width="2" stroke-linejoin="round"/>
<path d="M365.031 179.281L346.859 210.855L365.031 242.429H401.373L419.545 210.855L401.373 179.281H365.031Z" stroke="#1A1A1A" stroke-width="2" stroke-linejoin="round"/>
<path d="M146.999 179.281L128.828 210.855L146.999 242.429H183.342L201.514 210.855L183.342 179.281H146.999Z" stroke="#1A1A1A" stroke-width="2" stroke-linejoin="round"/>
<path d="M692.097 179.281L673.926 210.855L692.097 242.429H728.44L746.611 210.855L728.44 179.281H692.097Z" stroke="#1A1A1A" stroke-width="2" stroke-linejoin="round"/>
<path d="M801.105 179.281L782.934 210.855L801.105 242.429H837.448L855.619 210.855L837.448 179.281H801.105Z" stroke="#1A1A1A" stroke-width="2" stroke-linejoin="round"/>
<path d="M474.058 -10.1602L455.887 21.4137L474.058 52.9875H510.401L528.572 21.4137L510.401 -10.1602H474.058Z" stroke="#1A1A1A" stroke-width="2" stroke-linejoin="round"/>
<path d="M256.011 -10.1602L237.84 21.4137L256.011 52.9875H292.354L310.525 21.4137L292.354 -10.1602H256.011Z" stroke="#1A1A1A" stroke-width="2" stroke-linejoin="round"/>
<path d="M37.9683 -10.1602L19.7969 21.4137L37.9683 52.9875H74.3112L92.4826 21.4137L74.3112 -10.1602H37.9683Z" stroke="#1A1A1A" stroke-width="2" stroke-linejoin="round"/>
<path d="M474.058 242.426L455.887 274L474.058 305.573H510.401L528.572 274L510.401 242.426H474.058Z" stroke="#1A1A1A" stroke-width="2" stroke-linejoin="round"/>
<path d="M256.011 242.426L237.84 274L256.011 305.573H292.354L310.525 274L292.354 242.426H256.011Z" stroke="#1A1A1A" stroke-width="2" stroke-linejoin="round"/>
<path d="M37.9683 242.426L19.7969 274L37.9683 305.573H74.3112L92.4826 274L74.3112 242.426H37.9683Z" stroke="#1A1A1A" stroke-width="2" stroke-linejoin="round"/>
<path d="M474.058 116.133L455.887 147.707L474.058 179.28H510.401L528.572 147.707L510.401 116.133H474.058Z" stroke="#1A1A1A" stroke-width="2" stroke-linejoin="round"/>
<path d="M256.011 116.133L237.84 147.707L256.011 179.28H292.354L310.525 147.707L292.354 116.133H256.011Z" stroke="#1A1A1A" stroke-width="2" stroke-linejoin="round"/>
<path d="M37.9683 116.133L19.7969 147.707L37.9683 179.28H74.3112L92.4826 147.707L74.3112 116.133H37.9683Z" stroke="#1A1A1A" stroke-width="2" stroke-linejoin="round"/>
<path d="M474.058 52.9883L455.887 84.5621L474.058 116.136H510.401L528.572 84.5621L510.401 52.9883H474.058Z" stroke="#1A1A1A" stroke-width="2" stroke-linejoin="round"/>
<path d="M256.011 52.9883L237.84 84.5621L256.011 116.136H292.354L310.525 84.5621L292.354 52.9883H256.011Z" stroke="#1A1A1A" stroke-width="2" stroke-linejoin="round"/>
<path d="M37.9683 52.9883L19.7969 84.5621L37.9683 116.136H74.3112L92.4826 84.5621L74.3112 52.9883H37.9683Z" stroke="#1A1A1A" stroke-width="2" stroke-linejoin="round"/>
<path d="M474.058 305.574L455.887 337.148L474.058 368.722H510.401L528.572 337.148L510.401 305.574H474.058Z" stroke="#1A1A1A" stroke-width="2" stroke-linejoin="round"/>
<path d="M474.058 431.867L455.887 463.441L474.058 495.015H510.401L528.572 463.441L510.401 431.867H474.058Z" stroke="#1A1A1A" stroke-width="2" stroke-linejoin="round"/>
<path d="M474.058 368.723L455.887 400.296L474.058 431.87H510.401L528.572 400.296L510.401 368.723H474.058Z" stroke="#1A1A1A" stroke-width="2" stroke-linejoin="round"/>
<path d="M474.058 495.016L455.887 526.589L474.058 558.163H510.401L528.572 526.589L510.401 495.016H474.058Z" stroke="#1A1A1A" stroke-width="2" stroke-linejoin="round"/>
<path d="M256.011 305.574L237.84 337.148L256.011 368.722H292.354L310.525 337.148L292.354 305.574H256.011Z" stroke="#1A1A1A" stroke-width="2" stroke-linejoin="round"/>
<path d="M256.011 431.867L237.84 463.441L256.011 495.015H292.354L310.525 463.441L292.354 431.867H256.011Z" stroke="#1A1A1A" stroke-width="2" stroke-linejoin="round"/>
<path d="M256.011 368.723L237.84 400.296L256.011 431.87H292.354L310.525 400.296L292.354 368.723H256.011Z" stroke="#1A1A1A" stroke-width="2" stroke-linejoin="round"/>
<path d="M256.011 495.016L237.84 526.589L256.011 558.163H292.354L310.525 526.589L292.354 495.016H256.011Z" stroke="#1A1A1A" stroke-width="2" stroke-linejoin="round"/>
<path d="M37.9683 305.574L19.7969 337.148L37.9683 368.722H74.3112L92.4826 337.148L74.3112 305.574H37.9683Z" stroke="#1A1A1A" stroke-width="2" stroke-linejoin="round"/>
<path d="M37.9683 431.867L19.7969 463.441L37.9683 495.015H74.3112L92.4826 463.441L74.3112 431.867H37.9683Z" stroke="#1A1A1A" stroke-width="2" stroke-linejoin="round"/>
<path d="M37.9683 368.723L19.7969 400.296L37.9683 431.87H74.3112L92.4826 400.296L74.3112 368.723H37.9683Z" stroke="#1A1A1A" stroke-width="2" stroke-linejoin="round"/>
<path d="M37.9683 495.016L19.7969 526.589L37.9683 558.163H74.3112L92.4826 526.589L74.3112 495.016H37.9683Z" stroke="#1A1A1A" stroke-width="2" stroke-linejoin="round"/>
<path d="M583.078 -10.1602L564.906 21.4137L583.078 52.9875H619.42L637.592 21.4137L619.42 -10.1602H583.078Z" stroke="#1A1A1A" stroke-width="2" stroke-linejoin="round"/>
<path d="M365.031 -10.1602L346.859 21.4137L365.031 52.9875H401.373L419.545 21.4137L401.373 -10.1602H365.031Z" stroke="#1A1A1A" stroke-width="2" stroke-linejoin="round"/>
<path d="M146.999 -10.1602L128.828 21.4137L146.999 52.9875H183.342L201.514 21.4137L183.342 -10.1602H146.999Z" stroke="#1A1A1A" stroke-width="2" stroke-linejoin="round"/>
<path d="M583.078 242.426L564.906 274L583.078 305.573H619.42L637.592 274L619.42 242.426H583.078Z" stroke="#1A1A1A" stroke-width="2" stroke-linejoin="round"/>
<path d="M365.031 242.426L346.859 274L365.031 305.573H401.373L419.545 274L401.373 242.426H365.031Z" stroke="#1A1A1A" stroke-width="2" stroke-linejoin="round"/>
<path d="M146.999 242.426L128.828 274L146.999 305.573H183.342L201.514 274L183.342 242.426H146.999Z" stroke="#1A1A1A" stroke-width="2" stroke-linejoin="round"/>
<path d="M910.124 242.426L891.953 274L910.124 305.573H946.467L964.639 274L946.467 242.426H910.124Z" stroke="#1A1A1A" stroke-width="2" stroke-linejoin="round"/>
<path d="M583.078 116.133L564.906 147.707L583.078 179.28H619.42L637.592 147.707L619.42 116.133H583.078Z" stroke="#1A1A1A" stroke-width="2" stroke-linejoin="round"/>
<path d="M365.031 116.133L346.859 147.707L365.031 179.28H401.373L419.545 147.707L401.373 116.133H365.031Z" stroke="#1A1A1A" stroke-width="2" stroke-linejoin="round"/>
<path d="M146.999 116.133L128.828 147.707L146.999 179.28H183.342L201.514 147.707L183.342 116.133H146.999Z" stroke="#1A1A1A" stroke-width="2" stroke-linejoin="round"/>
<path d="M583.078 52.9883L564.906 84.5621L583.078 116.136H619.42L637.592 84.5621L619.42 52.9883H583.078Z" stroke="#1A1A1A" stroke-width="2" stroke-linejoin="round"/>
<path d="M365.031 52.9883L346.859 84.5621L365.031 116.136H401.373L419.545 84.5621L401.373 52.9883H365.031Z" stroke="#1A1A1A" stroke-width="2" stroke-linejoin="round"/>
<path d="M146.999 52.9883L128.828 84.5621L146.999 116.136H183.342L201.514 84.5621L183.342 52.9883H146.999Z" stroke="#1A1A1A" stroke-width="2" stroke-linejoin="round"/>
<path d="M583.078 305.574L564.906 337.148L583.078 368.722H619.42L637.592 337.148L619.42 305.574H583.078Z" stroke="#1A1A1A" stroke-width="2" stroke-linejoin="round"/>
<path d="M583.078 431.867L564.906 463.441L583.078 495.015H619.42L637.592 463.441L619.42 431.867H583.078Z" stroke="#1A1A1A" stroke-width="2" stroke-linejoin="round"/>
<path d="M583.078 368.723L564.906 400.296L583.078 431.87H619.42L637.592 400.296L619.42 368.723H583.078Z" stroke="#1A1A1A" stroke-width="2" stroke-linejoin="round"/>
<path d="M583.078 495.016L564.906 526.589L583.078 558.163H619.42L637.592 526.589L619.42 495.016H583.078Z" stroke="#1A1A1A" stroke-width="2" stroke-linejoin="round"/>
<path d="M365.031 305.574L346.859 337.148L365.031 368.722H401.373L419.545 337.148L401.373 305.574H365.031Z" stroke="#1A1A1A" stroke-width="2" stroke-linejoin="round"/>
<path d="M365.031 431.867L346.859 463.441L365.031 495.015H401.373L419.545 463.441L401.373 431.867H365.031Z" stroke="#1A1A1A" stroke-width="2" stroke-linejoin="round"/>
<path d="M365.031 368.723L346.859 400.296L365.031 431.87H401.373L419.545 400.296L401.373 368.723H365.031Z" stroke="#1A1A1A" stroke-width="2" stroke-linejoin="round"/>
<path d="M365.031 495.016L346.859 526.589L365.031 558.163H401.373L419.545 526.589L401.373 495.016H365.031Z" stroke="#1A1A1A" stroke-width="2" stroke-linejoin="round"/>
<path d="M146.999 305.574L128.828 337.148L146.999 368.722H183.342L201.514 337.148L183.342 305.574H146.999Z" stroke="#1A1A1A" stroke-width="2" stroke-linejoin="round"/>
<path d="M146.999 431.867L128.828 463.441L146.999 495.015H183.342L201.514 463.441L183.342 431.867H146.999Z" stroke="#1A1A1A" stroke-width="2" stroke-linejoin="round"/>
<path d="M146.999 368.723L128.828 400.296L146.999 431.87H183.342L201.514 400.296L183.342 368.723H146.999Z" stroke="#1A1A1A" stroke-width="2" stroke-linejoin="round"/>
<path d="M146.999 495.016L128.828 526.589L146.999 558.163H183.342L201.514 526.589L183.342 495.016H146.999Z" stroke="#1A1A1A" stroke-width="2" stroke-linejoin="round"/>
<path d="M910.124 305.574L891.953 337.148L910.124 368.722H946.467L964.639 337.148L946.467 305.574H910.124Z" stroke="#1A1A1A" stroke-width="2" stroke-linejoin="round"/>
<path d="M910.124 431.867L891.953 463.441L910.124 495.015H946.467L964.639 463.441L946.467 431.867H910.124Z" stroke="#1A1A1A" stroke-width="2" stroke-linejoin="round"/>
<path d="M910.124 368.723L891.953 400.296L910.124 431.87H946.467L964.639 400.296L946.467 368.723H910.124Z" stroke="#1A1A1A" stroke-width="2" stroke-linejoin="round"/>
<path d="M910.124 495.016L891.953 526.589L910.124 558.163H946.467L964.639 526.589L946.467 495.016H910.124Z" stroke="#1A1A1A" stroke-width="2" stroke-linejoin="round"/>
<path d="M692.097 -10.1602L673.926 21.4137L692.097 52.9875H728.44L746.611 21.4137L728.44 -10.1602H692.097Z" stroke="#1A1A1A" stroke-width="2" stroke-linejoin="round"/>
<path d="M692.097 242.426L673.926 274L692.097 305.573H728.44L746.611 274L728.44 242.426H692.097Z" stroke="#1A1A1A" stroke-width="2" stroke-linejoin="round"/>
<path d="M1019.13 242.426L1000.95 274L1019.13 305.573H1055.47L1073.64 274L1055.47 242.426H1019.13Z" stroke="#1A1A1A" stroke-width="2" stroke-linejoin="round"/>
<path d="M1237.15 242.426L1218.98 274L1237.15 305.573H1273.49L1291.66 274L1273.49 242.426H1237.15Z" stroke="#1A1A1A" stroke-width="2" stroke-linejoin="round"/>
<path d="M801.105 -10.1602L782.934 21.4137L801.105 52.9875H837.448L855.619 21.4137L837.448 -10.1602H801.105Z" stroke="#1A1A1A" stroke-width="2" stroke-linejoin="round"/>
<path d="M801.105 242.426L782.934 274L801.105 305.573H837.448L855.619 274L837.448 242.426H801.105Z" stroke="#1A1A1A" stroke-width="2" stroke-linejoin="round"/>
<path d="M1128.14 242.426L1109.97 274L1128.14 305.573H1164.48L1182.66 274L1164.48 242.426H1128.14Z" stroke="#1A1A1A" stroke-width="2" stroke-linejoin="round"/>
<path d="M1346.17 242.426L1327.99 274L1346.17 305.573H1382.51L1400.68 274L1382.51 242.426H1346.17Z" stroke="#1A1A1A" stroke-width="2" stroke-linejoin="round"/>
<path d="M692.097 116.133L673.926 147.707L692.097 179.28H728.44L746.611 147.707L728.44 116.133H692.097Z" stroke="#1A1A1A" stroke-width="2" stroke-linejoin="round"/>
<path d="M692.097 52.9883L673.926 84.5621L692.097 116.136H728.44L746.611 84.5621L728.44 52.9883H692.097Z" stroke="#1A1A1A" stroke-width="2" stroke-linejoin="round"/>
<path d="M692.097 305.574L673.926 337.148L692.097 368.722H728.44L746.611 337.148L728.44 305.574H692.097Z" stroke="#1A1A1A" stroke-width="2" stroke-linejoin="round"/>
<path d="M692.097 431.867L673.926 463.441L692.097 495.015H728.44L746.611 463.441L728.44 431.867H692.097Z" stroke="#1A1A1A" stroke-width="2" stroke-linejoin="round"/>
<path d="M692.097 368.723L673.926 400.296L692.097 431.87H728.44L746.611 400.296L728.44 368.723H692.097Z" stroke="#1A1A1A" stroke-width="2" stroke-linejoin="round"/>
<path d="M692.097 495.016L673.926 526.589L692.097 558.163H728.44L746.611 526.589L728.44 495.016H692.097Z" stroke="#1A1A1A" stroke-width="2" stroke-linejoin="round"/>
<path d="M1019.13 305.574L1000.95 337.148L1019.13 368.722H1055.47L1073.64 337.148L1055.47 305.574H1019.13Z" stroke="#1A1A1A" stroke-width="2" stroke-linejoin="round"/>
<path d="M1237.15 305.574L1218.98 337.148L1237.15 368.722H1273.49L1291.66 337.148L1273.49 305.574H1237.15Z" stroke="#1A1A1A" stroke-width="2" stroke-linejoin="round"/>
<path d="M1019.13 431.867L1000.95 463.441L1019.13 495.015H1055.47L1073.64 463.441L1055.47 431.867H1019.13Z" stroke="#1A1A1A" stroke-width="2" stroke-linejoin="round"/>
<path d="M1237.15 431.867L1218.98 463.441L1237.15 495.015H1273.49L1291.66 463.441L1273.49 431.867H1237.15Z" stroke="#1A1A1A" stroke-width="2" stroke-linejoin="round"/>
<path d="M1019.13 368.723L1000.95 400.296L1019.13 431.87H1055.47L1073.64 400.296L1055.47 368.723H1019.13Z" stroke="#1A1A1A" stroke-width="2" stroke-linejoin="round"/>
<path d="M1237.15 368.723L1218.98 400.296L1237.15 431.87H1273.49L1291.66 400.296L1273.49 368.723H1237.15Z" stroke="#1A1A1A" stroke-width="2" stroke-linejoin="round"/>
<path d="M1019.13 495.016L1000.95 526.589L1019.13 558.163H1055.47L1073.64 526.589L1055.47 495.016H1019.13Z" stroke="#1A1A1A" stroke-width="2" stroke-linejoin="round"/>
<path d="M1237.15 495.016L1218.98 526.589L1237.15 558.163H1273.49L1291.66 526.589L1273.49 495.016H1237.15Z" stroke="#1A1A1A" stroke-width="2" stroke-linejoin="round"/>
<path d="M801.105 116.133L782.934 147.707L801.105 179.28H837.448L855.619 147.707L837.448 116.133H801.105Z" stroke="#1A1A1A" stroke-width="2" stroke-linejoin="round"/>
<path d="M801.105 52.9883L782.934 84.5621L801.105 116.136H837.448L855.619 84.5621L837.448 52.9883H801.105Z" stroke="#1A1A1A" stroke-width="2" stroke-linejoin="round"/>
<path d="M801.105 305.574L782.934 337.148L801.105 368.722H837.448L855.619 337.148L837.448 305.574H801.105Z" stroke="#1A1A1A" stroke-width="2" stroke-linejoin="round"/>
<path d="M801.105 431.867L782.934 463.441L801.105 495.015H837.448L855.619 463.441L837.448 431.867H801.105Z" stroke="#1A1A1A" stroke-width="2" stroke-linejoin="round"/>
<path d="M801.105 368.723L782.934 400.296L801.105 431.87H837.448L855.619 400.296L837.448 368.723H801.105Z" stroke="#1A1A1A" stroke-width="2" stroke-linejoin="round"/>
<path d="M801.105 495.016L782.934 526.589L801.105 558.163H837.448L855.619 526.589L837.448 495.016H801.105Z" stroke="#1A1A1A" stroke-width="2" stroke-linejoin="round"/>
<path d="M1128.14 305.574L1109.97 337.148L1128.14 368.722H1164.48L1182.66 337.148L1164.48 305.574H1128.14Z" stroke="#1A1A1A" stroke-width="2" stroke-linejoin="round"/>
<path d="M1346.17 305.574L1327.99 337.148L1346.17 368.722H1382.51L1400.68 337.148L1382.51 305.574H1346.17Z" stroke="#1A1A1A" stroke-width="2" stroke-linejoin="round"/>
<path d="M1128.14 431.867L1109.97 463.441L1128.14 495.015H1164.48L1182.66 463.441L1164.48 431.867H1128.14Z" stroke="#1A1A1A" stroke-width="2" stroke-linejoin="round"/>
<path d="M1346.17 431.867L1327.99 463.441L1346.17 495.015H1382.51L1400.68 463.441L1382.51 431.867H1346.17Z" stroke="#1A1A1A" stroke-width="2" stroke-linejoin="round"/>
<path d="M1128.14 368.723L1109.97 400.296L1128.14 431.87H1164.48L1182.66 400.296L1164.48 368.723H1128.14Z" stroke="#1A1A1A" stroke-width="2" stroke-linejoin="round"/>
<path d="M1346.17 368.723L1327.99 400.296L1346.17 431.87H1382.51L1400.68 400.296L1382.51 368.723H1346.17Z" stroke="#1A1A1A" stroke-width="2" stroke-linejoin="round"/>
<path d="M1128.14 495.016L1109.97 526.589L1128.14 558.163H1164.48L1182.66 526.589L1164.48 495.016H1128.14Z" stroke="#1A1A1A" stroke-width="2" stroke-linejoin="round"/>
<path d="M1346.17 495.016L1327.99 526.589L1346.17 558.163H1382.51L1400.68 526.589L1382.51 495.016H1346.17Z" stroke="#1A1A1A" stroke-width="2" stroke-linejoin="round"/>
<path d="M455.897 21.4141L474.068 52.9879L455.897 84.5617H419.554L401.383 52.9879L419.554 21.4141H455.897Z" stroke="#1A1A1A" stroke-width="2" stroke-linejoin="round"/>
<path d="M237.858 21.4141L256.029 52.9879L237.858 84.5617H201.515L183.344 52.9879L201.515 21.4141H237.858Z" stroke="#1A1A1A" stroke-width="2" stroke-linejoin="round"/>
<path d="M19.8189 21.4141L37.9903 52.9879L19.8189 84.5617H-16.5239L-34.6953 52.9879L-16.5239 21.4141H19.8189Z" stroke="#1A1A1A" stroke-width="2" stroke-linejoin="round"/>
<path d="M455.897 274L474.068 305.574L455.897 337.148H419.554L401.383 305.574L419.554 274H455.897Z" stroke="#1A1A1A" stroke-width="2" stroke-linejoin="round"/>
<path d="M237.874 274L256.045 305.574L237.874 337.148H201.531L183.359 305.574L201.531 274H237.874Z" stroke="#1A1A1A" stroke-width="2" stroke-linejoin="round"/>
<path d="M19.8189 274L37.9903 305.574L19.8189 337.148H-16.5239L-34.6953 305.574L-16.5239 274H19.8189Z" stroke="#1A1A1A" stroke-width="2" stroke-linejoin="round"/>
<path d="M455.897 147.707L474.068 179.281L455.897 210.855H419.554L401.383 179.281L419.554 147.707H455.897Z" stroke="#1A1A1A" stroke-width="2" stroke-linejoin="round"/>
<path d="M237.874 147.707L256.045 179.281L237.874 210.855H201.531L183.359 179.281L201.531 147.707H237.874Z" stroke="#1A1A1A" stroke-width="2" stroke-linejoin="round"/>
<path d="M19.8189 147.707L37.9903 179.281L19.8189 210.855H-16.5239L-34.6953 179.281L-16.5239 147.707H19.8189Z" stroke="#1A1A1A" stroke-width="2" stroke-linejoin="round"/>
<path d="M455.897 84.5547L474.068 116.128L455.897 147.702H419.554L401.383 116.128L419.554 84.5547H455.897Z" stroke="#1A1A1A" stroke-width="2" stroke-linejoin="round"/>
<path d="M237.858 84.5547L256.029 116.128L237.858 147.702H201.515L183.344 116.128L201.515 84.5547H237.858Z" stroke="#1A1A1A" stroke-width="2" stroke-linejoin="round"/>
<path d="M19.8189 84.5547L37.9903 116.128L19.8189 147.702H-16.5239L-34.6953 116.128L-16.5239 84.5547H19.8189Z" stroke="#1A1A1A" stroke-width="2" stroke-linejoin="round"/>
<path d="M455.897 337.148L474.068 368.722L455.897 400.296H419.554L401.383 368.722L419.554 337.148H455.897Z" stroke="#1A1A1A" stroke-width="2" stroke-linejoin="round"/>
<path d="M455.897 463.441L474.068 495.015L455.897 526.589H419.554L401.383 495.015L419.554 463.441H455.897Z" stroke="#1A1A1A" stroke-width="2" stroke-linejoin="round"/>
<path d="M455.897 400.293L474.068 431.867L455.897 463.441H419.554L401.383 431.867L419.554 400.293H455.897Z" stroke="#1A1A1A" stroke-width="2" stroke-linejoin="round"/>
<path d="M455.897 526.59L474.068 558.164L455.897 589.737H419.554L401.383 558.164L419.554 526.59H455.897Z" stroke="#1A1A1A" stroke-width="2" stroke-linejoin="round"/>
<path d="M237.874 337.148L256.045 368.722L237.874 400.296H201.531L183.359 368.722L201.531 337.148H237.874Z" stroke="#1A1A1A" stroke-width="2" stroke-linejoin="round"/>
<path d="M237.874 463.441L256.045 495.015L237.874 526.589H201.531L183.359 495.015L201.531 463.441H237.874Z" stroke="#1A1A1A" stroke-width="2" stroke-linejoin="round"/>
<path d="M237.874 400.293L256.045 431.867L237.874 463.441H201.531L183.359 431.867L201.531 400.293H237.874Z" stroke="#1A1A1A" stroke-width="2" stroke-linejoin="round"/>
<path d="M237.874 526.59L256.045 558.164L237.874 589.737H201.531L183.359 558.164L201.531 526.59H237.874Z" stroke="#1A1A1A" stroke-width="2" stroke-linejoin="round"/>
<path d="M19.8189 337.148L37.9903 368.722L19.8189 400.296H-16.5239L-34.6953 368.722L-16.5239 337.148H19.8189Z" stroke="#1A1A1A" stroke-width="2" stroke-linejoin="round"/>
<path d="M19.8189 463.441L37.9903 495.015L19.8189 526.589H-16.5239L-34.6953 495.015L-16.5239 463.441H19.8189Z" stroke="#1A1A1A" stroke-width="2" stroke-linejoin="round"/>
<path d="M19.8189 400.293L37.9903 431.867L19.8189 463.441H-16.5239L-34.6953 431.867L-16.5239 400.293H19.8189Z" stroke="#1A1A1A" stroke-width="2" stroke-linejoin="round"/>
<path d="M19.8189 526.59L37.9903 558.164L19.8189 589.737H-16.5239L-34.6953 558.164L-16.5239 526.59H19.8189Z" stroke="#1A1A1A" stroke-width="2" stroke-linejoin="round"/>
<path d="M564.897 21.4141L583.068 52.9879L564.897 84.5617H528.554L510.383 52.9879L528.554 21.4141H564.897Z" stroke="#1A1A1A" stroke-width="2" stroke-linejoin="round"/>
<path d="M346.866 21.4141L365.037 52.9879L346.866 84.5617H310.523L292.352 52.9879L310.523 21.4141H346.866Z" stroke="#1A1A1A" stroke-width="2" stroke-linejoin="round"/>
<path d="M128.827 21.4141L146.998 52.9879L128.827 84.5617H92.4839L74.3125 52.9879L92.4839 21.4141H128.827Z" stroke="#1A1A1A" stroke-width="2" stroke-linejoin="round"/>
<path d="M564.897 274L583.068 305.574L564.897 337.148H528.554L510.383 305.574L528.554 274H564.897Z" stroke="#1A1A1A" stroke-width="2" stroke-linejoin="round"/>
<path d="M346.866 274L365.037 305.574L346.866 337.148H310.523L292.352 305.574L310.523 274H346.866Z" stroke="#1A1A1A" stroke-width="2" stroke-linejoin="round"/>
<path d="M128.827 274L146.998 305.574L128.827 337.148H92.4839L74.3125 305.574L92.4839 274H128.827Z" stroke="#1A1A1A" stroke-width="2" stroke-linejoin="round"/>
<path d="M891.944 21.4141L910.115 52.9879L891.944 84.5617H855.601L837.43 52.9879L855.601 21.4141H891.944Z" stroke="#1A1A1A" stroke-width="2" stroke-linejoin="round"/>
<path d="M891.944 274L910.115 305.574L891.944 337.148H855.601L837.43 305.574L855.601 274H891.944Z" stroke="#1A1A1A" stroke-width="2" stroke-linejoin="round"/>
<path d="M564.897 147.707L583.068 179.281L564.897 210.855H528.554L510.383 179.281L528.554 147.707H564.897Z" stroke="#1A1A1A" stroke-width="2" stroke-linejoin="round"/>
<path d="M346.866 147.707L365.037 179.281L346.866 210.855H310.523L292.352 179.281L310.523 147.707H346.866Z" stroke="#1A1A1A" stroke-width="2" stroke-linejoin="round"/>
<path d="M128.827 147.707L146.998 179.281L128.827 210.855H92.4839L74.3125 179.281L92.4839 147.707H128.827Z" stroke="#1A1A1A" stroke-width="2" stroke-linejoin="round"/>
<path d="M891.944 147.707L910.115 179.281L891.944 210.855H855.601L837.43 179.281L855.601 147.707H891.944Z" stroke="#1A1A1A" stroke-width="2" stroke-linejoin="round"/>
<path d="M564.897 84.5547L583.068 116.128L564.897 147.702H528.554L510.383 116.128L528.554 84.5547H564.897Z" stroke="#1A1A1A" stroke-width="2" stroke-linejoin="round"/>
<path d="M346.866 84.5547L365.037 116.128L346.866 147.702H310.523L292.352 116.128L310.523 84.5547H346.866Z" stroke="#1A1A1A" stroke-width="2" stroke-linejoin="round"/>
<path d="M128.827 84.5547L146.998 116.128L128.827 147.702H92.4839L74.3125 116.128L92.4839 84.5547H128.827Z" stroke="#1A1A1A" stroke-width="2" stroke-linejoin="round"/>
<path d="M564.897 337.148L583.068 368.722L564.897 400.296H528.554L510.383 368.722L528.554 337.148H564.897Z" stroke="#1A1A1A" stroke-width="2" stroke-linejoin="round"/>
<path d="M474.058 179.281L455.887 210.855L474.058 242.429H510.401L528.572 210.855L510.401 179.281H474.058Z" stroke="#1A1A1A" stroke-width="2" stroke-linejoin="round"/>
<path d="M256.011 179.281L237.84 210.855L256.011 242.429H292.354L310.525 210.855L292.354 179.281H256.011Z" stroke="#1A1A1A" stroke-width="2" stroke-linejoin="round"/>
<path d="M365.031 179.281L346.859 210.855L365.031 242.429H401.373L419.545 210.855L401.373 179.281H365.031Z" stroke="#1A1A1A" stroke-width="2" stroke-linejoin="round"/>
<path d="M474.058 116.133L455.887 147.707L474.058 179.28H510.401L528.572 147.707L510.401 116.133H474.058Z" stroke="#1A1A1A" stroke-width="2" stroke-linejoin="round"/>
<path d="M256.011 116.133L237.84 147.707L256.011 179.28H292.354L310.525 147.707L292.354 116.133H256.011Z" stroke="#1A1A1A" stroke-width="2" stroke-linejoin="round"/>
<path d="M474.058 52.9883L455.887 84.5621L474.058 116.136H510.401L528.572 84.5621L510.401 52.9883H474.058Z" stroke="#1A1A1A" stroke-width="2" stroke-linejoin="round"/>
<path d="M256.011 52.9883L237.84 84.5621L256.011 116.136H292.354L310.525 84.5621L292.354 52.9883H256.011Z" stroke="#1A1A1A" stroke-width="2" stroke-linejoin="round"/>
<path d="M365.031 116.133L346.859 147.707L365.031 179.28H401.373L419.545 147.707L401.373 116.133H365.031Z" stroke="#1A1A1A" stroke-width="2" stroke-linejoin="round"/>
<path d="M365.031 52.9883L346.859 84.5621L365.031 116.136H401.373L419.545 84.5621L401.373 52.9883H365.031Z" stroke="#1A1A1A" stroke-width="2" stroke-linejoin="round"/>
<path d="M455.897 147.707L474.068 179.281L455.897 210.855H419.554L401.383 179.281L419.554 147.707H455.897Z" stroke="#1A1A1A" stroke-width="2" stroke-linejoin="round"/>
<path d="M455.897 84.5547L474.068 116.128L455.897 147.702H419.554L401.383 116.128L419.554 84.5547H455.897Z" stroke="#1A1A1A" stroke-width="2" stroke-linejoin="round"/>
<path d="M346.866 147.707L365.037 179.281L346.866 210.855H310.523L292.352 179.281L310.523 147.707H346.866Z" stroke="#1A1A1A" stroke-width="2" stroke-linejoin="round"/>
<path d="M346.866 84.5547L365.037 116.128L346.866 147.702H310.523L292.352 116.128L310.523 84.5547H346.866Z" stroke="#1A1A1A" stroke-width="2" stroke-linejoin="round"/>
<path d="M564.897 463.441L583.068 495.015L564.897 526.589H528.554L510.383 495.015L528.554 463.441H564.897Z" stroke="#1A1A1A" stroke-width="2" stroke-linejoin="round"/>
<path d="M564.897 400.293L583.068 431.867L564.897 463.441H528.554L510.383 431.867L528.554 400.293H564.897Z" stroke="#1A1A1A" stroke-width="2" stroke-linejoin="round"/>
<path d="M564.897 526.59L583.068 558.164L564.897 589.737H528.554L510.383 558.164L528.554 526.59H564.897Z" stroke="#1A1A1A" stroke-width="2" stroke-linejoin="round"/>
<path d="M346.866 337.148L365.037 368.722L346.866 400.296H310.523L292.352 368.722L310.523 337.148H346.866Z" stroke="#1A1A1A" stroke-width="2" stroke-linejoin="round"/>
<path d="M346.866 463.441L365.037 495.015L346.866 526.589H310.523L292.352 495.015L310.523 463.441H346.866Z" stroke="#1A1A1A" stroke-width="2" stroke-linejoin="round"/>
<path d="M346.866 400.293L365.037 431.867L346.866 463.441H310.523L292.352 431.867L310.523 400.293H346.866Z" stroke="#1A1A1A" stroke-width="2" stroke-linejoin="round"/>
<path d="M346.866 526.59L365.037 558.164L346.866 589.737H310.523L292.352 558.164L310.523 526.59H346.866Z" stroke="#1A1A1A" stroke-width="2" stroke-linejoin="round"/>
<path d="M128.827 337.148L146.998 368.722L128.827 400.296H92.4839L74.3125 368.722L92.4839 337.148H128.827Z" stroke="#1A1A1A" stroke-width="2" stroke-linejoin="round"/>
<path d="M128.827 463.441L146.998 495.015L128.827 526.589H92.4839L74.3125 495.015L92.4839 463.441H128.827Z" stroke="#1A1A1A" stroke-width="2" stroke-linejoin="round"/>
<path d="M128.827 400.293L146.998 431.867L128.827 463.441H92.4839L74.3125 431.867L92.4839 400.293H128.827Z" stroke="#1A1A1A" stroke-width="2" stroke-linejoin="round"/>
<path d="M128.827 526.59L146.998 558.164L128.827 589.737H92.4839L74.3125 558.164L92.4839 526.59H128.827Z" stroke="#1A1A1A" stroke-width="2" stroke-linejoin="round"/>
<path d="M891.944 84.5547L910.115 116.128L891.944 147.702H855.601L837.43 116.128L855.601 84.5547H891.944Z" stroke="#1A1A1A" stroke-width="2" stroke-linejoin="round"/>
<path d="M891.944 337.148L910.115 368.722L891.944 400.296H855.601L837.43 368.722L855.601 337.148H891.944Z" stroke="#1A1A1A" stroke-width="2" stroke-linejoin="round"/>
<path d="M891.944 463.441L910.115 495.015L891.944 526.589H855.601L837.43 495.015L855.601 463.441H891.944Z" stroke="#1A1A1A" stroke-width="2" stroke-linejoin="round"/>
<path d="M891.944 400.293L910.115 431.867L891.944 463.441H855.601L837.43 431.867L855.601 400.293H891.944Z" stroke="#1A1A1A" stroke-width="2" stroke-linejoin="round"/>
<path d="M891.944 526.59L910.115 558.164L891.944 589.737H855.601L837.43 558.164L855.601 526.59H891.944Z" stroke="#1A1A1A" stroke-width="2" stroke-linejoin="round"/>
<path d="M673.905 21.4141L692.076 52.9879L673.905 84.5617H637.562L619.391 52.9879L637.562 21.4141H673.905Z" stroke="#1A1A1A" stroke-width="2" stroke-linejoin="round"/>
<path d="M673.905 274L692.076 305.574L673.905 337.148H637.562L619.391 305.574L637.562 274H673.905Z" stroke="#1A1A1A" stroke-width="2" stroke-linejoin="round"/>
<path d="M1000.97 274L1019.14 305.574L1000.97 337.148H964.625L946.453 305.574L964.625 274H1000.97Z" stroke="#1A1A1A" stroke-width="2" stroke-linejoin="round"/>
<path d="M1219 274L1237.17 305.574L1219 337.148H1182.66L1164.48 305.574L1182.66 274H1219Z" stroke="#1A1A1A" stroke-width="2" stroke-linejoin="round"/>
<path d="M782.928 21.4141L801.1 52.9879L782.928 84.5617H746.585L728.414 52.9879L746.585 21.4141H782.928Z" stroke="#1A1A1A" stroke-width="2" stroke-linejoin="round"/>
<path d="M782.928 274L801.1 305.574L782.928 337.148H746.585L728.414 305.574L746.585 274H782.928Z" stroke="#1A1A1A" stroke-width="2" stroke-linejoin="round"/>
<path d="M1109.97 274L1128.14 305.574L1109.97 337.148H1073.62L1055.45 305.574L1073.62 274H1109.97Z" stroke="#1A1A1A" stroke-width="2" stroke-linejoin="round"/>
<path d="M1328 274L1346.17 305.574L1328 337.148H1291.66L1273.48 305.574L1291.66 274H1328Z" stroke="#1A1A1A" stroke-width="2" stroke-linejoin="round"/>
<path d="M673.905 147.707L692.076 179.281L673.905 210.855H637.562L619.391 179.281L637.562 147.707H673.905Z" stroke="#1A1A1A" stroke-width="2" stroke-linejoin="round"/>
<path d="M673.905 84.5547L692.076 116.128L673.905 147.702H637.562L619.391 116.128L637.562 84.5547H673.905Z" stroke="#1A1A1A" stroke-width="2" stroke-linejoin="round"/>
<path d="M673.905 337.148L692.076 368.722L673.905 400.296H637.562L619.391 368.722L637.562 337.148H673.905Z" stroke="#1A1A1A" stroke-width="2" stroke-linejoin="round"/>
<path d="M673.905 463.441L692.076 495.015L673.905 526.589H637.562L619.391 495.015L637.562 463.441H673.905Z" stroke="#1A1A1A" stroke-width="2" stroke-linejoin="round"/>
<path d="M673.905 400.293L692.076 431.867L673.905 463.441H637.562L619.391 431.867L637.562 400.293H673.905Z" stroke="#1A1A1A" stroke-width="2" stroke-linejoin="round"/>
<path d="M673.905 526.59L692.076 558.164L673.905 589.737H637.562L619.391 558.164L637.562 526.59H673.905Z" stroke="#1A1A1A" stroke-width="2" stroke-linejoin="round"/>
<path d="M1000.97 337.148L1019.14 368.722L1000.97 400.296H964.625L946.453 368.722L964.625 337.148H1000.97Z" stroke="#1A1A1A" stroke-width="2" stroke-linejoin="round"/>
<path d="M1219 337.148L1237.17 368.722L1219 400.296H1182.66L1164.48 368.722L1182.66 337.148H1219Z" stroke="#1A1A1A" stroke-width="2" stroke-linejoin="round"/>
<path d="M1000.97 463.441L1019.14 495.015L1000.97 526.589H964.625L946.453 495.015L964.625 463.441H1000.97Z" stroke="#1A1A1A" stroke-width="2" stroke-linejoin="round"/>
<path d="M1219 463.441L1237.17 495.015L1219 526.589H1182.66L1164.48 495.015L1182.66 463.441H1219Z" stroke="#1A1A1A" stroke-width="2" stroke-linejoin="round"/>
<path d="M1000.97 400.293L1019.14 431.867L1000.97 463.441H964.625L946.453 431.867L964.625 400.293H1000.97Z" stroke="#1A1A1A" stroke-width="2" stroke-linejoin="round"/>
<path d="M1219 400.293L1237.17 431.867L1219 463.441H1182.66L1164.48 431.867L1182.66 400.293H1219Z" stroke="#1A1A1A" stroke-width="2" stroke-linejoin="round"/>
<path d="M1000.97 526.59L1019.14 558.164L1000.97 589.737H964.625L946.453 558.164L964.625 526.59H1000.97Z" stroke="#1A1A1A" stroke-width="2" stroke-linejoin="round"/>
<path d="M1219 526.59L1237.17 558.164L1219 589.737H1182.66L1164.48 558.164L1182.66 526.59H1219Z" stroke="#1A1A1A" stroke-width="2" stroke-linejoin="round"/>
<path d="M782.928 147.707L801.1 179.281L782.928 210.855H746.585L728.414 179.281L746.585 147.707H782.928Z" stroke="#1A1A1A" stroke-width="2" stroke-linejoin="round"/>
<path d="M782.928 84.5547L801.1 116.128L782.928 147.702H746.585L728.414 116.128L746.585 84.5547H782.928Z" stroke="#1A1A1A" stroke-width="2" stroke-linejoin="round"/>
<path d="M782.928 337.148L801.1 368.722L782.928 400.296H746.585L728.414 368.722L746.585 337.148H782.928Z" stroke="#1A1A1A" stroke-width="2" stroke-linejoin="round"/>
<path d="M782.928 463.441L801.1 495.015L782.928 526.589H746.585L728.414 495.015L746.585 463.441H782.928Z" stroke="#1A1A1A" stroke-width="2" stroke-linejoin="round"/>
<path d="M782.928 400.293L801.1 431.867L782.928 463.441H746.585L728.414 431.867L746.585 400.293H782.928Z" stroke="#1A1A1A" stroke-width="2" stroke-linejoin="round"/>
<path d="M782.928 526.59L801.1 558.164L782.928 589.737H746.585L728.414 558.164L746.585 526.59H782.928Z" stroke="#1A1A1A" stroke-width="2" stroke-linejoin="round"/>
<path d="M1109.97 337.148L1128.14 368.722L1109.97 400.296H1073.62L1055.45 368.722L1073.62 337.148H1109.97Z" stroke="#1A1A1A" stroke-width="2" stroke-linejoin="round"/>
<path d="M1328 337.148L1346.17 368.722L1328 400.296H1291.66L1273.48 368.722L1291.66 337.148H1328Z" stroke="#1A1A1A" stroke-width="2" stroke-linejoin="round"/>
<path d="M1109.97 463.441L1128.14 495.015L1109.97 526.589H1073.62L1055.45 495.015L1073.62 463.441H1109.97Z" stroke="#1A1A1A" stroke-width="2" stroke-linejoin="round"/>
<path d="M1328 463.441L1346.17 495.015L1328 526.589H1291.66L1273.48 495.015L1291.66 463.441H1328Z" stroke="#1A1A1A" stroke-width="2" stroke-linejoin="round"/>
<path d="M1109.97 400.293L1128.14 431.867L1109.97 463.441H1073.62L1055.45 431.867L1073.62 400.293H1109.97Z" stroke="#1A1A1A" stroke-width="2" stroke-linejoin="round"/>
<path d="M1328 400.293L1346.17 431.867L1328 463.441H1291.66L1273.48 431.867L1291.66 400.293H1328Z" stroke="#1A1A1A" stroke-width="2" stroke-linejoin="round"/>
<path d="M1109.97 526.59L1128.14 558.164L1109.97 589.737H1073.62L1055.45 558.164L1073.62 526.59H1109.97Z" stroke="#1A1A1A" stroke-width="2" stroke-linejoin="round"/>
<path d="M1328 526.59L1346.17 558.164L1328 589.737H1291.66L1273.48 558.164L1291.66 526.59H1328Z" stroke="#1A1A1A" stroke-width="2" stroke-linejoin="round"/>
<path d="M1000.94 -41.7344L1019.11 -10.1606L1000.94 21.4132H964.593L946.422 -10.1606L964.593 -41.7344H1000.94Z" stroke="#1A1A1A" stroke-width="2" stroke-linejoin="round"/>
<path d="M1218.97 -41.7344L1237.14 -10.1606L1218.97 21.4132H1182.62L1164.45 -10.1606L1182.62 -41.7344H1218.97Z" stroke="#1A1A1A" stroke-width="2" stroke-linejoin="round"/>
<path d="M1000.97 210.852L1019.14 242.425L1000.97 273.999H964.625L946.453 242.425L964.625 210.852H1000.97Z" stroke="#1A1A1A" stroke-width="2" stroke-linejoin="round"/>
<path d="M1219 210.852L1237.17 242.425L1219 273.999H1182.66L1164.48 242.425L1182.66 210.852H1219Z" stroke="#1A1A1A" stroke-width="2" stroke-linejoin="round"/>
<path d="M1109.97 -41.7344L1128.14 -10.1606L1109.97 21.4132H1073.62L1055.45 -10.1606L1073.62 -41.7344H1109.97Z" stroke="#1A1A1A" stroke-width="2" stroke-linejoin="round"/>
<path d="M1328 -41.7344L1346.17 -10.1606L1328 21.4132H1291.66L1273.48 -10.1606L1291.66 -41.7344H1328Z" stroke="#1A1A1A" stroke-width="2" stroke-linejoin="round"/>
<path d="M1109.97 210.852L1128.14 242.425L1109.97 273.999H1073.62L1055.45 242.425L1073.62 210.852H1109.97Z" stroke="#1A1A1A" stroke-width="2" stroke-linejoin="round"/>
<path d="M1328 210.852L1346.17 242.425L1328 273.999H1291.66L1273.48 242.425L1291.66 210.852H1328Z" stroke="#1A1A1A" stroke-width="2" stroke-linejoin="round"/>
<path d="M1128.14 179.281L1109.97 210.855L1128.14 242.429H1164.48L1182.66 210.855L1164.48 179.281H1128.14Z" stroke="#1A1A1A" stroke-width="2" stroke-linejoin="round"/>
<path d="M1346.17 179.281L1327.99 210.855L1346.17 242.429H1382.51L1400.68 210.855L1382.51 179.281H1346.17Z" stroke="#1A1A1A" stroke-width="2" stroke-linejoin="round"/>
<path d="M1128.14 -10.1602L1109.97 21.4137L1128.14 52.9875H1164.48L1182.66 21.4137L1164.48 -10.1602H1128.14Z" stroke="#1A1A1A" stroke-width="2" stroke-linejoin="round"/>
<path d="M1346.17 -10.1602L1327.99 21.4137L1346.17 52.9875H1382.51L1400.68 21.4137L1382.51 -10.1602H1346.17Z" stroke="#1A1A1A" stroke-width="2" stroke-linejoin="round"/>
<path d="M1128.14 116.133L1109.97 147.707L1128.14 179.28H1164.48L1182.66 147.707L1164.48 116.133H1128.14Z" stroke="#1A1A1A" stroke-width="2" stroke-linejoin="round"/>
<path d="M1346.17 116.133L1327.99 147.707L1346.17 179.28H1382.51L1400.68 147.707L1382.51 116.133H1346.17Z" stroke="#1A1A1A" stroke-width="2" stroke-linejoin="round"/>
<path d="M1128.14 52.9883L1109.97 84.5621L1128.14 116.136H1164.48L1182.66 84.5621L1164.48 52.9883H1128.14Z" stroke="#1A1A1A" stroke-width="2" stroke-linejoin="round"/>
<path d="M1346.17 52.9883L1327.99 84.5621L1346.17 116.136H1382.51L1400.68 84.5621L1382.51 52.9883H1346.17Z" stroke="#1A1A1A" stroke-width="2" stroke-linejoin="round"/>
<path d="M910.124 179.281L891.953 210.855L910.124 242.429H946.467L964.639 210.855L946.467 179.281H910.124Z" stroke="#1A1A1A" stroke-width="2" stroke-linejoin="round"/>
<path d="M1019.13 179.281L1000.95 210.855L1019.13 242.429H1055.47L1073.64 210.855L1055.47 179.281H1019.13Z" stroke="#1A1A1A" stroke-width="2" stroke-linejoin="round"/>
<path d="M1237.15 179.281L1218.98 210.855L1237.15 242.429H1273.49L1291.66 210.855L1273.49 179.281H1237.15Z" stroke="#1A1A1A" stroke-width="2" stroke-linejoin="round"/>
<path d="M910.124 -10.1602L891.953 21.4137L910.124 52.9875H946.467L964.639 21.4137L946.467 -10.1602H910.124Z" stroke="#1A1A1A" stroke-width="2" stroke-linejoin="round"/>
<path d="M910.124 116.133L891.953 147.707L910.124 179.28H946.467L964.639 147.707L946.467 116.133H910.124Z" stroke="#1A1A1A" stroke-width="2" stroke-linejoin="round"/>
<path d="M910.124 52.9883L891.953 84.5621L910.124 116.136H946.467L964.639 84.5621L946.467 52.9883H910.124Z" stroke="#1A1A1A" stroke-width="2" stroke-linejoin="round"/>
<path d="M1019.13 -10.1602L1000.95 21.4137L1019.13 52.9875H1055.47L1073.64 21.4137L1055.47 -10.1602H1019.13Z" stroke="#1A1A1A" stroke-width="2" stroke-linejoin="round"/>
<path d="M1237.15 -10.1602L1218.98 21.4137L1237.15 52.9875H1273.49L1291.66 21.4137L1273.49 -10.1602H1237.15Z" stroke="#1A1A1A" stroke-width="2" stroke-linejoin="round"/>
<path d="M1019.13 116.133L1000.95 147.707L1019.13 179.28H1055.47L1073.64 147.707L1055.47 116.133H1019.13Z" stroke="#1A1A1A" stroke-width="2" stroke-linejoin="round"/>
<path d="M1237.15 116.133L1218.98 147.707L1237.15 179.28H1273.49L1291.66 147.707L1273.49 116.133H1237.15Z" stroke="#1A1A1A" stroke-width="2" stroke-linejoin="round"/>
<path d="M1019.13 52.9883L1000.95 84.5621L1019.13 116.136H1055.47L1073.64 84.5621L1055.47 52.9883H1019.13Z" stroke="#1A1A1A" stroke-width="2" stroke-linejoin="round"/>
<path d="M1237.15 52.9883L1218.98 84.5621L1237.15 116.136H1273.49L1291.66 84.5621L1273.49 52.9883H1237.15Z" stroke="#1A1A1A" stroke-width="2" stroke-linejoin="round"/>
<path d="M1000.94 21.4141L1019.11 52.9879L1000.94 84.5617H964.593L946.422 52.9879L964.593 21.4141H1000.94Z" stroke="#1A1A1A" stroke-width="2" stroke-linejoin="round"/>
<path d="M1218.97 21.4141L1237.14 52.9879L1218.97 84.5617H1182.62L1164.45 52.9879L1182.62 21.4141H1218.97Z" stroke="#1A1A1A" stroke-width="2" stroke-linejoin="round"/>
<path d="M1109.97 21.4141L1128.14 52.9879L1109.97 84.5617H1073.62L1055.45 52.9879L1073.62 21.4141H1109.97Z" stroke="#1A1A1A" stroke-width="2" stroke-linejoin="round"/>
<path d="M1328 21.4141L1346.17 52.9879L1328 84.5617H1291.66L1273.48 52.9879L1291.66 21.4141H1328Z" stroke="#1A1A1A" stroke-width="2" stroke-linejoin="round"/>
<path d="M1000.97 147.707L1019.14 179.281L1000.97 210.855H964.625L946.453 179.281L964.625 147.707H1000.97Z" stroke="#1A1A1A" stroke-width="2" stroke-linejoin="round"/>
<path d="M1219 147.707L1237.17 179.281L1219 210.855H1182.66L1164.48 179.281L1182.66 147.707H1219Z" stroke="#1A1A1A" stroke-width="2" stroke-linejoin="round"/>
<path d="M1000.94 84.5547L1019.11 116.128L1000.94 147.702H964.593L946.422 116.128L964.593 84.5547H1000.94Z" stroke="#1A1A1A" stroke-width="2" stroke-linejoin="round"/>
<path d="M1218.97 84.5547L1237.14 116.128L1218.97 147.702H1182.62L1164.45 116.128L1182.62 84.5547H1218.97Z" stroke="#1A1A1A" stroke-width="2" stroke-linejoin="round"/>
<path d="M1109.97 147.707L1128.14 179.281L1109.97 210.855H1073.62L1055.45 179.281L1073.62 147.707H1109.97Z" stroke="#1A1A1A" stroke-width="2" stroke-linejoin="round"/>
<path d="M1328 147.707L1346.17 179.281L1328 210.855H1291.66L1273.48 179.281L1291.66 147.707H1328Z" stroke="#1A1A1A" stroke-width="2" stroke-linejoin="round"/>
<path d="M1109.97 84.5547L1128.14 116.128L1109.97 147.702H1073.62L1055.45 116.128L1073.62 84.5547H1109.97Z" stroke="#1A1A1A" stroke-width="2" stroke-linejoin="round"/>
<path d="M1328 84.5547L1346.17 116.128L1328 147.702H1291.66L1273.48 116.128L1291.66 84.5547H1328Z" stroke="#1A1A1A" stroke-width="2" stroke-linejoin="round"/>
</g>
<mask id="mask2_212_1984" style="mask-type:alpha" maskUnits="userSpaceOnUse" x="0" y="0" width="1367" height="548">
<path d="M0.234375 0H1366.23V548H0.234375V0Z" fill="url(#paint1_radial_212_1984)"/>
</mask>
<g mask="url(#mask2_212_1984)">
<g filter="url(#filter0_f_212_1984)">
<path d="M19.8189 210.855L37.9903 242.429L19.8189 274.003H-16.5239L-34.6953 242.429L-16.5239 210.855H19.8189Z" fill="#21106D"/>
<path d="M128.827 210.855L146.998 242.429L128.827 274.003H92.4839L74.3125 242.429L92.4839 210.855H128.827Z" fill="#21106D"/>
<path d="M128.827 147.711L146.998 179.285L128.827 210.859H92.4839L74.3125 179.285L92.4839 147.711H128.827Z" fill="#21106D"/>
<path d="M37.9683 179.281L19.7969 210.855L37.9683 242.429H74.3112L92.4826 210.855L74.3112 179.281H37.9683Z" fill="#21106D"/>
<path d="M256.011 242.426L237.84 274L256.011 305.573H292.354L310.525 274L292.354 242.426H256.011Z" fill="#21106D"/>
<path d="M37.9683 242.426L19.7969 274L37.9683 305.573H74.3112L92.4826 274L74.3112 242.426H37.9683Z" fill="#21106D"/>
<path d="M37.9683 305.574L19.7969 337.148L37.9683 368.722H74.3112L92.4826 337.148L74.3112 305.574H37.9683Z" fill="#21106D"/>
<path d="M37.9683 368.723L19.7969 400.296L37.9683 431.87H74.3112L92.4826 400.296L74.3112 368.723H37.9683Z" fill="#21106D"/>
<path d="M146.999 242.426L128.828 274L146.999 305.573H183.342L201.514 274L183.342 242.426H146.999Z" fill="#21106D"/>
<path d="M146.999 305.574L128.828 337.148L146.999 368.722H183.342L201.514 337.148L183.342 305.574H146.999Z" fill="#21106D"/>
<path d="M146.999 368.723L128.828 400.296L146.999 431.87H183.342L201.514 400.296L183.342 368.723H146.999Z" fill="#21106D"/>
<path d="M1237.15 242.426L1218.98 274L1237.15 305.573H1273.49L1291.66 274L1273.49 242.426H1237.15Z" fill="#21106D"/>
<path d="M1346.17 242.426L1327.99 274L1346.17 305.573H1382.51L1400.68 274L1382.51 242.426H1346.17Z" fill="#21106D"/>
<path d="M1346.17 305.574L1327.99 337.148L1346.17 368.722H1382.51L1400.68 337.148L1382.51 305.574H1346.17Z" fill="#21106D"/>
<path d="M1346.17 368.723L1327.99 400.296L1346.17 431.87H1382.51L1400.68 400.296L1382.51 368.723H1346.17Z" fill="#21106D"/>
<path d="M237.874 274L256.045 305.574L237.874 337.148H201.531L183.359 305.574L201.531 274H237.874Z" fill="#21106D"/>
<path d="M19.8189 274L37.9903 305.574L19.8189 337.148H-16.5239L-34.6953 305.574L-16.5239 274H19.8189Z" fill="#21106D"/>
<path d="M19.8189 337.152L37.9903 368.726L19.8189 400.3H-16.5239L-34.6953 368.726L-16.5239 337.152H19.8189Z" fill="#21106D"/>
<path d="M128.827 274L146.998 305.574L128.827 337.148H92.4839L74.3125 305.574L92.4839 274H128.827Z" fill="#21106D"/>
<path d="M128.827 337.152L146.998 368.726L128.827 400.3H92.4839L74.3125 368.726L92.4839 337.152H128.827Z" fill="#21106D"/>
<path d="M1328 274L1346.17 305.574L1328 337.148H1291.66L1273.48 305.574L1291.66 274H1328Z" fill="#21106D"/>
<path d="M1328 337.152L1346.17 368.726L1328 400.3H1291.66L1273.48 368.726L1291.66 337.152H1328Z" fill="#21106D"/>
<path d="M1219 210.855L1237.17 242.429L1219 274.003H1182.66L1164.48 242.429L1182.66 210.855H1219Z" fill="#21106D"/>
<path d="M1328 210.855L1346.17 242.429L1328 274.003H1291.66L1273.48 242.429L1291.66 210.855H1328Z" fill="#21106D"/>
<path d="M1128.14 179.281L1109.97 210.855L1128.14 242.429H1164.48L1182.66 210.855L1164.48 179.281H1128.14Z" fill="#21106D"/>
<path d="M1346.17 179.281L1327.99 210.855L1346.17 242.429H1382.51L1400.68 210.855L1382.51 179.281H1346.17Z" fill="#21106D"/>
<path d="M1237.15 179.281L1218.98 210.855L1237.15 242.429H1273.49L1291.66 210.855L1273.49 179.281H1237.15Z" fill="#21106D"/>
<path d="M1328 147.707L1346.17 179.281L1328 210.855H1291.66L1273.48 179.281L1291.66 147.707H1328Z" fill="#21106D"/>
</g>
<g filter="url(#filter1_f_212_1984)">
<path d="M19.8189 210.855L37.9903 242.429L19.8189 274.003H-16.5239L-34.6953 242.429L-16.5239 210.855H19.8189Z" fill="#3918BC"/>
<path d="M37.9683 242.43L19.7969 274.003L37.9683 305.577H74.3112L92.4826 274.003L74.3112 242.43H37.9683Z" fill="#3918BC"/>
<path d="M37.9683 305.574L19.7969 337.148L37.9683 368.722H74.3112L92.4826 337.148L74.3112 305.574H37.9683Z" fill="#3918BC"/>
<path d="M1346.17 242.43L1327.99 274.003L1346.17 305.577H1382.51L1400.68 274.003L1382.51 242.43H1346.17Z" fill="#3918BC"/>
<path d="M1346.17 305.574L1327.99 337.148L1346.17 368.722H1382.51L1400.68 337.148L1382.51 305.574H1346.17Z" fill="#3918BC"/>
<path d="M19.8189 274.004L37.9903 305.578L19.8189 337.152H-16.5239L-34.6953 305.578L-16.5239 274.004H19.8189Z" fill="#3918BC"/>
<path d="M19.8189 337.152L37.9903 368.726L19.8189 400.3H-16.5239L-34.6953 368.726L-16.5239 337.152H19.8189Z" fill="#3918BC"/>
<path d="M1328 274.004L1346.17 305.578L1328 337.152H1291.66L1273.48 305.578L1291.66 274.004H1328Z" fill="#3918BC"/>
<path d="M1328 210.855L1346.17 242.429L1328 274.003H1291.66L1273.48 242.429L1291.66 210.855H1328Z" fill="#3918BC"/>
</g>
<path d="M346.862 400.296L365.033 368.723H401.376L419.547 400.296M346.866 400.293H310.523" stroke="url(#paint2_linear_212_1984)" stroke-width="2" stroke-linejoin="round"/>
<path d="M292.352 431.868L310.523 463.441L346.865 463.442M346.865 463.442L365.037 495.016L346.865 526.589M346.865 463.442L365.037 431.867M365.032 431.868L346.861 463.441L365.032 495.015H401.375M419.554 526.589L401.382 495.016" stroke="url(#paint3_linear_212_1984)" stroke-width="2" stroke-linejoin="round"/>
<path d="M583.069 242.426L564.898 210.852H528.555M637.563 274L619.392 242.426M583.081 179.282L564.909 210.855L583.081 242.429H619.423M583.081 242.426H619.423L637.595 274M583.069 179.281L564.898 210.855H528.555" stroke="url(#paint4_radial_212_1984)" stroke-width="2" stroke-linejoin="round"/>
<path d="M256.008 116.133H292.351L310.523 147.707M256.008 116.136H292.351L310.523 84.5621L346.865 84.5617L365.036 52.9879L346.865 21.4141M365.032 116.133H401.375M365.032 52.9883L346.86 84.5621L365.032 116.136H401.375M365.036 116.128L346.865 84.5547H310.522L292.351 116.128L310.522 147.702" stroke="url(#paint5_linear_212_1984)" stroke-width="2" stroke-linejoin="round"/>
<path d="M1164.49 431.868H1128.14L1109.97 463.441L1128.14 431.867M1164.49 431.868L1182.66 463.441M1164.49 431.868L1182.66 400.293H1219M1128.14 431.871H1164.49L1182.66 400.297M1182.66 400.297L1164.49 368.723M1182.66 400.297L1219 400.296" stroke="url(#paint6_radial_212_1984)" stroke-width="2" stroke-linejoin="round"/>
<path d="M891.943 210.852L910.114 242.425M801.102 179.281H837.444M801.102 116.133H837.444L855.616 147.707M891.943 210.855L910.114 179.281L891.943 147.707H855.6L837.428 179.281M1000.97 210.852H964.623L946.452 242.425M910.125 179.281L891.954 210.855L910.125 242.429M910.125 179.281H946.468L964.639 210.855L946.468 242.429M910.125 179.281L891.954 147.707L910.125 116.133M1000.97 210.855H964.623L946.452 179.281" stroke="url(#paint7_linear_212_1984)" stroke-width="2" stroke-linejoin="round"/>
<path d="M964.639 337.148L946.467 368.722L964.639 400.296L946.467 431.87H910.125L891.953 400.296M891.953 463.441L910.125 431.867H946.467M1000.95 337.148L1019.12 368.722L1000.95 400.296M1000.97 400.293H964.623L946.451 431.867M1000.97 337.148L1019.14 368.722L1000.97 400.296H964.623L946.451 368.722L964.623 337.148" stroke="url(#paint8_linear_212_1984)" stroke-width="2" stroke-linejoin="round"/>
<path d="M1128.14 52.9875L1109.97 84.5621L1128.14 116.136M1164.49 116.136L1182.66 84.5621M1182.66 21.4137L1164.49 -10.1602M1218.98 21.4137L1237.15 52.9875M1237.15 52.9875H1273.49M1237.15 52.9875L1218.98 84.5621L1237.15 116.136M1182.63 84.5617H1218.97L1237.14 52.9879L1218.97 21.4141H1182.63" stroke="url(#paint9_linear_212_1984)" stroke-width="2" stroke-linejoin="round"/>
<path d="M564.897 273.999H528.554L510.383 242.425M510.383 179.281L528.554 147.707" stroke="url(#paint10_linear_212_1984)" stroke-width="2" stroke-linejoin="round"/>
<g filter="url(#filter2_di_212_1984)">
<path d="M891.953 273.999L910.125 242.426H946.467L964.627 273.999H1000.95L1019.12 242.426L1000.95 210.853L1019.12 179.279H1055.47L1073.62 210.852H1109.97L1128.14 179.279L1109.97 147.706L1128.14 116.132H1164.48L1182.65 147.706H1218.98L1237.15 116.132H1273.49L1291.65 84.5554H1328L1346.17 52.9883H1382.51V495.014H1346.17L1328 463.44H1291.66L1273.49 495.014H1237.15L1218.98 463.44L1237.15 431.866L1218.98 400.296L1237.15 368.72L1219 337.147L1182.65 337.146L1164.48 368.72H1128.14L1109.97 337.146L1128.14 305.572H1164.48L1182.65 273.999L1164.48 242.426H1128.14L1109.97 274H1073.62L1055.47 305.573H1019.12L1000.97 337.147H964.627L946.456 305.573H910.125L891.953 273.999Z" fill="#5865F2" fill-opacity="0.4"/>
<path d="M891.953 273.999L910.125 242.426H946.467L964.627 273.999H1000.95L1019.12 242.426L1000.95 210.853L1019.12 179.279H1055.47L1073.62 210.852H1109.97L1128.14 179.279L1109.97 147.706L1128.14 116.132H1164.48L1182.65 147.706H1218.98L1237.15 116.132H1273.49L1291.65 84.5554H1328L1346.17 52.9883H1382.51V495.014H1346.17L1328 463.44H1291.66L1273.49 495.014H1237.15L1218.98 463.44L1237.15 431.866L1218.98 400.296L1237.15 368.72L1219 337.147L1182.65 337.146L1164.48 368.72H1128.14L1109.97 337.146L1128.14 305.572H1164.48L1182.65 273.999L1164.48 242.426H1128.14L1109.97 274H1073.62L1055.47 305.573H1019.12L1000.97 337.147H964.627L946.456 305.573H910.125L891.953 273.999Z" stroke="#5865F2" stroke-width="3" stroke-linejoin="round"/>
</g>
<g filter="url(#filter3_di_212_1984)">
<path d="M237.841 210.853H201.516L183.344 179.279L201.514 147.707L237.874 147.71L256.045 116.136L237.874 84.5625H201.531L183.343 116.133H147L128.827 84.5625H92.4844L74.3148 116.133H37.972L19.8194 147.706H-16.5234V526.588H19.8194L37.9706 495.018H74.3134L92.4871 463.441H128.83L147.002 495.019H183.345L201.516 463.445L237.876 463.444L256.047 431.871H292.352L310.524 400.297L292.352 368.724H256.01L237.835 337.149L256.012 305.574H292.355L310.527 337.147H346.87L365.033 305.573H401.376L419.557 337.147H455.899L474.071 305.574L455.899 274L474.057 242.425H510.399L528.571 210.852L510.399 179.278H474.057L455.885 210.852L419.557 210.855L401.376 242.426L365.041 242.427L346.87 210.853H310.527L292.355 179.279H256.012L237.841 210.853Z" fill="#5865F2" fill-opacity="0.3"/>
<path d="M237.841 210.853H201.516L183.344 179.279L201.514 147.707L237.874 147.71L256.045 116.136L237.874 84.5625H201.531L183.343 116.133H147L128.827 84.5625H92.4844L74.3148 116.133H37.972L19.8194 147.706H-16.5234V526.588H19.8194L37.9706 495.018H74.3134L92.4871 463.441H128.83L147.002 495.019H183.345L201.516 463.445L237.876 463.444L256.047 431.871H292.352L310.524 400.297L292.352 368.724H256.01L237.835 337.149L256.012 305.574H292.355L310.527 337.147H346.87L365.033 305.573H401.376L419.557 337.147H455.899L474.071 305.574L455.899 274L474.057 242.425H510.399L528.571 210.852L510.399 179.278H474.057L455.885 210.852L419.557 210.855L401.376 242.426L365.041 242.427L346.87 210.853H310.527L292.355 179.279H256.012L237.841 210.853Z" stroke="#5865F2" stroke-width="3" stroke-linejoin="round"/>
</g>
</g>
<path d="M1366 508H0V548H1366V508Z" fill="url(#paint11_linear_212_1984)"/>
<path d="M0 40H1366V0H0V40Z" fill="url(#paint12_linear_212_1984)"/>
</g>
</g>
<defs>
<filter id="filter0_f_212_1984" x="-98.6953" y="83.707" width="1563.38" height="412.164" filterUnits="userSpaceOnUse" color-interpolation-filters="sRGB">
<feFlood flood-opacity="0" result="BackgroundImageFix"/>
<feBlend mode="normal" in="SourceGraphic" in2="BackgroundImageFix" result="shape"/>
<feGaussianBlur stdDeviation="32" result="effect1_foregroundBlur_212_1984"/>
</filter>
<filter id="filter1_f_212_1984" x="-94.6953" y="150.855" width="1555.38" height="309.445" filterUnits="userSpaceOnUse" color-interpolation-filters="sRGB">
<feFlood flood-opacity="0" result="BackgroundImageFix"/>
<feBlend mode="normal" in="SourceGraphic" in2="BackgroundImageFix" result="shape"/>
<feGaussianBlur stdDeviation="30" result="effect1_foregroundBlur_212_1984"/>
</filter>
<filter id="filter2_di_212_1984" x="750.453" y="-88.5117" width="773.559" height="725.027" filterUnits="userSpaceOnUse" color-interpolation-filters="sRGB">
<feFlood flood-opacity="0" result="BackgroundImageFix"/>
<feColorMatrix in="SourceAlpha" type="matrix" values="0 0 0 0 0 0 0 0 0 0 0 0 0 0 0 0 0 0 127 0" result="hardAlpha"/>
<feOffset/>
<feGaussianBlur stdDeviation="70"/>
<feComposite in2="hardAlpha" operator="out"/>
<feColorMatrix type="matrix" values="0 0 0 0 0.279827 0 0 0 0 0.279827 0 0 0 0 0.965658 0 0 0 0.51 0"/>
<feBlend mode="normal" in2="BackgroundImageFix" result="effect1_dropShadow_212_1984"/>
<feBlend mode="normal" in="SourceGraphic" in2="effect1_dropShadow_212_1984" result="shape"/>
<feColorMatrix in="SourceAlpha" type="matrix" values="0 0 0 0 0 0 0 0 0 0 0 0 0 0 0 0 0 0 127 0" result="hardAlpha"/>
<feOffset/>
<feGaussianBlur stdDeviation="60"/>
<feComposite in2="hardAlpha" operator="arithmetic" k2="-1" k3="1"/>
<feColorMatrix type="matrix" values="0 0 0 0 0.169658 0 0 0 0 0.219457 0 0 0 0 0.759587 0 0 0 0.5 0"/>
<feBlend mode="normal" in2="shape" result="effect2_innerShadow_212_1984"/>
</filter>
<filter id="filter3_di_212_1984" x="-158.023" y="-56.9375" width="828.094" height="725.027" filterUnits="userSpaceOnUse" color-interpolation-filters="sRGB">
<feFlood flood-opacity="0" result="BackgroundImageFix"/>
<feColorMatrix in="SourceAlpha" type="matrix" values="0 0 0 0 0 0 0 0 0 0 0 0 0 0 0 0 0 0 127 0" result="hardAlpha"/>
<feOffset/>
<feGaussianBlur stdDeviation="70"/>
<feComposite in2="hardAlpha" operator="out"/>
<feColorMatrix type="matrix" values="0 0 0 0 0.279827 0 0 0 0 0.279827 0 0 0 0 0.965658 0 0 0 0.51 0"/>
<feBlend mode="normal" in2="BackgroundImageFix" result="effect1_dropShadow_212_1984"/>
<feBlend mode="normal" in="SourceGraphic" in2="effect1_dropShadow_212_1984" result="shape"/>
<feColorMatrix in="SourceAlpha" type="matrix" values="0 0 0 0 0 0 0 0 0 0 0 0 0 0 0 0 0 0 127 0" result="hardAlpha"/>
<feOffset/>
<feGaussianBlur stdDeviation="60"/>
<feComposite in2="hardAlpha" operator="arithmetic" k2="-1" k3="1"/>
<feColorMatrix type="matrix" values="0 0 0 0 0.169658 0 0 0 0 0.219457 0 0 0 0 0.759587 0 0 0 0.5 0"/>
<feBlend mode="normal" in2="shape" result="effect2_innerShadow_212_1984"/>
</filter>
<radialGradient id="paint0_radial_212_1984" cx="0" cy="0" r="1" gradientUnits="userSpaceOnUse" gradientTransform="translate(683.234 274) rotate(90) scale(274 683)">
<stop offset="0.548895" stop-color="#D9D9D9"/>
<stop offset="1" stop-color="#737373" stop-opacity="0"/>
</radialGradient>
<radialGradient id="paint1_radial_212_1984" cx="0" cy="0" r="1" gradientUnits="userSpaceOnUse" gradientTransform="translate(683.235 274) rotate(90) scale(274 2510.13)">
<stop offset="0.628401" stop-color="#D9D9D9"/>
<stop offset="1" stop-color="#737373" stop-opacity="0"/>
</radialGradient>
<linearGradient id="paint2_linear_212_1984" x1="387.197" y1="470.095" x2="278.243" y2="464.36" gradientUnits="userSpaceOnUse">
<stop stop-color="#5865F2" stop-opacity="0"/>
<stop offset="1" stop-color="#5865F2"/>
</linearGradient>
<linearGradient id="paint3_linear_212_1984" x1="232.5" y1="491.5" x2="355.338" y2="417.398" gradientUnits="userSpaceOnUse">
<stop stop-color="#5865F2"/>
<stop offset="1" stop-color="#5865F2" stop-opacity="0"/>
</linearGradient>
<radialGradient id="paint4_radial_212_1984" cx="0" cy="0" r="1" gradientUnits="userSpaceOnUse" gradientTransform="translate(625.906 240.464) rotate(-172.009) scale(212.995 394.728)">
<stop stop-color="#5865F2" stop-opacity="0"/>
<stop offset="1" stop-color="#5865F2"/>
</radialGradient>
<linearGradient id="paint5_linear_212_1984" x1="187.469" y1="39.5403" x2="310" y2="156" gradientUnits="userSpaceOnUse">
<stop stop-color="#5865F2"/>
<stop offset="1" stop-color="#5865F2" stop-opacity="0"/>
</linearGradient>
<radialGradient id="paint6_radial_212_1984" cx="0" cy="0" r="1" gradientUnits="userSpaceOnUse" gradientTransform="translate(1125.9 468.479) rotate(-61.3226) scale(149.693 290.733)">
<stop stop-color="#5865F2" stop-opacity="0"/>
<stop offset="1" stop-color="#5865F2"/>
</radialGradient>
<linearGradient id="paint7_linear_212_1984" x1="803.5" y1="161.5" x2="1008" y2="258" gradientUnits="userSpaceOnUse">
<stop stop-color="#5865F2" stop-opacity="0"/>
<stop offset="1" stop-color="#5865F2"/>
</linearGradient>
<linearGradient id="paint8_linear_212_1984" x1="895.5" y1="413" x2="1019" y2="347.5" gradientUnits="userSpaceOnUse">
<stop stop-color="#5865F2" stop-opacity="0"/>
<stop offset="1" stop-color="#5865F2"/>
</linearGradient>
<linearGradient id="paint9_linear_212_1984" x1="1173.72" y1="15.4787" x2="1228.28" y2="141.65" gradientUnits="userSpaceOnUse">
<stop stop-color="#5865F2" stop-opacity="0"/>
<stop offset="1" stop-color="#5865F2"/>
</linearGradient>
<linearGradient id="paint10_linear_212_1984" x1="546.5" y1="211" x2="427" y2="230" gradientUnits="userSpaceOnUse">
<stop stop-color="#5865F2" stop-opacity="0"/>
<stop offset="1" stop-color="#5865F2"/>
</linearGradient>
<linearGradient id="paint11_linear_212_1984" x1="683" y1="508" x2="683" y2="548" gradientUnits="userSpaceOnUse">
<stop stop-color="#101012" stop-opacity="0"/>
<stop offset="1" stop-color="#101012"/>
</linearGradient>
<linearGradient id="paint12_linear_212_1984" x1="683" y1="40" x2="683" y2="0" gradientUnits="userSpaceOnUse">
<stop stop-color="#101012" stop-opacity="0"/>
<stop offset="1" stop-color="#101012"/>
</linearGradient>
<clipPath id="clip0_212_1984">
<rect width="1366" height="548" fill="white"/>
</clipPath>
</defs>
</svg>
