<svg width="768" height="520" viewBox="0 0 768 520" fill="none" xmlns="http://www.w3.org/2000/svg">
<g clip-path="url(#clip0_212_2383)">
<mask id="mask0_212_2383" style="mask-type:luminance" maskUnits="userSpaceOnUse" x="0" y="0" width="768" height="520">
<path d="M768 0H0V520H768V0Z" fill="white"/>
</mask>
<g mask="url(#mask0_212_2383)">
<mask id="mask1_212_2383" style="mask-type:luminance" maskUnits="userSpaceOnUse" x="0" y="0" width="768" height="520">
<path d="M768 0H0V520H768V0Z" fill="white"/>
</mask>
<g mask="url(#mask1_212_2383)">
<path d="M768 0H0V520H768V0Z" fill="#101012"/>
<mask id="mask2_212_2383" style="mask-type:alpha" maskUnits="userSpaceOnUse" x="0" y="0" width="768" height="520">
<path d="M768 0H0V520H768V0Z" fill="url(#paint0_radial_212_2383)"/>
</mask>
<g mask="url(#mask2_212_2383)">
<path d="M544.519 455.544L530.827 431.905L503.509 431.867L489.883 455.469L503.574 479.109L530.892 479.146L544.519 455.544Z" stroke="#1A1A1A" stroke-width="2" stroke-linejoin="round"/>
<path d="M380.472 360.841L366.781 337.202L339.463 337.164L325.836 360.766L339.527 384.406L366.846 384.443L380.472 360.841Z" stroke="#1A1A1A" stroke-width="2" stroke-linejoin="round"/>
<path d="M298.73 502.431L285.038 478.792L257.72 478.754L244.094 502.356L257.785 525.995L285.103 526.033L298.73 502.431Z" stroke="#1A1A1A" stroke-width="2" stroke-linejoin="round"/>
<path d="M585.378 384.759L571.687 361.12L544.369 361.082L530.742 384.684L544.434 408.324L571.752 408.361L585.378 384.759Z" stroke="#1A1A1A" stroke-width="2" stroke-linejoin="round"/>
<path d="M503.636 526.357L489.945 502.717L462.627 502.68L449 526.282L462.692 549.921L490.01 549.959L503.636 526.357Z" stroke="#1A1A1A" stroke-width="2" stroke-linejoin="round"/>
<path d="M421.339 290.056L407.648 266.417L380.33 266.379L366.703 289.981L380.395 313.621L407.713 313.658L421.339 290.056Z" stroke="#1A1A1A" stroke-width="2" stroke-linejoin="round"/>
<path d="M339.597 431.65L325.906 408.01L298.588 407.973L284.961 431.575L298.652 455.214L325.971 455.252L339.597 431.65Z" stroke="#1A1A1A" stroke-width="2" stroke-linejoin="round"/>
<path d="M626.253 313.962L612.562 290.323L585.244 290.285L571.617 313.887L585.309 337.527L612.627 337.564L626.253 313.962Z" stroke="#1A1A1A" stroke-width="2" stroke-linejoin="round"/>
<path d="M462.222 219.255L448.531 195.616L421.213 195.578L407.586 219.18L421.277 242.82L448.596 242.857L462.222 219.255Z" stroke="#1A1A1A" stroke-width="2" stroke-linejoin="round"/>
<path d="M571.826 455.591L544.508 455.555L530.816 431.914L544.443 408.312L571.761 408.35L585.452 431.99L571.826 455.591Z" stroke="#1A1A1A" stroke-width="2" stroke-linejoin="round"/>
<path d="M653.841 502.943L626.523 502.905L612.832 479.266L626.458 455.664L653.776 455.702L667.468 479.341L653.841 502.943Z" stroke="#1A1A1A" stroke-width="2" stroke-linejoin="round"/>
<path d="M407.787 360.884L380.469 360.847L366.777 337.207L380.404 313.605L407.722 313.643L421.413 337.282L407.787 360.884Z" stroke="#1A1A1A" stroke-width="2" stroke-linejoin="round"/>
<path d="M326.037 502.49L298.719 502.452L285.027 478.813L298.654 455.211L325.972 455.248L339.663 478.888L326.037 502.49Z" stroke="#1A1A1A" stroke-width="2" stroke-linejoin="round"/>
<path d="M612.709 384.79L585.39 384.753L571.699 361.114L585.326 337.512L612.644 337.549L626.335 361.189L612.709 384.79Z" stroke="#1A1A1A" stroke-width="2" stroke-linejoin="round"/>
<path d="M694.716 432.142L667.398 432.105L653.707 408.465L667.333 384.863L694.651 384.901L708.343 408.54L694.716 432.142Z" stroke="#1A1A1A" stroke-width="2" stroke-linejoin="round"/>
<path d="M530.944 526.396L503.626 526.359L489.934 502.719L503.561 479.117L530.879 479.155L544.571 502.794L530.944 526.396Z" stroke="#1A1A1A" stroke-width="2" stroke-linejoin="round"/>
<path d="M448.662 290.084L421.344 290.046L407.652 266.407L421.279 242.805L448.597 242.842L462.288 266.482L448.662 290.084Z" stroke="#1A1A1A" stroke-width="2" stroke-linejoin="round"/>
<path d="M366.912 431.689L339.594 431.651L325.902 408.012L339.529 384.41L366.847 384.448L380.538 408.087L366.912 431.689Z" stroke="#1A1A1A" stroke-width="2" stroke-linejoin="round"/>
<path d="M653.584 313.994L626.265 313.956L612.574 290.317L626.201 266.715L653.519 266.752L667.21 290.392L653.584 313.994Z" stroke="#1A1A1A" stroke-width="2" stroke-linejoin="round"/>
<path d="M735.591 361.341L708.273 361.305L694.582 337.664L708.208 314.062L735.526 314.1L749.218 337.74L735.591 361.341Z" stroke="#1A1A1A" stroke-width="2" stroke-linejoin="round"/>
<path d="M694.451 243.205L667.133 243.167L653.441 219.528L667.068 195.926L694.386 195.963L708.077 219.603L694.451 243.205Z" stroke="#1A1A1A" stroke-width="2" stroke-linejoin="round"/>
<path d="M776.459 290.556L749.14 290.519L735.449 266.879L749.076 243.277L776.394 243.315L790.085 266.954L776.459 290.556Z" stroke="#1A1A1A" stroke-width="2" stroke-linejoin="round"/>
<path d="M776.201 101.615L748.883 101.577L735.191 77.9378L748.818 54.3359L776.136 54.3734L789.827 78.0128L776.201 101.615Z" stroke="#1A1A1A" stroke-width="2" stroke-linejoin="round"/>
<path d="M735.319 172.408L708.001 172.37L694.309 148.731L707.936 125.129L735.254 125.166L748.946 148.806L735.319 172.408Z" stroke="#1A1A1A" stroke-width="2" stroke-linejoin="round"/>
<path d="M530.819 431.912L503.501 431.874L489.809 408.235L503.436 384.633L530.754 384.67L544.446 408.31L530.819 431.912Z" stroke="#1A1A1A" stroke-width="2" stroke-linejoin="round"/>
<path d="M366.787 337.208L339.469 337.171L325.777 313.532L339.404 289.93L366.722 289.967L380.413 313.607L366.787 337.208Z" stroke="#1A1A1A" stroke-width="2" stroke-linejoin="round"/>
<path d="M285.022 478.814L257.704 478.776L244.012 455.137L257.639 431.535L284.957 431.573L298.649 455.212L285.022 478.814Z" stroke="#1A1A1A" stroke-width="2" stroke-linejoin="round"/>
<path d="M612.834 479.271L585.515 479.234L571.824 455.594L585.451 431.992L612.769 432.03L626.46 455.669L612.834 479.271Z" stroke="#1A1A1A" stroke-width="2" stroke-linejoin="round"/>
<path d="M694.841 526.619L667.523 526.581L653.832 502.942L667.458 479.34L694.776 479.377L708.468 503.017L694.841 526.619Z" stroke="#1A1A1A" stroke-width="2" stroke-linejoin="round"/>
<path d="M448.802 384.564L421.484 384.526L407.793 360.887L421.419 337.285L448.737 337.323L462.429 360.962L448.802 384.564Z" stroke="#1A1A1A" stroke-width="2" stroke-linejoin="round"/>
<path d="M367.045 526.166L339.726 526.128L326.035 502.489L339.661 478.887L366.98 478.924L380.671 502.564L367.045 526.166Z" stroke="#1A1A1A" stroke-width="2" stroke-linejoin="round"/>
<path d="M489.802 408.236L462.484 408.198L448.793 384.559L462.419 360.957L489.737 360.994L503.429 384.634L489.802 408.236Z" stroke="#1A1A1A" stroke-width="2" stroke-linejoin="round"/>
<path d="M408.052 549.841L380.734 549.805L367.043 526.164L380.669 502.562L407.987 502.6L421.679 526.24L408.052 549.841Z" stroke="#1A1A1A" stroke-width="2" stroke-linejoin="round"/>
<path d="M325.772 313.533L298.454 313.495L284.762 289.856L298.389 266.254L325.707 266.291L339.399 289.931L325.772 313.533Z" stroke="#1A1A1A" stroke-width="2" stroke-linejoin="round"/>
<path d="M243.755 266.177L216.437 266.14L202.746 242.5L216.372 218.898L243.691 218.936L257.382 242.575L243.755 266.177Z" stroke="#1A1A1A" stroke-width="2" stroke-linejoin="round"/>
<path d="M161.733 218.826L134.415 218.788L120.723 195.149L134.35 171.547L161.668 171.584L175.36 195.224L161.733 218.826Z" stroke="#1A1A1A" stroke-width="2" stroke-linejoin="round"/>
<path d="M79.7088 171.474L52.3907 171.437L38.6992 147.797L52.3258 124.195L79.6438 124.233L93.3354 147.872L79.7088 171.474Z" stroke="#1A1A1A" stroke-width="2" stroke-linejoin="round"/>
<path d="M284.755 289.853L257.437 289.816L243.746 266.176L257.372 242.574L284.691 242.612L298.382 266.251L284.755 289.853Z" stroke="#1A1A1A" stroke-width="2" stroke-linejoin="round"/>
<path d="M202.74 242.501L175.422 242.464L161.73 218.825L175.357 195.223L202.675 195.26L216.366 218.9L202.74 242.501Z" stroke="#1A1A1A" stroke-width="2" stroke-linejoin="round"/>
<path d="M120.724 195.15L93.4063 195.112L79.7148 171.473L93.3414 147.871L120.659 147.909L134.351 171.548L120.724 195.15Z" stroke="#1A1A1A" stroke-width="2" stroke-linejoin="round"/>
<path d="M38.701 147.79L11.3829 147.753L-2.30859 124.114L11.3179 100.512L38.636 100.549L52.3275 124.189L38.701 147.79Z" stroke="#1A1A1A" stroke-width="2" stroke-linejoin="round"/>
<path d="M244.013 455.138L216.695 455.101L203.004 431.461L216.63 407.859L243.948 407.897L257.64 431.536L244.013 455.138Z" stroke="#1A1A1A" stroke-width="2" stroke-linejoin="round"/>
<path d="M161.998 407.783L134.68 407.745L120.988 384.106L134.615 360.504L161.933 360.541L175.624 384.181L161.998 407.783Z" stroke="#1A1A1A" stroke-width="2" stroke-linejoin="round"/>
<path d="M79.9744 360.431L52.6563 360.394L38.9648 336.754L52.5914 313.152L79.9095 313.19L93.601 336.829L79.9744 360.431Z" stroke="#1A1A1A" stroke-width="2" stroke-linejoin="round"/>
<path d="M-2.04902 313.076L-29.3671 313.038L-43.0586 289.399L-29.4321 265.797L-2.11396 265.834L11.5775 289.474L-2.04902 313.076Z" stroke="#1A1A1A" stroke-width="2" stroke-linejoin="round"/>
<path d="M202.998 431.458L175.68 431.421L161.988 407.782L175.615 384.18L202.933 384.217L216.624 407.857L202.998 431.458Z" stroke="#1A1A1A" stroke-width="2" stroke-linejoin="round"/>
<path d="M120.982 384.107L93.6642 384.069L79.9727 360.43L93.5993 336.828L120.917 336.866L134.609 360.505L120.982 384.107Z" stroke="#1A1A1A" stroke-width="2" stroke-linejoin="round"/>
<path d="M38.9666 336.751L11.6485 336.714L-2.04297 313.075L11.5836 289.473L38.9017 289.51L52.5932 313.15L38.9666 336.751Z" stroke="#1A1A1A" stroke-width="2" stroke-linejoin="round"/>
<path d="M80.2401 549.384L52.922 549.347L39.2305 525.707L52.8571 502.105L80.1752 502.143L93.8667 525.782L80.2401 549.384Z" stroke="#1A1A1A" stroke-width="2" stroke-linejoin="round"/>
<path d="M-1.77555 502.029L-29.0937 501.991L-42.7852 478.352L-29.1586 454.75L-1.8405 454.787L11.851 478.427L-1.77555 502.029Z" stroke="#1A1A1A" stroke-width="2" stroke-linejoin="round"/>
<path d="M39.2322 525.709L11.9141 525.671L-1.77734 502.032L11.8492 478.43L39.1673 478.467L52.8588 502.107L39.2322 525.709Z" stroke="#1A1A1A" stroke-width="2" stroke-linejoin="round"/>
<path d="M571.685 361.115L544.367 361.077L530.676 337.438L544.302 313.836L571.62 313.873L585.312 337.513L571.685 361.115Z" stroke="#1A1A1A" stroke-width="2" stroke-linejoin="round"/>
<path d="M489.935 502.716L462.617 502.68L448.926 479.039L462.552 455.438L489.87 455.475L503.562 479.115L489.935 502.716Z" stroke="#1A1A1A" stroke-width="2" stroke-linejoin="round"/>
<path d="M407.655 266.408L380.337 266.37L366.645 242.731L380.272 219.129L407.59 219.166L421.281 242.806L407.655 266.408Z" stroke="#1A1A1A" stroke-width="2" stroke-linejoin="round"/>
<path d="M325.897 408.009L298.579 407.972L284.887 384.332L298.514 360.73L325.832 360.768L339.524 384.407L325.897 408.009Z" stroke="#1A1A1A" stroke-width="2" stroke-linejoin="round"/>
<path d="M244.155 549.607L216.837 549.569L203.145 525.93L216.772 502.328L244.09 502.366L257.781 526.005L244.155 549.607Z" stroke="#1A1A1A" stroke-width="2" stroke-linejoin="round"/>
<path d="M448.53 195.607L421.212 195.569L407.52 171.93L421.147 148.328L448.465 148.366L462.156 172.005L448.53 195.607Z" stroke="#1A1A1A" stroke-width="2" stroke-linejoin="round"/>
<path d="M653.709 408.466L626.39 408.428L612.699 384.789L626.326 361.188L653.644 361.225L667.335 384.863L653.709 408.466Z" stroke="#1A1A1A" stroke-width="2" stroke-linejoin="round"/>
<path d="M735.724 455.814L708.406 455.776L694.715 432.137L708.341 408.535L735.659 408.573L749.351 432.212L735.724 455.814Z" stroke="#1A1A1A" stroke-width="2" stroke-linejoin="round"/>
<path d="M571.959 550.072L544.64 550.034L530.949 526.395L544.576 502.793L571.894 502.83L585.585 526.47L571.959 550.072Z" stroke="#1A1A1A" stroke-width="2" stroke-linejoin="round"/>
<path d="M489.67 313.759L462.351 313.722L448.66 290.082L462.286 266.48L489.605 266.518L503.296 290.157L489.67 313.759Z" stroke="#1A1A1A" stroke-width="2" stroke-linejoin="round"/>
<path d="M407.92 455.365L380.601 455.327L366.91 431.688L380.536 408.086L407.855 408.123L421.546 431.763L407.92 455.365Z" stroke="#1A1A1A" stroke-width="2" stroke-linejoin="round"/>
<path d="M694.584 337.669L667.265 337.632L653.574 313.993L667.201 290.391L694.519 290.428L708.21 314.068L694.584 337.669Z" stroke="#1A1A1A" stroke-width="2" stroke-linejoin="round"/>
<path d="M776.591 385.021L749.273 384.984L735.582 361.344L749.208 337.742L776.526 337.78L790.218 361.419L776.591 385.021Z" stroke="#1A1A1A" stroke-width="2" stroke-linejoin="round"/>
<path d="M530.677 337.435L503.359 337.398L489.668 313.758L503.294 290.156L530.612 290.194L544.304 313.833L530.677 337.435Z" stroke="#1A1A1A" stroke-width="2" stroke-linejoin="round"/>
<path d="M448.927 479.041L421.609 479.003L407.918 455.364L421.544 431.762L448.862 431.799L462.554 455.439L448.927 479.041Z" stroke="#1A1A1A" stroke-width="2" stroke-linejoin="round"/>
<path d="M366.647 242.728L339.329 242.691L325.637 219.051L339.264 195.449L366.582 195.487L380.274 219.126L366.647 242.728Z" stroke="#1A1A1A" stroke-width="2" stroke-linejoin="round"/>
<path d="M284.623 195.376L257.305 195.339L243.613 171.7L257.24 148.098L284.558 148.135L298.249 171.775L284.623 195.376Z" stroke="#1A1A1A" stroke-width="2" stroke-linejoin="round"/>
<path d="M202.615 148.025L175.297 147.987L161.605 124.348L175.232 100.746L202.55 100.784L216.241 124.423L202.615 148.025Z" stroke="#1A1A1A" stroke-width="2" stroke-linejoin="round"/>
<path d="M120.591 100.665L93.2735 100.628L79.582 76.9886L93.2086 53.3867L120.526 53.4242L134.218 77.0636L120.591 100.665Z" stroke="#1A1A1A" stroke-width="2" stroke-linejoin="round"/>
<path d="M325.63 219.052L298.312 219.015L284.621 195.375L298.247 171.773L325.566 171.811L339.257 195.45L325.63 219.052Z" stroke="#1A1A1A" stroke-width="2" stroke-linejoin="round"/>
<path d="M243.615 171.701L216.297 171.663L202.605 148.024L216.232 124.422L243.55 124.459L257.241 148.099L243.615 171.701Z" stroke="#1A1A1A" stroke-width="2" stroke-linejoin="round"/>
<path d="M161.599 124.345L134.281 124.308L120.59 100.668L134.216 77.0664L161.534 77.1039L175.226 100.743L161.599 124.345Z" stroke="#1A1A1A" stroke-width="2" stroke-linejoin="round"/>
<path d="M79.576 76.9898L52.2579 76.9523L38.5664 53.3129L52.1929 29.7109L79.511 29.7484L93.2025 53.3878L79.576 76.9898Z" stroke="#1A1A1A" stroke-width="2" stroke-linejoin="round"/>
<path d="M284.888 384.334L257.57 384.296L243.879 360.657L257.505 337.055L284.823 337.092L298.515 360.732L284.888 384.334Z" stroke="#1A1A1A" stroke-width="2" stroke-linejoin="round"/>
<path d="M202.873 336.982L175.555 336.944L161.863 313.305L175.49 289.703L202.808 289.741L216.499 313.38L202.873 336.982Z" stroke="#1A1A1A" stroke-width="2" stroke-linejoin="round"/>
<path d="M120.865 289.63L93.547 289.593L79.8555 265.953L93.4821 242.352L120.8 242.389L134.491 266.028L120.865 289.63Z" stroke="#1A1A1A" stroke-width="2" stroke-linejoin="round"/>
<path d="M38.8338 242.275L11.5157 242.237L-2.17578 218.598L11.4508 194.996L38.7688 195.034L52.4604 218.673L38.8338 242.275Z" stroke="#1A1A1A" stroke-width="2" stroke-linejoin="round"/>
<path d="M243.88 360.658L216.562 360.62L202.871 336.981L216.497 313.379L243.816 313.416L257.507 337.056L243.88 360.658Z" stroke="#1A1A1A" stroke-width="2" stroke-linejoin="round"/>
<path d="M161.865 313.302L134.547 313.265L120.855 289.625L134.482 266.023L161.8 266.061L175.491 289.7L161.865 313.302Z" stroke="#1A1A1A" stroke-width="2" stroke-linejoin="round"/>
<path d="M79.8416 265.951L52.5235 265.913L38.832 242.274L52.4586 218.672L79.7767 218.709L93.4682 242.349L79.8416 265.951Z" stroke="#1A1A1A" stroke-width="2" stroke-linejoin="round"/>
<path d="M-2.18185 218.595L-29.4999 218.558L-43.1914 194.918L-29.5649 171.316L-2.2468 171.354L11.4447 194.993L-2.18185 218.595Z" stroke="#1A1A1A" stroke-width="2" stroke-linejoin="round"/>
<path d="M203.147 525.927L175.829 525.89L162.137 502.25L175.764 478.648L203.082 478.686L216.774 502.325L203.147 525.927Z" stroke="#1A1A1A" stroke-width="2" stroke-linejoin="round"/>
<path d="M121.13 478.576L93.8126 478.538L80.1211 454.899L93.7476 431.297L121.066 431.334L134.757 454.974L121.13 478.576Z" stroke="#1A1A1A" stroke-width="2" stroke-linejoin="round"/>
<path d="M39.1072 431.224L11.7891 431.187L-1.90234 407.547L11.7242 383.945L39.0423 383.983L52.7338 407.622L39.1072 431.224Z" stroke="#1A1A1A" stroke-width="2" stroke-linejoin="round"/>
<path d="M162.13 502.251L134.812 502.214L121.121 478.575L134.747 454.973L162.066 455.01L175.757 478.65L162.13 502.251Z" stroke="#1A1A1A" stroke-width="2" stroke-linejoin="round"/>
<path d="M80.1151 454.9L52.797 454.862L39.1055 431.223L52.7321 407.621L80.0502 407.659L93.7417 431.298L80.1151 454.9Z" stroke="#1A1A1A" stroke-width="2" stroke-linejoin="round"/>
<path d="M-1.90055 407.548L-29.2187 407.511L-42.9102 383.871L-29.2836 360.27L-1.9655 360.307L11.726 383.946L-1.90055 407.548Z" stroke="#1A1A1A" stroke-width="2" stroke-linejoin="round"/>
<path d="M407.522 171.931L380.204 171.894L366.512 148.254L380.139 124.652L407.457 124.69L421.149 148.329L407.522 171.931Z" stroke="#1A1A1A" stroke-width="2" stroke-linejoin="round"/>
<path d="M325.505 124.58L298.187 124.542L284.496 100.903L298.122 77.3008L325.441 77.3383L339.132 100.978L325.505 124.58Z" stroke="#1A1A1A" stroke-width="2" stroke-linejoin="round"/>
<path d="M243.49 77.228L216.172 77.1905L202.48 53.5511L216.107 29.9492L243.425 29.9867L257.116 53.6261L243.49 77.228Z" stroke="#1A1A1A" stroke-width="2" stroke-linejoin="round"/>
<path d="M161.474 29.8726L134.156 29.835L120.465 6.19562L134.091 -17.4062L161.409 -17.3688L175.101 6.27061L161.474 29.8726Z" stroke="#1A1A1A" stroke-width="2" stroke-linejoin="round"/>
<path d="M366.513 148.255L339.195 148.218L325.504 124.578L339.13 100.977L366.448 101.014L380.14 124.653L366.513 148.255Z" stroke="#1A1A1A" stroke-width="2" stroke-linejoin="round"/>
<path d="M284.49 100.9L257.172 100.862L243.48 77.223L257.107 53.6211L284.425 53.6585L298.116 77.298L284.49 100.9Z" stroke="#1A1A1A" stroke-width="2" stroke-linejoin="round"/>
<path d="M202.474 53.5483L175.156 53.5108L161.465 29.8714L175.091 6.26953L202.409 6.30702L216.101 29.9464L202.474 53.5483Z" stroke="#1A1A1A" stroke-width="2" stroke-linejoin="round"/>
<path d="M120.459 6.19285L93.1407 6.15536L79.4492 -17.484L93.0758 -41.0859L120.394 -41.0484L134.085 -17.409L120.459 6.19285Z" stroke="#1A1A1A" stroke-width="2" stroke-linejoin="round"/>
<path d="M489.405 124.822L462.087 124.784L448.395 101.145L462.022 77.543L489.34 77.5805L503.031 101.22L489.405 124.822Z" stroke="#1A1A1A" stroke-width="2" stroke-linejoin="round"/>
<path d="M530.28 54.0249L502.962 53.9874L489.27 30.348L502.897 6.74609L530.215 6.78358L543.906 30.423L530.28 54.0249Z" stroke="#1A1A1A" stroke-width="2" stroke-linejoin="round"/>
<path d="M448.388 101.146L421.07 101.108L407.379 77.4691L421.005 53.8672L448.323 53.9046L462.015 77.5441L448.388 101.146Z" stroke="#1A1A1A" stroke-width="2" stroke-linejoin="round"/>
<path d="M366.373 53.7905L339.055 53.753L325.363 30.1136L338.99 6.51172L366.308 6.54921L379.999 30.1886L366.373 53.7905Z" stroke="#1A1A1A" stroke-width="2" stroke-linejoin="round"/>
<path d="M284.358 6.43893L257.04 6.40144L243.348 -17.2379L256.975 -40.8398L284.293 -40.8023L297.985 -17.1629L284.358 6.43893Z" stroke="#1A1A1A" stroke-width="2" stroke-linejoin="round"/>
<path d="M407.38 77.4663L380.062 77.4288L366.371 53.7894L379.997 30.1875L407.316 30.225L421.007 53.8644L407.38 77.4663Z" stroke="#1A1A1A" stroke-width="2" stroke-linejoin="round"/>
<path d="M325.358 30.1148L298.04 30.0773L284.348 6.4379L297.975 -17.1641L325.293 -17.1266L338.985 6.51289L325.358 30.1148Z" stroke="#1A1A1A" stroke-width="2" stroke-linejoin="round"/>
<path d="M776.326 196.083L749.008 196.046L735.316 172.407L748.943 148.805L776.261 148.842L789.952 172.482L776.326 196.083Z" stroke="#1A1A1A" stroke-width="2" stroke-linejoin="round"/>
<path d="M489.263 30.3452L461.945 30.3077L448.254 6.66829L461.88 -16.9336L489.198 -16.8961L502.89 6.74327L489.263 30.3452Z" stroke="#1A1A1A" stroke-width="2" stroke-linejoin="round"/>
<path d="M448.263 6.66943L420.945 6.63194L407.254 -17.0075L420.88 -40.6094L448.198 -40.5719L461.89 -16.9325L448.263 6.66943Z" stroke="#1A1A1A" stroke-width="2" stroke-linejoin="round"/>
<path d="M626.535 502.904L612.843 479.264L585.525 479.227L571.898 502.829L585.59 526.468L612.908 526.506L626.535 502.904Z" stroke="#1A1A1A" stroke-width="2" stroke-linejoin="round"/>
<path d="M503.503 431.868L489.812 408.228L462.494 408.191L448.867 431.793L462.559 455.432L489.877 455.469L503.503 431.868Z" stroke="#1A1A1A" stroke-width="2" stroke-linejoin="round"/>
<path d="M339.464 337.164L325.773 313.525L298.455 313.488L284.828 337.089L298.52 360.729L325.838 360.766L339.464 337.164Z" stroke="#1A1A1A" stroke-width="2" stroke-linejoin="round"/>
<path d="M257.722 478.751L244.031 455.112L216.713 455.074L203.086 478.676L216.777 502.316L244.096 502.353L257.722 478.751Z" stroke="#1A1A1A" stroke-width="2" stroke-linejoin="round"/>
<path d="M585.527 479.224L571.835 455.585L544.517 455.547L530.891 479.149L544.582 502.788L571.9 502.826L585.527 479.224Z" stroke="#1A1A1A" stroke-width="2" stroke-linejoin="round"/>
<path d="M667.535 526.575L653.843 502.935L626.525 502.898L612.898 526.5L626.59 550.139L653.908 550.177L667.535 526.575Z" stroke="#1A1A1A" stroke-width="2" stroke-linejoin="round"/>
<path d="M421.48 384.517L407.788 360.878L380.47 360.84L366.844 384.442L380.535 408.081L407.853 408.119L421.48 384.517Z" stroke="#1A1A1A" stroke-width="2" stroke-linejoin="round"/>
<path d="M339.738 526.107L326.046 502.467L298.728 502.43L285.102 526.032L298.793 549.671L326.111 549.709L339.738 526.107Z" stroke="#1A1A1A" stroke-width="2" stroke-linejoin="round"/>
<path d="M462.496 408.197L448.804 384.557L421.486 384.52L407.859 408.122L421.551 431.761L448.869 431.799L462.496 408.197Z" stroke="#1A1A1A" stroke-width="2" stroke-linejoin="round"/>
<path d="M298.449 313.486L284.757 289.846L257.438 289.809L243.812 313.411L257.503 337.05L284.822 337.088L298.449 313.486Z" stroke="#1A1A1A" stroke-width="2" stroke-linejoin="round"/>
<path d="M216.433 266.134L202.742 242.495L175.423 242.457L161.797 266.059L175.488 289.699L202.806 289.736L216.433 266.134Z" stroke="#1A1A1A" stroke-width="2" stroke-linejoin="round"/>
<path d="M134.417 218.782L120.726 195.142L93.4078 195.105L79.7812 218.707L93.4728 242.346L120.791 242.384L134.417 218.782Z" stroke="#1A1A1A" stroke-width="2" stroke-linejoin="round"/>
<path d="M52.4018 171.427L38.7103 147.788L11.3922 147.75L-2.23438 171.352L11.4571 194.992L38.7752 195.029L52.4018 171.427Z" stroke="#1A1A1A" stroke-width="2" stroke-linejoin="round"/>
<path d="M257.449 289.81L243.757 266.171L216.439 266.133L202.812 289.735L216.504 313.374L243.822 313.412L257.449 289.81Z" stroke="#1A1A1A" stroke-width="2" stroke-linejoin="round"/>
<path d="M175.417 242.457L161.726 218.818L134.408 218.781L120.781 242.382L134.473 266.022L161.791 266.059L175.417 242.457Z" stroke="#1A1A1A" stroke-width="2" stroke-linejoin="round"/>
<path d="M93.4096 195.107L79.7181 171.467L52.4 171.43L38.7734 195.032L52.465 218.671L79.783 218.709L93.4096 195.107Z" stroke="#1A1A1A" stroke-width="2" stroke-linejoin="round"/>
<path d="M11.3862 147.747L-2.30534 124.107L-29.6234 124.07L-43.25 147.672L-29.5585 171.311L-2.2404 171.348L11.3862 147.747Z" stroke="#1A1A1A" stroke-width="2" stroke-linejoin="round"/>
<path d="M216.706 455.075L203.015 431.435L175.697 431.398L162.07 455L175.762 478.639L203.08 478.677L216.706 455.075Z" stroke="#1A1A1A" stroke-width="2" stroke-linejoin="round"/>
<path d="M134.691 407.724L120.999 384.085L93.6813 384.047L80.0547 407.649L93.7462 431.288L121.064 431.326L134.691 407.724Z" stroke="#1A1A1A" stroke-width="2" stroke-linejoin="round"/>
<path d="M52.6752 360.372L38.9837 336.732L11.6656 336.695L-1.96094 360.297L11.7306 383.936L39.0487 383.973L52.6752 360.372Z" stroke="#1A1A1A" stroke-width="2" stroke-linejoin="round"/>
<path d="M175.706 431.4L162.015 407.76L134.697 407.723L121.07 431.325L134.762 454.964L162.08 455.002L175.706 431.4Z" stroke="#1A1A1A" stroke-width="2" stroke-linejoin="round"/>
<path d="M93.683 384.044L79.9915 360.405L52.6734 360.367L39.0469 383.969L52.7384 407.609L80.0565 407.646L93.683 384.044Z" stroke="#1A1A1A" stroke-width="2" stroke-linejoin="round"/>
<path d="M11.6674 336.697L-2.02414 313.057L-29.3423 313.02L-42.9688 336.622L-29.2773 360.261L-1.9592 360.299L11.6674 336.697Z" stroke="#1A1A1A" stroke-width="2" stroke-linejoin="round"/>
<path d="M11.9174 525.658L-1.77414 502.017L-29.0923 501.98L-42.7188 525.582L-29.0273 549.221L-1.7092 549.259L11.9174 525.658Z" stroke="#1A1A1A" stroke-width="2" stroke-linejoin="round"/>
<path d="M667.402 432.115L653.71 408.475L626.392 408.438L612.766 432.04L626.457 455.678L653.775 455.717L667.402 432.115Z" stroke="#1A1A1A" stroke-width="2" stroke-linejoin="round"/>
<path d="M749.41 479.458L735.718 455.819L708.4 455.781L694.773 479.383L708.465 503.023L735.783 503.06L749.41 479.458Z" stroke="#1A1A1A" stroke-width="2" stroke-linejoin="round"/>
<path d="M708.277 361.318L694.585 337.678L667.267 337.641L653.641 361.243L667.332 384.882L694.65 384.92L708.277 361.318Z" stroke="#1A1A1A" stroke-width="2" stroke-linejoin="round"/>
<path d="M790.285 408.664L776.593 385.025L749.275 384.988L735.648 408.589L749.34 432.229L776.658 432.266L790.285 408.664Z" stroke="#1A1A1A" stroke-width="2" stroke-linejoin="round"/>
<path d="M544.371 361.082L530.679 337.443L503.361 337.406L489.734 361.007L503.426 384.647L530.744 384.684L544.371 361.082Z" stroke="#1A1A1A" stroke-width="2" stroke-linejoin="round"/>
<path d="M462.621 502.677L448.929 479.038L421.611 479L407.984 502.602L421.676 526.242L448.994 526.279L462.621 502.677Z" stroke="#1A1A1A" stroke-width="2" stroke-linejoin="round"/>
<path d="M380.331 266.376L366.64 242.737L339.322 242.699L325.695 266.301L339.387 289.941L366.705 289.978L380.331 266.376Z" stroke="#1A1A1A" stroke-width="2" stroke-linejoin="round"/>
<path d="M298.589 407.97L284.898 384.331L257.58 384.293L243.953 407.895L257.645 431.535L284.963 431.572L298.589 407.97Z" stroke="#1A1A1A" stroke-width="2" stroke-linejoin="round"/>
<path d="M585.246 290.286L571.554 266.646L544.236 266.609L530.609 290.211L544.301 313.85L571.619 313.887L585.246 290.286Z" stroke="#1A1A1A" stroke-width="2" stroke-linejoin="round"/>
<path d="M421.214 195.579L407.523 171.939L380.205 171.902L366.578 195.504L380.27 219.143L407.588 219.18L421.214 195.579Z" stroke="#1A1A1A" stroke-width="2" stroke-linejoin="round"/>
<path d="M626.386 408.439L612.695 384.8L585.377 384.762L571.75 408.364L585.442 432.003L612.76 432.041L626.386 408.439Z" stroke="#1A1A1A" stroke-width="2" stroke-linejoin="round"/>
<path d="M708.402 455.786L694.71 432.146L667.392 432.109L653.766 455.711L667.457 479.35L694.775 479.387L708.402 455.786Z" stroke="#1A1A1A" stroke-width="2" stroke-linejoin="round"/>
<path d="M462.347 313.728L448.656 290.089L421.338 290.051L407.711 313.653L421.402 337.292L448.721 337.33L462.347 313.728Z" stroke="#1A1A1A" stroke-width="2" stroke-linejoin="round"/>
<path d="M380.605 455.325L366.913 431.685L339.595 431.648L325.969 455.25L339.66 478.889L366.978 478.927L380.605 455.325Z" stroke="#1A1A1A" stroke-width="2" stroke-linejoin="round"/>
<path d="M667.269 337.642L653.577 314.003L626.259 313.965L612.633 337.567L626.324 361.206L653.642 361.244L667.269 337.642Z" stroke="#1A1A1A" stroke-width="2" stroke-linejoin="round"/>
<path d="M749.285 384.993L735.593 361.353L708.275 361.316L694.648 384.918L708.34 408.557L735.658 408.595L749.285 384.993Z" stroke="#1A1A1A" stroke-width="2" stroke-linejoin="round"/>
<path d="M503.23 242.935L489.538 219.296L462.22 219.258L448.594 242.86L462.285 266.499L489.603 266.537L503.23 242.935Z" stroke="#1A1A1A" stroke-width="2" stroke-linejoin="round"/>
<path d="M503.371 337.407L489.679 313.767L462.361 313.73L448.734 337.332L462.426 360.971L489.744 361.009L503.371 337.407Z" stroke="#1A1A1A" stroke-width="2" stroke-linejoin="round"/>
<path d="M421.613 479.001L407.921 455.362L380.603 455.324L366.977 478.926L380.668 502.566L407.986 502.603L421.613 479.001Z" stroke="#1A1A1A" stroke-width="2" stroke-linejoin="round"/>
<path d="M339.323 242.7L325.632 219.06L298.313 219.023L284.688 242.625L298.378 266.264L325.697 266.302L339.323 242.7Z" stroke="#1A1A1A" stroke-width="2" stroke-linejoin="round"/>
<path d="M407.795 360.884L380.476 360.847L366.785 337.207L380.411 313.605L407.73 313.643L421.421 337.282L407.795 360.884Z" stroke="#1A1A1A" stroke-width="2" stroke-linejoin="round"/>
<path d="M326.03 502.49L298.712 502.452L285.02 478.813L298.647 455.211L325.965 455.248L339.656 478.888L326.03 502.49Z" stroke="#1A1A1A" stroke-width="2" stroke-linejoin="round"/>
<path d="M366.905 431.685L339.587 431.648L325.895 408.008L339.522 384.406L366.84 384.444L380.531 408.083L366.905 431.685Z" stroke="#1A1A1A" stroke-width="2" stroke-linejoin="round"/>
<path d="M448.795 384.56L421.476 384.523L407.785 360.883L421.411 337.281L448.73 337.319L462.421 360.958L448.795 384.56Z" stroke="#1A1A1A" stroke-width="2" stroke-linejoin="round"/>
<path d="M367.045 526.165L339.726 526.128L326.035 502.489L339.661 478.887L366.98 478.924L380.671 502.564L367.045 526.165Z" stroke="#1A1A1A" stroke-width="2" stroke-linejoin="round"/>
<path d="M489.802 408.236L462.484 408.198L448.793 384.559L462.419 360.957L489.737 360.994L503.429 384.634L489.802 408.236Z" stroke="#1A1A1A" stroke-width="2" stroke-linejoin="round"/>
<path d="M408.052 549.841L380.734 549.805L367.043 526.164L380.669 502.562L407.987 502.6L421.679 526.24L408.052 549.841Z" stroke="#1A1A1A" stroke-width="2" stroke-linejoin="round"/>
<path d="M407.92 455.365L380.601 455.327L366.91 431.688L380.536 408.086L407.855 408.123L421.546 431.763L407.92 455.365Z" stroke="#1A1A1A" stroke-width="2" stroke-linejoin="round"/>
<path d="M448.92 479.04L421.601 479.003L407.91 455.364L421.536 431.762L448.855 431.799L462.546 455.439L448.92 479.04Z" stroke="#1A1A1A" stroke-width="2" stroke-linejoin="round"/>
<path d="M421.48 384.517L407.788 360.878L380.47 360.84L366.844 384.442L380.535 408.081L407.853 408.119L421.48 384.517Z" stroke="#1A1A1A" stroke-width="2" stroke-linejoin="round"/>
<path d="M462.496 408.197L448.804 384.557L421.486 384.52L407.859 408.122L421.551 431.761L448.869 431.799L462.496 408.197Z" stroke="#1A1A1A" stroke-width="2" stroke-linejoin="round"/>
<path d="M380.605 455.325L366.913 431.685L339.595 431.648L325.969 455.25L339.66 478.889L366.978 478.927L380.605 455.325Z" stroke="#1A1A1A" stroke-width="2" stroke-linejoin="round"/>
<path d="M421.621 479.001L407.929 455.362L380.611 455.324L366.984 478.926L380.676 502.566L407.994 502.603L421.621 479.001Z" stroke="#1A1A1A" stroke-width="2" stroke-linejoin="round"/>
<path d="M257.308 195.345L243.617 171.706L216.298 171.668L202.672 195.27L216.363 218.91L243.681 218.947L257.308 195.345Z" stroke="#1A1A1A" stroke-width="2" stroke-linejoin="round"/>
<path d="M175.292 147.993L161.601 124.353L134.283 124.316L120.656 147.918L134.348 171.557L161.666 171.594L175.292 147.993Z" stroke="#1A1A1A" stroke-width="2" stroke-linejoin="round"/>
<path d="M93.269 100.638L79.5775 76.9984L52.2594 76.9609L38.6328 100.563L52.3243 124.203L79.6424 124.24L93.269 100.638Z" stroke="#1A1A1A" stroke-width="2" stroke-linejoin="round"/>
<path d="M298.316 219.025L284.624 195.385L257.306 195.348L243.68 218.95L257.371 242.589L284.689 242.627L298.316 219.025Z" stroke="#1A1A1A" stroke-width="2" stroke-linejoin="round"/>
<path d="M216.3 171.665L202.609 148.026L175.291 147.988L161.664 171.59L175.356 195.23L202.674 195.267L216.3 171.665Z" stroke="#1A1A1A" stroke-width="2" stroke-linejoin="round"/>
<path d="M134.277 124.318L120.585 100.678L93.2672 100.641L79.6406 124.243L93.3321 147.882L120.65 147.92L134.277 124.318Z" stroke="#1A1A1A" stroke-width="2" stroke-linejoin="round"/>
<path d="M52.2534 76.9621L38.5618 53.3227L11.2438 53.2852L-2.38281 76.8871L11.3087 100.527L38.6268 100.564L52.2534 76.9621Z" stroke="#1A1A1A" stroke-width="2" stroke-linejoin="round"/>
<path d="M257.574 384.294L243.882 360.655L216.564 360.617L202.938 384.219L216.629 407.859L243.947 407.896L257.574 384.294Z" stroke="#1A1A1A" stroke-width="2" stroke-linejoin="round"/>
<path d="M175.558 336.943L161.867 313.303L134.548 313.266L120.922 336.868L134.613 360.507L161.931 360.545L175.558 336.943Z" stroke="#1A1A1A" stroke-width="2" stroke-linejoin="round"/>
<path d="M93.5423 289.587L79.8508 265.948L52.5327 265.91L38.9062 289.512L52.5978 313.152L79.9158 313.189L93.5423 289.587Z" stroke="#1A1A1A" stroke-width="2" stroke-linejoin="round"/>
<path d="M11.5268 242.232L-2.1647 218.592L-29.4828 218.555L-43.1094 242.157L-29.4179 265.796L-2.09975 265.834L11.5268 242.232Z" stroke="#1A1A1A" stroke-width="2" stroke-linejoin="round"/>
<path d="M216.574 360.618L202.882 336.978L175.564 336.941L161.938 360.543L175.629 384.182L202.947 384.219L216.574 360.618Z" stroke="#1A1A1A" stroke-width="2" stroke-linejoin="round"/>
<path d="M134.542 313.267L120.851 289.628L93.5328 289.59L79.9062 313.192L93.5978 336.831L120.916 336.869L134.542 313.267Z" stroke="#1A1A1A" stroke-width="2" stroke-linejoin="round"/>
<path d="M52.5346 265.911L38.8431 242.271L11.525 242.234L-2.10156 265.836L11.59 289.475L38.908 289.512L52.5346 265.911Z" stroke="#1A1A1A" stroke-width="2" stroke-linejoin="round"/>
<path d="M175.831 525.892L162.14 502.253L134.822 502.215L121.195 525.817L134.887 549.456L162.205 549.494L175.831 525.892Z" stroke="#1A1A1A" stroke-width="2" stroke-linejoin="round"/>
<path d="M93.808 478.539L80.1165 454.9L52.7984 454.863L39.1719 478.464L52.8634 502.104L80.1815 502.141L93.808 478.539Z" stroke="#1A1A1A" stroke-width="2" stroke-linejoin="round"/>
<path d="M11.7924 431.193L-1.89914 407.553L-29.2173 407.516L-42.8438 431.118L-29.1523 454.757L-1.8342 454.795L11.7924 431.193Z" stroke="#1A1A1A" stroke-width="2" stroke-linejoin="round"/>
<path d="M134.816 502.22L121.124 478.581L93.8063 478.543L80.1797 502.145L93.8712 525.785L121.189 525.822L134.816 502.22Z" stroke="#1A1A1A" stroke-width="2" stroke-linejoin="round"/>
<path d="M52.8002 454.865L39.1087 431.225L11.7906 431.188L-1.83594 454.79L11.8556 478.428L39.1737 478.467L52.8002 454.865Z" stroke="#1A1A1A" stroke-width="2" stroke-linejoin="round"/>
<path d="M544.246 266.611L530.554 242.971L503.236 242.934L489.609 266.536L503.301 290.175L530.619 290.213L544.246 266.611Z" stroke="#1A1A1A" stroke-width="2" stroke-linejoin="round"/>
<path d="M380.198 171.904L366.507 148.264L339.188 148.227L325.562 171.829L339.253 195.468L366.572 195.506L380.198 171.904Z" stroke="#1A1A1A" stroke-width="2" stroke-linejoin="round"/>
<path d="M298.183 124.544L284.492 100.905L257.173 100.867L243.547 124.469L257.238 148.109L284.556 148.146L298.183 124.544Z" stroke="#1A1A1A" stroke-width="2" stroke-linejoin="round"/>
<path d="M216.167 77.2003L202.476 53.5609L175.158 53.5234L161.531 77.1254L175.223 100.765L202.541 100.803L216.167 77.2003Z" stroke="#1A1A1A" stroke-width="2" stroke-linejoin="round"/>
<path d="M134.144 29.841L120.452 6.20155L93.1344 6.16406L79.5078 29.766L93.1993 53.4054L120.517 53.4429L134.144 29.841Z" stroke="#1A1A1A" stroke-width="2" stroke-linejoin="round"/>
<path d="M339.191 148.228L325.499 124.589L298.181 124.551L284.555 148.153L298.246 171.792L325.564 171.83L339.191 148.228Z" stroke="#1A1A1A" stroke-width="2" stroke-linejoin="round"/>
<path d="M257.175 100.873L243.484 77.2328L216.166 77.1953L202.539 100.798L216.231 124.437L243.549 124.474L257.175 100.873Z" stroke="#1A1A1A" stroke-width="2" stroke-linejoin="round"/>
<path d="M175.152 53.5167L161.46 29.8773L134.142 29.8398L120.516 53.4417L134.207 77.0811L161.525 77.1186L175.152 53.5167Z" stroke="#1A1A1A" stroke-width="2" stroke-linejoin="round"/>
<path d="M93.1284 6.16517L79.4368 -17.4742L52.1188 -17.5117L38.4922 6.09018L52.1837 29.7296L79.5018 29.7671L93.1284 6.16517Z" stroke="#1A1A1A" stroke-width="2" stroke-linejoin="round"/>
<path d="M749.144 290.536L735.452 266.896L708.134 266.859L694.508 290.461L708.199 314.1L735.517 314.137L749.144 290.536Z" stroke="#1A1A1A" stroke-width="2" stroke-linejoin="round"/>
<path d="M462.081 124.779L448.39 101.139L421.072 101.102L407.445 124.704L421.137 148.343L448.455 148.381L462.081 124.779Z" stroke="#1A1A1A" stroke-width="2" stroke-linejoin="round"/>
<path d="M543.839 -16.8153L530.148 -40.4547L502.83 -40.4922L489.203 -16.8903L502.895 6.74915L530.213 6.78664L543.839 -16.8153Z" stroke="#1A1A1A" stroke-width="2" stroke-linejoin="round"/>
<path d="M790.019 219.728L776.327 196.089L749.009 196.051L735.383 219.653L749.074 243.292L776.392 243.33L790.019 219.728Z" stroke="#1A1A1A" stroke-width="2" stroke-linejoin="round"/>
<path d="M502.948 53.9894L489.257 30.35L461.938 30.3125L448.312 53.9144L462.003 77.5538L489.322 77.5913L502.948 53.9894Z" stroke="#1A1A1A" stroke-width="2" stroke-linejoin="round"/>
<path d="M708.136 266.861L694.445 243.221L667.127 243.184L653.5 266.786L667.192 290.425L694.51 290.463L708.136 266.861Z" stroke="#1A1A1A" stroke-width="2" stroke-linejoin="round"/>
<path d="M790.152 314.207L776.46 290.568L749.142 290.531L735.516 314.132L749.207 337.772L776.525 337.809L790.152 314.207Z" stroke="#1A1A1A" stroke-width="2" stroke-linejoin="round"/>
<path d="M789.886 125.263L776.195 101.624L748.877 101.586L735.25 125.188L748.942 148.828L776.26 148.865L789.886 125.263Z" stroke="#1A1A1A" stroke-width="2" stroke-linejoin="round"/>
<path d="M421.066 101.099L407.374 77.4594L380.056 77.4219L366.43 101.024L380.121 124.664L407.439 124.701L421.066 101.099Z" stroke="#1A1A1A" stroke-width="2" stroke-linejoin="round"/>
<path d="M339.05 53.7472L325.359 30.1078L298.041 30.0703L284.414 53.6722L298.106 77.3116L325.424 77.3491L339.05 53.7472Z" stroke="#1A1A1A" stroke-width="2" stroke-linejoin="round"/>
<path d="M257.042 6.3956L243.351 -17.2439L216.033 -17.2812L202.406 6.32062L216.098 29.96L243.416 29.9976L257.042 6.3956Z" stroke="#1A1A1A" stroke-width="2" stroke-linejoin="round"/>
<path d="M380.066 77.423L366.374 53.7836L339.056 53.7461L325.43 77.348L339.121 100.988L366.439 101.025L380.066 77.423Z" stroke="#1A1A1A" stroke-width="2" stroke-linejoin="round"/>
<path d="M298.05 30.0675L284.359 6.42811L257.041 6.39062L243.414 29.9925L257.106 53.6319L284.424 53.6694L298.05 30.0675Z" stroke="#1A1A1A" stroke-width="2" stroke-linejoin="round"/>
<path d="M216.035 -17.2801L202.343 -40.9195L175.025 -40.957L161.398 -17.3551L175.09 6.28427L202.408 6.32176L216.035 -17.2801Z" stroke="#1A1A1A" stroke-width="2" stroke-linejoin="round"/>
<path d="M749.011 196.052L735.32 172.413L708.002 172.375L694.375 195.977L708.067 219.617L735.385 219.654L749.011 196.052Z" stroke="#1A1A1A" stroke-width="2" stroke-linejoin="round"/>
<path d="M461.948 30.3136L448.257 6.67421L420.938 6.63672L407.312 30.2386L421.003 53.878L448.322 53.9155L461.948 30.3136Z" stroke="#1A1A1A" stroke-width="2" stroke-linejoin="round"/>
<path d="M379.933 -17.0379L366.242 -40.6773L338.923 -40.7148L325.297 -17.1129L338.988 6.52644L366.306 6.56394L379.933 -17.0379Z" stroke="#1A1A1A" stroke-width="2" stroke-linejoin="round"/>
<path d="M420.941 6.63784L407.249 -17.0016L379.931 -17.0391L366.305 6.56285L379.996 30.2022L407.314 30.2397L420.941 6.63784Z" stroke="#1A1A1A" stroke-width="2" stroke-linejoin="round"/>
<path d="M735.451 266.884L708.133 266.847L694.441 243.207L708.068 219.605L735.386 219.643L749.077 243.282L735.451 266.884Z" stroke="#1A1A1A" stroke-width="2" stroke-linejoin="round"/>
<path d="M667.121 243.181L653.429 219.542L626.111 219.504L612.484 243.106L626.176 266.746L653.494 266.783L667.121 243.181Z" stroke="#1A1A1A" stroke-width="2" stroke-linejoin="round"/>
<path d="M748.871 101.583L735.179 77.9437L707.861 77.9062L694.234 101.508L707.926 125.148L735.244 125.185L748.871 101.583Z" stroke="#1A1A1A" stroke-width="2" stroke-linejoin="round"/>
<path d="M503.097 148.454L489.406 124.814L462.088 124.777L448.461 148.379L462.152 172.018L489.471 172.055L503.097 148.454Z" stroke="#1A1A1A" stroke-width="2" stroke-linejoin="round"/>
<path d="M584.847 6.86049L571.156 -16.7789L543.838 -16.8164L530.211 6.78551L543.902 30.4249L571.221 30.4624L584.847 6.86049Z" stroke="#1A1A1A" stroke-width="2" stroke-linejoin="round"/>
<path d="M707.996 172.371L694.304 148.732L666.986 148.695L653.359 172.296L667.051 195.936L694.369 195.973L707.996 172.371Z" stroke="#1A1A1A" stroke-width="2" stroke-linejoin="round"/>
<path d="M789.753 30.7785L776.062 7.13905L748.744 7.10156L735.117 30.7035L748.809 54.3429L776.127 54.3804L789.753 30.7785Z" stroke="#1A1A1A" stroke-width="2" stroke-linejoin="round"/>
<path d="M543.964 77.6691L530.273 54.0297L502.955 53.9922L489.328 77.5941L503.02 101.234L530.338 101.271L543.964 77.6691Z" stroke="#1A1A1A" stroke-width="2" stroke-linejoin="round"/>
<path d="M571.28 77.7007L543.962 77.6632L530.27 54.0238L543.897 30.4219L571.215 30.4594L584.906 54.0988L571.28 77.7007Z" stroke="#1A1A1A" stroke-width="2" stroke-linejoin="round"/>
<path d="M694.302 148.732L666.984 148.694L653.293 125.055L666.919 101.453L694.237 101.491L707.929 125.13L694.302 148.732Z" stroke="#1A1A1A" stroke-width="2" stroke-linejoin="round"/>
<path d="M776.06 7.14209L748.742 7.1046L735.051 -16.5348L748.677 -40.1367L775.995 -40.0992L789.687 -16.4598L776.06 7.14209Z" stroke="#1A1A1A" stroke-width="2" stroke-linejoin="round"/>
<path d="M612.295 101.376L584.976 101.339L571.285 77.6996L584.911 54.0977L612.23 54.1352L625.921 77.7746L612.295 101.376Z" stroke="#1A1A1A" stroke-width="2" stroke-linejoin="round"/>
<path d="M653.295 125.052L625.976 125.015L612.285 101.375L625.911 77.7734L653.23 77.8109L666.921 101.45L653.295 125.052Z" stroke="#1A1A1A" stroke-width="2" stroke-linejoin="round"/>
<path d="M489.537 219.287L462.219 219.249L448.527 195.61L462.154 172.008L489.472 172.045L503.163 195.685L489.537 219.287Z" stroke="#1A1A1A" stroke-width="2" stroke-linejoin="round"/>
<path d="M530.405 148.498L503.087 148.46L489.395 124.821L503.022 101.219L530.34 101.256L544.031 124.896L530.405 148.498Z" stroke="#1A1A1A" stroke-width="2" stroke-linejoin="round"/>
<path d="M612.155 6.9077L584.837 6.87019L571.145 -16.7692L584.772 -40.3711L612.09 -40.3336L625.781 -16.6942L612.155 6.9077Z" stroke="#1A1A1A" stroke-width="2" stroke-linejoin="round"/>
<path d="M612.569 290.314L585.251 290.276L571.559 266.637L585.186 243.035L612.504 243.073L626.196 266.712L612.569 290.314Z" stroke="#1A1A1A" stroke-width="2" stroke-linejoin="round"/>
<path d="M530.552 242.962L503.234 242.925L489.543 219.285L503.169 195.684L530.487 195.721L544.179 219.36L530.552 242.962Z" stroke="#1A1A1A" stroke-width="2" stroke-linejoin="round"/>
<path d="M571.552 266.638L544.234 266.601L530.543 242.961L544.169 219.359L571.487 219.397L585.179 243.036L571.552 266.638Z" stroke="#1A1A1A" stroke-width="2" stroke-linejoin="round"/>
<path d="M653.435 219.529L626.117 219.491L612.426 195.852L626.052 172.25L653.37 172.288L667.062 195.927L653.435 219.529Z" stroke="#1A1A1A" stroke-width="2" stroke-linejoin="round"/>
<path d="M735.185 77.9351L707.867 77.8975L694.176 54.2582L707.802 30.6562L735.12 30.6937L748.812 54.3332L735.185 77.9351Z" stroke="#1A1A1A" stroke-width="2" stroke-linejoin="round"/>
<path d="M571.42 172.177L544.101 172.14L530.41 148.5L544.036 124.898L571.355 124.936L585.046 148.575L571.42 172.177Z" stroke="#1A1A1A" stroke-width="2" stroke-linejoin="round"/>
<path d="M653.17 30.5874L625.851 30.5499L612.16 6.91051L625.786 -16.6914L653.105 -16.6539L666.796 6.9855L653.17 30.5874Z" stroke="#1A1A1A" stroke-width="2" stroke-linejoin="round"/>
<path d="M612.42 195.849L585.101 195.812L571.41 172.172L585.036 148.57L612.355 148.608L626.046 172.247L612.42 195.849Z" stroke="#1A1A1A" stroke-width="2" stroke-linejoin="round"/>
<path d="M694.177 54.2592L666.859 54.2218L653.168 30.5823L666.794 6.98047L694.112 7.01796L707.804 30.6573L694.177 54.2592Z" stroke="#1A1A1A" stroke-width="2" stroke-linejoin="round"/>
<path d="M626.113 219.501L612.421 195.862L585.103 195.824L571.477 219.426L585.168 243.066L612.486 243.103L626.113 219.501Z" stroke="#1A1A1A" stroke-width="2" stroke-linejoin="round"/>
<path d="M707.855 77.9074L694.163 54.268L666.845 54.2305L653.219 77.8324L666.91 101.472L694.228 101.51L707.855 77.9074Z" stroke="#1A1A1A" stroke-width="2" stroke-linejoin="round"/>
<path d="M666.988 148.697L653.296 125.057L625.978 125.02L612.352 148.622L626.043 172.261L653.361 172.299L666.988 148.697Z" stroke="#1A1A1A" stroke-width="2" stroke-linejoin="round"/>
<path d="M748.746 7.10267L735.054 -16.5367L707.736 -16.5742L694.109 7.02768L707.801 30.6671L735.119 30.7046L748.746 7.10267Z" stroke="#1A1A1A" stroke-width="2" stroke-linejoin="round"/>
<path d="M544.097 172.126L530.406 148.487L503.088 148.449L489.461 172.051L503.152 195.691L530.471 195.728L544.097 172.126Z" stroke="#1A1A1A" stroke-width="2" stroke-linejoin="round"/>
<path d="M625.863 30.5363L612.171 6.89686L584.853 6.85938L571.227 30.4613L584.918 54.1007L612.236 54.1382L625.863 30.5363Z" stroke="#1A1A1A" stroke-width="2" stroke-linejoin="round"/>
<path d="M585.105 195.829L571.413 172.189L544.095 172.152L530.469 195.754L544.16 219.393L571.478 219.43L585.105 195.829Z" stroke="#1A1A1A" stroke-width="2" stroke-linejoin="round"/>
<path d="M666.855 54.2355L653.163 30.5961L625.845 30.5586L612.219 54.1605L625.91 77.7999L653.228 77.8374L666.855 54.2355Z" stroke="#1A1A1A" stroke-width="2" stroke-linejoin="round"/>
<path d="M584.972 101.341L571.281 77.7016L543.963 77.6641L530.336 101.266L544.027 124.906L571.346 124.943L584.972 101.341Z" stroke="#1A1A1A" stroke-width="2" stroke-linejoin="round"/>
<path d="M625.988 125.021L612.296 101.382L584.978 101.344L571.352 124.946L585.043 148.585L612.361 148.623L625.988 125.021Z" stroke="#1A1A1A" stroke-width="2" stroke-linejoin="round"/>
<path d="M707.738 -16.5731L694.046 -40.2125L666.728 -40.25L653.102 -16.6481L666.793 6.99133L694.111 7.02882L707.738 -16.5731Z" stroke="#1A1A1A" stroke-width="2" stroke-linejoin="round"/>
<g filter="url(#filter0_f_212_2383)">
<path d="M285.022 478.81L257.704 478.773L244.012 455.133L257.639 431.531L284.957 431.569L298.649 455.208L285.022 478.81Z" fill="#21106D"/>
<path d="M244.147 549.603L216.829 549.566L203.137 525.926L216.764 502.324L244.082 502.362L257.774 526.001L244.147 549.603Z" fill="#21106D"/>
<path d="M203.13 525.924L175.812 525.887L162.121 502.247L175.747 478.645L203.066 478.683L216.757 502.322L203.13 525.924Z" fill="#21106D"/>
<path d="M162.13 502.248L134.812 502.21L121.121 478.571L134.747 454.969L162.066 455.006L175.757 478.646L162.13 502.248Z" fill="#21106D"/>
<path d="M257.706 478.746L244.015 455.107L216.697 455.07L203.07 478.671L216.762 502.311L244.08 502.348L257.706 478.746Z" fill="#21106D"/>
<path d="M175.824 525.888L162.132 502.249L134.814 502.211L121.188 525.813L134.879 549.453L162.197 549.49L175.824 525.888Z" fill="#21106D"/>
<path d="M584.839 6.85267L571.148 -16.7867L543.83 -16.8242L530.203 6.77768L543.895 30.4171L571.213 30.4546L584.839 6.85267Z" fill="#21106D"/>
<path d="M571.28 77.6968L543.962 77.6593L530.27 54.0199L543.897 30.418L571.215 30.4555L584.906 54.0949L571.28 77.6968Z" fill="#21106D"/>
<path d="M612.147 6.90383L584.829 6.86633L571.137 -16.7731L584.764 -40.375L612.082 -40.3375L625.774 -16.6981L612.147 6.90383Z" fill="#21106D"/>
</g>
<path d="M216.553 360.618L243.871 360.656L257.497 337.054L243.806 313.414M216.557 360.617L202.93 384.219" stroke="url(#paint1_linear_212_2383)" stroke-width="2" stroke-linejoin="round"/>
<path d="M175.61 384.182L161.919 360.543L175.545 336.941M175.545 336.941L161.853 313.302L134.535 313.264M175.545 336.941L202.863 336.979M202.861 336.982L175.543 336.944L161.852 313.305L175.478 289.703M161.789 266.059L175.481 289.698" stroke="url(#paint2_linear_212_2383)" stroke-width="2" stroke-linejoin="round"/>
<path d="M339.711 526.13L367.029 526.167L380.656 502.565L366.964 478.926M367.027 526.166L380.654 502.564L407.972 502.601L421.599 479L448.917 479.038L462.608 502.677M407.907 455.365L421.534 431.763M448.915 479.04L421.597 479.003L407.905 455.363L421.532 431.762M407.912 455.363L421.603 479.003L407.976 502.605L380.658 502.567L366.967 478.928" stroke="url(#paint3_linear_212_2383)" stroke-width="2" stroke-linejoin="round"/>
<path d="M462.204 219.253L448.512 195.614M448.646 290.084L462.273 266.483M489.656 313.762L503.283 290.16L489.591 266.52M462.202 219.252L489.52 219.289L503.212 242.929L489.585 266.531L462.267 266.493M503.082 148.45L489.455 172.052L462.137 172.015M489.524 219.282L462.206 219.244L448.514 195.605M489.524 219.282L503.151 195.68L489.459 172.041L462.141 172.003M489.524 219.282L503.216 242.922L530.534 242.959M503.08 148.449L489.453 172.051L503.145 195.691" stroke="url(#paint4_linear_212_2383)" stroke-width="2" stroke-linejoin="round"/>
<path d="M407.454 124.69L380.136 124.653L366.444 101.013L339.126 100.975L325.5 124.577L339.191 148.217M298.184 124.541L325.502 124.578L339.128 100.977M421.07 101.107L407.379 77.4676L380.06 77.4298M380.067 77.423L366.441 101.025L339.122 100.987M421.075 101.098L407.383 77.4594L380.065 77.4219L366.439 101.023L380.13 124.663L407.448 124.7" stroke="url(#paint5_linear_212_2383)" stroke-width="2" stroke-linejoin="round"/>
<path d="M407.643 266.408L421.334 290.048L407.708 313.65M407.57 219.181L421.262 242.82M448.654 290.077L421.336 290.039L407.645 266.4L421.271 242.798M407.647 266.401L421.273 242.799L407.582 219.16M448.651 290.084L421.332 290.047L407.706 313.649" stroke="url(#paint6_radial_212_2383)" stroke-width="2" stroke-linejoin="round"/>
<path d="M380.321 266.375L366.695 289.977L380.386 313.617M421.394 337.292L448.712 337.33" stroke="url(#paint7_linear_212_2383)" stroke-width="2" stroke-linejoin="round"/>
<path d="M653.291 125.052L625.973 125.014L612.281 101.375M625.908 77.7728L653.226 77.8103M694.236 101.488L707.927 125.127M707.855 77.899L694.163 54.2596M694.163 54.2596L707.79 30.6577M694.163 54.2596L666.845 54.2218L653.153 30.5824L666.78 6.98047L694.098 7.01796M653.214 77.8311L666.841 54.2292L694.159 54.2666L707.85 77.906L694.224 101.508M653.29 125.054L625.972 125.017" stroke="url(#paint8_linear_212_2383)" stroke-width="2" stroke-linejoin="round"/>
<g filter="url(#filter1_di_212_2383)">
<path d="M298.708 502.446L285.088 526.036L298.78 549.676L326.096 549.714L339.727 526.099L367.045 526.137L380.737 549.776L367.11 573.378L339.788 573.353L326.161 596.955L339.85 620.594L326.224 644.196L298.909 644.159L285.282 667.76L257.971 667.711L244.345 691.313L-1.71094 549.253L11.9156 525.651L39.2239 525.7L52.8504 502.098L80.1713 502.135L93.7979 478.533L80.1041 454.892L93.7306 431.29L121.049 431.328L134.682 407.715L162 407.753L175.612 384.175L202.931 384.212L216.622 407.852L202.995 431.454L216.686 455.096L244.007 455.13L257.634 431.528L243.943 407.888L257.569 384.286L284.885 384.329L298.511 360.727L284.823 337.082L298.45 313.48L325.768 313.517L339.459 337.157L366.772 337.204L380.399 313.602L407.717 313.639L421.408 337.279L407.782 360.881L380.464 360.843L366.84 384.434L339.521 384.404L325.897 408L339.588 431.64L325.962 455.242L339.653 478.881L326.026 502.483L298.708 502.446Z" fill="#5865F2" fill-opacity="0.3"/>
<path d="M298.708 502.446L285.088 526.036L298.78 549.676L326.096 549.714L339.727 526.099L367.045 526.137L380.737 549.776L367.11 573.378L339.788 573.353L326.161 596.955L339.85 620.594L326.224 644.196L298.909 644.159L285.282 667.76L257.971 667.711L244.345 691.313L-1.71094 549.253L11.9156 525.651L39.2239 525.7L52.8504 502.098L80.1713 502.135L93.7979 478.533L80.1041 454.892L93.7306 431.29L121.049 431.328L134.682 407.715L162 407.753L175.612 384.175L202.931 384.212L216.622 407.852L202.995 431.454L216.686 455.096L244.007 455.13L257.634 431.528L243.943 407.888L257.569 384.286L284.885 384.329L298.511 360.727L284.823 337.082L298.45 313.48L325.768 313.517L339.459 337.157L366.772 337.204L380.399 313.602L407.717 313.639L421.408 337.279L407.782 360.881L380.464 360.843L366.84 384.434L339.521 384.404L325.897 408L339.588 431.64L325.962 455.242L339.653 478.881L326.026 502.483L298.708 502.446Z" stroke="#5865F2" stroke-width="3" stroke-linejoin="round"/>
</g>
<g filter="url(#filter2_di_212_2383)">
<path d="M421.204 195.568L448.522 195.606L462.149 172.004L448.453 148.372L462.073 124.783L489.391 124.82L503.082 148.459L530.4 148.497L544.026 124.895L530.331 101.263L543.957 77.6612L571.275 77.6985L584.966 101.338L612.284 101.375L625.911 77.7732L612.219 54.1338L625.839 30.5435L653.157 30.581L666.784 6.97906L694.099 7.02518L707.726 -16.5767L735.04 -16.5418L748.666 -40.1437L461.604 -205.879L447.978 -182.277L461.669 -158.638L448.047 -135.044L420.729 -135.081L407.102 -111.479L420.794 -87.8396L448.112 -87.8021L461.801 -64.1641L489.12 -64.1258L502.819 -40.4987L489.192 -16.896L461.874 -16.9335L448.247 6.6684L461.939 30.3078L489.257 30.3453L502.884 6.74339L530.202 6.78014L543.893 30.4193L530.266 54.0218L502.948 53.9843L489.321 77.5862L462.008 77.5413L448.381 101.143L421.07 101.094L407.444 124.695L421.135 148.335L407.513 171.929L421.204 195.568Z" fill="#5865F2" fill-opacity="0.4"/>
<path d="M421.204 195.568L448.522 195.606L462.149 172.004L448.453 148.372L462.073 124.783L489.391 124.82L503.082 148.459L530.4 148.497L544.026 124.895L530.331 101.263L543.957 77.6612L571.275 77.6985L584.966 101.338L612.284 101.375L625.911 77.7732L612.219 54.1338L625.839 30.5435L653.157 30.581L666.784 6.97906L694.099 7.02518L707.726 -16.5767L735.04 -16.5418L748.666 -40.1437L461.604 -205.879L447.978 -182.277L461.669 -158.638L448.047 -135.044L420.729 -135.081L407.102 -111.479L420.794 -87.8396L448.112 -87.8021L461.801 -64.1641L489.12 -64.1258L502.819 -40.4987L489.192 -16.896L461.874 -16.9335L448.247 6.6684L461.939 30.3078L489.257 30.3453L502.884 6.74339L530.202 6.78014L543.893 30.4193L530.266 54.0218L502.948 53.9843L489.321 77.5862L462.008 77.5413L448.381 101.143L421.07 101.094L407.444 124.695L421.135 148.335L407.513 171.929L421.204 195.568Z" stroke="#5865F2" stroke-width="3" stroke-linejoin="round"/>
</g>
</g>
<path d="M0 40H768V0H0V40Z" fill="url(#paint9_linear_212_2383)"/>
<path d="M0 480.359H768V520.359H0V480.359Z" fill="url(#paint10_linear_212_2383)"/>
</g>
</g>
</g>
<defs>
<filter id="filter0_f_212_2383" x="16.2383" y="-104.375" width="673.535" height="741.539" filterUnits="userSpaceOnUse" color-interpolation-filters="sRGB">
<feFlood flood-opacity="0" result="BackgroundImageFix"/>
<feBlend mode="normal" in="SourceGraphic" in2="BackgroundImageFix" result="shape"/>
<feGaussianBlur stdDeviation="32" result="effect1_foregroundBlur_212_2383"/>
</filter>
<filter id="filter1_di_212_2383" x="-143.211" y="171.98" width="706.117" height="660.832" filterUnits="userSpaceOnUse" color-interpolation-filters="sRGB">
<feFlood flood-opacity="0" result="BackgroundImageFix"/>
<feColorMatrix in="SourceAlpha" type="matrix" values="0 0 0 0 0 0 0 0 0 0 0 0 0 0 0 0 0 0 127 0" result="hardAlpha"/>
<feOffset/>
<feGaussianBlur stdDeviation="70"/>
<feComposite in2="hardAlpha" operator="out"/>
<feColorMatrix type="matrix" values="0 0 0 0 0.279827 0 0 0 0 0.279827 0 0 0 0 0.965658 0 0 0 0.51 0"/>
<feBlend mode="normal" in2="BackgroundImageFix" result="effect1_dropShadow_212_2383"/>
<feBlend mode="normal" in="SourceGraphic" in2="effect1_dropShadow_212_2383" result="shape"/>
<feColorMatrix in="SourceAlpha" type="matrix" values="0 0 0 0 0 0 0 0 0 0 0 0 0 0 0 0 0 0 127 0" result="hardAlpha"/>
<feOffset/>
<feGaussianBlur stdDeviation="60"/>
<feComposite in2="hardAlpha" operator="arithmetic" k2="-1" k3="1"/>
<feColorMatrix type="matrix" values="0 0 0 0 0.169658 0 0 0 0 0.219457 0 0 0 0 0.759587 0 0 0 0.5 0"/>
<feBlend mode="normal" in2="shape" result="effect2_innerShadow_212_2383"/>
</filter>
<filter id="filter2_di_212_2383" x="265.602" y="-347.379" width="624.562" height="684.484" filterUnits="userSpaceOnUse" color-interpolation-filters="sRGB">
<feFlood flood-opacity="0" result="BackgroundImageFix"/>
<feColorMatrix in="SourceAlpha" type="matrix" values="0 0 0 0 0 0 0 0 0 0 0 0 0 0 0 0 0 0 127 0" result="hardAlpha"/>
<feOffset/>
<feGaussianBlur stdDeviation="70"/>
<feComposite in2="hardAlpha" operator="out"/>
<feColorMatrix type="matrix" values="0 0 0 0 0.279827 0 0 0 0 0.279827 0 0 0 0 0.965658 0 0 0 0.51 0"/>
<feBlend mode="normal" in2="BackgroundImageFix" result="effect1_dropShadow_212_2383"/>
<feBlend mode="normal" in="SourceGraphic" in2="effect1_dropShadow_212_2383" result="shape"/>
<feColorMatrix in="SourceAlpha" type="matrix" values="0 0 0 0 0 0 0 0 0 0 0 0 0 0 0 0 0 0 127 0" result="hardAlpha"/>
<feOffset/>
<feGaussianBlur stdDeviation="60"/>
<feComposite in2="hardAlpha" operator="arithmetic" k2="-1" k3="1"/>
<feColorMatrix type="matrix" values="0 0 0 0 0.169658 0 0 0 0 0.219457 0 0 0 0 0.759587 0 0 0 0.5 0"/>
<feBlend mode="normal" in2="shape" result="effect2_innerShadow_212_2383"/>
</filter>
<radialGradient id="paint0_radial_212_2383" cx="0" cy="0" r="1" gradientUnits="userSpaceOnUse" gradientTransform="translate(384 260) rotate(90) scale(260 976.11)">
<stop offset="0.739043" stop-color="#D9D9D9"/>
<stop offset="1" stop-color="#737373" stop-opacity="0"/>
</radialGradient>
<linearGradient id="paint1_linear_212_2383" x1="186.347" y1="308.253" x2="149.22" y2="381.161" gradientUnits="userSpaceOnUse">
<stop stop-color="#5865F2" stop-opacity="0"/>
<stop offset="1" stop-color="#5865F2"/>
</linearGradient>
<linearGradient id="paint2_linear_212_2383" x1="181.549" y1="393.289" x2="198.629" y2="312.771" gradientUnits="userSpaceOnUse">
<stop stop-color="#5865F2"/>
<stop offset="1" stop-color="#5865F2" stop-opacity="0"/>
</linearGradient>
<linearGradient id="paint3_linear_212_2383" x1="391.072" y1="599.395" x2="361.383" y2="476.155" gradientUnits="userSpaceOnUse">
<stop stop-color="#5865F2"/>
<stop offset="1" stop-color="#5865F2" stop-opacity="0"/>
</linearGradient>
<linearGradient id="paint4_linear_212_2383" x1="461.095" y1="295.194" x2="475.102" y2="126.204" gradientUnits="userSpaceOnUse">
<stop stop-color="#5865F2" stop-opacity="0"/>
<stop offset="1" stop-color="#5865F2"/>
</linearGradient>
<linearGradient id="paint5_linear_212_2383" x1="332.271" y1="141.15" x2="421.114" y2="85.5055" gradientUnits="userSpaceOnUse">
<stop stop-color="#5865F2" stop-opacity="0"/>
<stop offset="1" stop-color="#5865F2"/>
</linearGradient>
<radialGradient id="paint6_radial_212_2383" cx="0" cy="0" r="1" gradientUnits="userSpaceOnUse" gradientTransform="translate(424.98 239.324) rotate(112.009) scale(159.723 296.003)">
<stop stop-color="#5865F2" stop-opacity="0"/>
<stop offset="1" stop-color="#5865F2"/>
</radialGradient>
<linearGradient id="paint7_linear_212_2383" x1="414.336" y1="301.944" x2="357.191" y2="372.426" gradientUnits="userSpaceOnUse">
<stop stop-color="#5865F2" stop-opacity="0"/>
<stop offset="1" stop-color="#5865F2"/>
</linearGradient>
<linearGradient id="paint8_linear_212_2383" x1="694.74" y1="109.515" x2="633.259" y2="26.7742" gradientUnits="userSpaceOnUse">
<stop stop-color="#5865F2" stop-opacity="0"/>
<stop offset="1" stop-color="#5865F2"/>
</linearGradient>
<linearGradient id="paint9_linear_212_2383" x1="384" y1="40" x2="384" y2="0" gradientUnits="userSpaceOnUse">
<stop stop-color="#101012" stop-opacity="0"/>
<stop offset="1" stop-color="#101012"/>
</linearGradient>
<linearGradient id="paint10_linear_212_2383" x1="384" y1="480.359" x2="384" y2="520.359" gradientUnits="userSpaceOnUse">
<stop stop-color="#101012" stop-opacity="0"/>
<stop offset="1" stop-color="#101012"/>
</linearGradient>
<clipPath id="clip0_212_2383">
<rect width="768" height="520" fill="white"/>
</clipPath>
</defs>
</svg>
