<svg width="1366" height="740" viewBox="0 0 1366 740" fill="none" xmlns="http://www.w3.org/2000/svg">
<g opacity="0.5">
<mask id="mask0_144_13362" style="mask-type:alpha" maskUnits="userSpaceOnUse" x="0" y="6" width="1366" height="728">
<rect y="6" width="1366" height="728" fill="url(#paint0_radial_144_13362)"/>
</mask>
<g mask="url(#mask0_144_13362)">
<g opacity="0.06">
<path d="M406.542 171.508L431.913 215.591L406.542 259.674H355.8L330.43 215.591L355.8 171.508L406.542 171.508Z" stroke="white" stroke-width="2.5" stroke-linejoin="round"/>
<path d="M102.12 171.508L127.491 215.591L102.12 259.674H51.3786L26.0078 215.591L51.3786 171.508L102.12 171.508Z" stroke="white" stroke-width="2.5" stroke-linejoin="round"/>
<path d="M406.55 524.164L431.921 568.247L406.55 612.33H355.808L330.438 568.247L355.808 524.164L406.55 524.164Z" stroke="white" stroke-width="2.5" stroke-linejoin="round"/>
<path d="M102.128 524.164L127.499 568.247L102.128 612.33H51.3864L26.0156 568.247L51.3864 524.164L102.128 524.164Z" stroke="white" stroke-width="2.5" stroke-linejoin="round"/>
<path d="M558.745 171.508L584.116 215.591L558.745 259.674H508.004L482.633 215.591L508.004 171.508L558.745 171.508Z" stroke="white" stroke-width="2.5" stroke-linejoin="round"/>
<path d="M254.323 171.508L279.694 215.591L254.323 259.674H203.582L178.211 215.591L203.582 171.508L254.323 171.508Z" stroke="white" stroke-width="2.5" stroke-linejoin="round"/>
<path d="M558.745 524.164L584.116 568.247L558.745 612.33H508.004L482.633 568.247L508.004 524.164L558.745 524.164Z" stroke="white" stroke-width="2.5" stroke-linejoin="round"/>
<path d="M254.323 524.164L279.694 568.247L254.323 612.33H203.582L178.211 568.247L203.582 524.164L254.323 524.164Z" stroke="white" stroke-width="2.5" stroke-linejoin="round"/>
<path d="M1015.36 171.508L1040.73 215.591L1015.36 259.674H964.621L939.25 215.591L964.621 171.508L1015.36 171.508Z" stroke="white" stroke-width="2.5" stroke-linejoin="round"/>
<path d="M1015.36 524.164L1040.73 568.247L1015.36 612.33H964.621L939.25 568.247L964.621 524.164L1015.36 524.164Z" stroke="white" stroke-width="2.5" stroke-linejoin="round"/>
<path d="M710.94 171.508L736.311 215.591L710.94 259.674H660.199L634.828 215.591L660.199 171.508L710.94 171.508Z" stroke="white" stroke-width="2.5" stroke-linejoin="round"/>
<path d="M710.94 524.164L736.311 568.247L710.94 612.33H660.199L634.828 568.247L660.199 524.164L710.94 524.164Z" stroke="white" stroke-width="2.5" stroke-linejoin="round"/>
<path d="M863.151 171.508L888.522 215.591L863.151 259.674H812.41L787.039 215.591L812.41 171.508L863.151 171.508Z" stroke="white" stroke-width="2.5" stroke-linejoin="round"/>
<path d="M863.151 524.164L888.522 568.247L863.151 612.33H812.41L787.039 568.247L812.41 524.164L863.151 524.164Z" stroke="white" stroke-width="2.5" stroke-linejoin="round"/>
<path d="M431.903 127.422L406.532 171.505L431.903 215.588H482.645L508.016 171.505L482.645 127.422L431.903 127.422Z" stroke="white" stroke-width="2.5" stroke-linejoin="round"/>
<path d="M127.481 127.422L102.111 171.505L127.481 215.588H178.223L203.594 171.505L178.223 127.422L127.481 127.422Z" stroke="white" stroke-width="2.5" stroke-linejoin="round"/>
<path d="M431.903 480.086L406.532 524.169L431.903 568.252H482.645L508.016 524.169L482.645 480.086L431.903 480.086Z" stroke="white" stroke-width="2.5" stroke-linejoin="round"/>
<path d="M127.481 480.086L102.111 524.169L127.481 568.252H178.223L203.594 524.169L178.223 480.086L127.481 480.086Z" stroke="white" stroke-width="2.5" stroke-linejoin="round"/>
<path d="M584.114 127.422L558.743 171.505L584.114 215.588H634.856L660.227 171.505L634.856 127.422L584.114 127.422Z" stroke="white" stroke-width="2.5" stroke-linejoin="round"/>
<path d="M279.692 127.422L254.322 171.505L279.692 215.588H330.434L355.805 171.505L330.434 127.422L279.692 127.422Z" stroke="white" stroke-width="2.5" stroke-linejoin="round"/>
<path d="M-24.7295 127.422L-50.1003 171.505L-24.7295 215.588H26.012L51.3828 171.505L26.012 127.422L-24.7295 127.422Z" stroke="white" stroke-width="2.5" stroke-linejoin="round"/>
<path d="M584.114 480.086L558.743 524.169L584.114 568.252H634.856L660.227 524.169L634.856 480.086L584.114 480.086Z" stroke="white" stroke-width="2.5" stroke-linejoin="round"/>
<path d="M279.692 480.086L254.322 524.169L279.692 568.252H330.434L355.805 524.169L330.434 480.086L279.692 480.086Z" stroke="white" stroke-width="2.5" stroke-linejoin="round"/>
<path d="M-24.7295 480.086L-50.1003 524.169L-24.7295 568.252H26.012L51.3828 524.169L26.012 480.086L-24.7295 480.086Z" stroke="white" stroke-width="2.5" stroke-linejoin="round"/>
<path d="M1040.72 127.422L1015.35 171.505L1040.72 215.588H1091.47L1116.84 171.505L1091.47 127.422L1040.72 127.422Z" stroke="white" stroke-width="2.5" stroke-linejoin="round"/>
<path d="M736.333 127.422L710.962 171.505L736.333 215.588H787.075L812.445 171.505L787.075 127.422L736.333 127.422Z" stroke="white" stroke-width="2.5" stroke-linejoin="round"/>
<path d="M736.333 480.086L710.962 524.169L736.333 568.252H787.075L812.445 524.169L787.075 480.086L736.333 480.086Z" stroke="white" stroke-width="2.5" stroke-linejoin="round"/>
<path d="M1192.92 127.422L1167.55 171.505L1192.92 215.588H1243.66L1269.03 171.505L1243.66 127.422L1192.92 127.422Z" stroke="white" stroke-width="2.5" stroke-linejoin="round"/>
<path d="M888.52 127.422L863.15 171.505L888.52 215.588H939.262L964.633 171.505L939.262 127.422L888.52 127.422Z" stroke="white" stroke-width="2.5" stroke-linejoin="round"/>
<path d="M888.52 480.086L863.15 524.169L888.52 568.252H939.262L964.633 524.169L939.262 480.086L888.52 480.086Z" stroke="white" stroke-width="2.5" stroke-linejoin="round"/>
<path d="M1345.13 127.422L1319.76 171.505L1345.13 215.588H1395.87L1421.24 171.505L1395.87 127.422L1345.13 127.422Z" stroke="white" stroke-width="2.5" stroke-linejoin="round"/>
<path d="M431.903 215.586L406.532 259.669L431.903 303.752H482.645L508.016 259.669L482.645 215.586L431.903 215.586Z" stroke="white" stroke-width="2.5" stroke-linejoin="round"/>
<path d="M127.481 215.586L102.111 259.669L127.481 303.752H178.223L203.594 259.669L178.223 215.586L127.481 215.586Z" stroke="white" stroke-width="2.5" stroke-linejoin="round"/>
<path d="M431.903 568.25L406.532 612.333L431.903 656.416H482.645L508.016 612.333L482.645 568.25L431.903 568.25Z" stroke="white" stroke-width="2.5" stroke-linejoin="round"/>
<path d="M127.481 568.25L102.111 612.333L127.481 656.416H178.223L203.594 612.333L178.223 568.25L127.481 568.25Z" stroke="white" stroke-width="2.5" stroke-linejoin="round"/>
<path d="M431.903 39.2539L406.532 83.337L431.903 127.42H482.645L508.016 83.337L482.645 39.2539L431.903 39.2539Z" stroke="white" stroke-width="2.5" stroke-linejoin="round"/>
<path d="M127.481 39.2539L102.111 83.337L127.481 127.42H178.223L203.594 83.337L178.223 39.2539L127.481 39.2539Z" stroke="white" stroke-width="2.5" stroke-linejoin="round"/>
<path d="M431.903 391.922L406.532 436.005L431.903 480.088H482.645L508.016 436.005L482.645 391.922L431.903 391.922Z" stroke="white" stroke-width="2.5" stroke-linejoin="round"/>
<path d="M127.481 391.922L102.111 436.005L127.481 480.088H178.223L203.594 436.005L178.223 391.922L127.481 391.922Z" stroke="white" stroke-width="2.5" stroke-linejoin="round"/>
<path d="M431.903 303.75L406.532 347.833L431.903 391.916H482.645L508.016 347.833L482.645 303.75L431.903 303.75Z" stroke="white" stroke-width="2.5" stroke-linejoin="round"/>
<path d="M127.481 303.75L102.111 347.833L127.481 391.916H178.223L203.594 347.833L178.223 303.75L127.481 303.75Z" stroke="white" stroke-width="2.5" stroke-linejoin="round"/>
<path d="M431.903 656.414L406.532 700.497L431.903 744.58H482.645L508.016 700.497L482.645 656.414L431.903 656.414Z" stroke="white" stroke-width="2.5" stroke-linejoin="round"/>
<path d="M127.481 656.414L102.111 700.497L127.481 744.58H178.223L203.594 700.497L178.223 656.414L127.481 656.414Z" stroke="white" stroke-width="2.5" stroke-linejoin="round"/>
<path d="M584.114 215.586L558.743 259.669L584.114 303.752H634.856L660.227 259.669L634.856 215.586L584.114 215.586Z" stroke="white" stroke-width="2.5" stroke-linejoin="round"/>
<path d="M279.692 215.586L254.322 259.669L279.692 303.752H330.434L355.805 259.669L330.434 215.586L279.692 215.586Z" stroke="white" stroke-width="2.5" stroke-linejoin="round"/>
<path d="M-24.7295 215.586L-50.1003 259.669L-24.7295 303.752H26.012L51.3828 259.669L26.012 215.586L-24.7295 215.586Z" stroke="white" stroke-width="2.5" stroke-linejoin="round"/>
<path d="M584.114 568.25L558.743 612.333L584.114 656.416H634.856L660.227 612.333L634.856 568.25L584.114 568.25Z" stroke="white" stroke-width="2.5" stroke-linejoin="round"/>
<path d="M279.692 568.25L254.322 612.333L279.692 656.416H330.434L355.805 612.333L330.434 568.25L279.692 568.25Z" stroke="white" stroke-width="2.5" stroke-linejoin="round"/>
<path d="M-24.7295 568.25L-50.1003 612.333L-24.7295 656.416H26.012L51.3828 612.333L26.012 568.25L-24.7295 568.25Z" stroke="white" stroke-width="2.5" stroke-linejoin="round"/>
<path d="M1040.73 568.25L1015.36 612.333L1040.73 656.416H1091.47L1116.84 612.333L1091.47 568.25L1040.73 568.25Z" stroke="white" stroke-width="2.5" stroke-linejoin="round"/>
<path d="M584.114 39.2539L558.743 83.337L584.114 127.42H634.856L660.227 83.337L634.856 39.2539L584.114 39.2539Z" stroke="white" stroke-width="2.5" stroke-linejoin="round"/>
<path d="M279.692 39.2539L254.322 83.337L279.692 127.42H330.434L355.805 83.337L330.434 39.2539L279.692 39.2539Z" stroke="white" stroke-width="2.5" stroke-linejoin="round"/>
<path d="M-24.7295 39.2539L-50.1003 83.337L-24.7295 127.42H26.012L51.3828 83.337L26.012 39.2539L-24.7295 39.2539Z" stroke="white" stroke-width="2.5" stroke-linejoin="round"/>
<path d="M584.114 391.922L558.743 436.005L584.114 480.088H634.856L660.227 436.005L634.856 391.922L584.114 391.922Z" stroke="white" stroke-width="2.5" stroke-linejoin="round"/>
<path d="M279.692 391.922L254.322 436.005L279.692 480.088H330.434L355.805 436.005L330.434 391.922L279.692 391.922Z" stroke="white" stroke-width="2.5" stroke-linejoin="round"/>
<path d="M-24.7295 391.922L-50.1003 436.005L-24.7295 480.088H26.012L51.3828 436.005L26.012 391.922L-24.7295 391.922Z" stroke="white" stroke-width="2.5" stroke-linejoin="round"/>
<path d="M1040.72 39.2539L1015.35 83.337L1040.72 127.42H1091.47L1116.84 83.337L1091.47 39.2539L1040.72 39.2539Z" stroke="white" stroke-width="2.5" stroke-linejoin="round"/>
<path d="M584.114 303.75L558.743 347.833L584.114 391.916H634.856L660.227 347.833L634.856 303.75L584.114 303.75Z" stroke="white" stroke-width="2.5" stroke-linejoin="round"/>
<path d="M279.692 303.75L254.322 347.833L279.692 391.916H330.434L355.805 347.833L330.434 303.75L279.692 303.75Z" stroke="white" stroke-width="2.5" stroke-linejoin="round"/>
<path d="M-24.7295 303.75L-50.1003 347.833L-24.7295 391.916H26.012L51.3828 347.833L26.012 303.75L-24.7295 303.75Z" stroke="white" stroke-width="2.5" stroke-linejoin="round"/>
<path d="M584.114 656.414L558.743 700.497L584.114 744.58H634.856L660.227 700.497L634.856 656.414L584.114 656.414Z" stroke="white" stroke-width="2.5" stroke-linejoin="round"/>
<path d="M279.692 656.414L254.322 700.497L279.692 744.58H330.434L355.805 700.497L330.434 656.414L279.692 656.414Z" stroke="white" stroke-width="2.5" stroke-linejoin="round"/>
<path d="M-24.7295 656.414L-50.1003 700.497L-24.7295 744.58H26.012L51.3828 700.497L26.012 656.414L-24.7295 656.414Z" stroke="white" stroke-width="2.5" stroke-linejoin="round"/>
<path d="M1040.73 656.414L1015.36 700.497L1040.73 744.58H1091.47L1116.84 700.497L1091.47 656.414L1040.73 656.414Z" stroke="white" stroke-width="2.5" stroke-linejoin="round"/>
<path d="M736.333 215.586L710.962 259.669L736.333 303.752H787.075L812.445 259.669L787.075 215.586L736.333 215.586Z" stroke="white" stroke-width="2.5" stroke-linejoin="round"/>
<path d="M736.333 568.25L710.962 612.333L736.333 656.416H787.075L812.445 612.333L787.075 568.25L736.333 568.25Z" stroke="white" stroke-width="2.5" stroke-linejoin="round"/>
<path d="M1192.92 568.25L1167.55 612.333L1192.92 656.416H1243.66L1269.03 612.333L1243.66 568.25L1192.92 568.25Z" stroke="white" stroke-width="2.5" stroke-linejoin="round"/>
<path d="M888.52 215.586L863.15 259.669L888.52 303.752H939.262L964.633 259.669L939.262 215.586L888.52 215.586Z" stroke="white" stroke-width="2.5" stroke-linejoin="round"/>
<path d="M888.52 568.25L863.15 612.333L888.52 656.416H939.262L964.633 612.333L939.262 568.25L888.52 568.25Z" stroke="white" stroke-width="2.5" stroke-linejoin="round"/>
<path d="M1345.13 568.25L1319.76 612.333L1345.13 656.416H1395.87L1421.24 612.333L1395.87 568.25L1345.13 568.25Z" stroke="white" stroke-width="2.5" stroke-linejoin="round"/>
<path d="M736.333 39.2539L710.962 83.337L736.333 127.42H787.075L812.445 83.337L787.075 39.2539L736.333 39.2539Z" stroke="white" stroke-width="2.5" stroke-linejoin="round"/>
<path d="M736.333 391.922L710.962 436.005L736.333 480.088H787.075L812.445 436.005L787.075 391.922L736.333 391.922Z" stroke="white" stroke-width="2.5" stroke-linejoin="round"/>
<path d="M736.333 303.75L710.962 347.833L736.333 391.916H787.075L812.445 347.833L787.075 303.75L736.333 303.75Z" stroke="white" stroke-width="2.5" stroke-linejoin="round"/>
<path d="M736.333 656.414L710.962 700.497L736.333 744.58H787.075L812.445 700.497L787.075 656.414L736.333 656.414Z" stroke="white" stroke-width="2.5" stroke-linejoin="round"/>
<path d="M1192.92 656.414L1167.55 700.497L1192.92 744.58H1243.66L1269.03 700.497L1243.66 656.414L1192.92 656.414Z" stroke="white" stroke-width="2.5" stroke-linejoin="round"/>
<path d="M888.52 39.2539L863.15 83.337L888.52 127.42H939.262L964.633 83.337L939.262 39.2539L888.52 39.2539Z" stroke="white" stroke-width="2.5" stroke-linejoin="round"/>
<path d="M888.52 391.922L863.15 436.005L888.52 480.088H939.262L964.633 436.005L939.262 391.922L888.52 391.922Z" stroke="white" stroke-width="2.5" stroke-linejoin="round"/>
<path d="M1345.13 39.2539L1319.76 83.337L1345.13 127.42H1395.87L1421.24 83.337L1395.87 39.2539L1345.13 39.2539Z" stroke="white" stroke-width="2.5" stroke-linejoin="round"/>
<path d="M888.52 303.75L863.15 347.833L888.52 391.916H939.262L964.633 347.833L939.262 303.75L888.52 303.75Z" stroke="white" stroke-width="2.5" stroke-linejoin="round"/>
<path d="M888.52 656.414L863.15 700.497L888.52 744.58H939.262L964.633 700.497L939.262 656.414L888.52 656.414Z" stroke="white" stroke-width="2.5" stroke-linejoin="round"/>
<path d="M1345.13 656.414L1319.76 700.497L1345.13 744.58H1395.87L1421.24 700.497L1395.87 656.414L1345.13 656.414Z" stroke="white" stroke-width="2.5" stroke-linejoin="round"/>
<path d="M406.542 -4.82812L431.913 39.255L406.542 83.3381H355.8L330.43 39.255L355.8 -4.82812L406.542 -4.82812Z" stroke="white" stroke-width="2.5" stroke-linejoin="round"/>
<path d="M102.12 -4.82812L127.491 39.255L102.12 83.3381H51.3786L26.0078 39.255L51.3786 -4.82812L102.12 -4.82812Z" stroke="white" stroke-width="2.5" stroke-linejoin="round"/>
<path d="M406.542 259.672L431.913 303.755L406.542 347.838H355.8L330.43 303.755L355.8 259.672L406.542 259.672Z" stroke="white" stroke-width="2.5" stroke-linejoin="round"/>
<path d="M102.12 259.672L127.491 303.755L102.12 347.838H51.3786L26.0078 303.755L51.3786 259.672L102.12 259.672Z" stroke="white" stroke-width="2.5" stroke-linejoin="round"/>
<path d="M406.55 612.332L431.921 656.415L406.55 700.498H355.808L330.438 656.415L355.808 612.332L406.55 612.332Z" stroke="white" stroke-width="2.5" stroke-linejoin="round"/>
<path d="M102.128 612.332L127.499 656.415L102.128 700.498H51.3864L26.0156 656.415L51.3864 612.332L102.128 612.332Z" stroke="white" stroke-width="2.5" stroke-linejoin="round"/>
<path d="M406.542 83.3359L431.913 127.419L406.542 171.502H355.8L330.43 127.419L355.8 83.3359L406.542 83.3359Z" stroke="white" stroke-width="2.5" stroke-linejoin="round"/>
<path d="M102.12 83.3359L127.491 127.419L102.12 171.502H51.3786L26.0078 127.419L51.3786 83.3359L102.12 83.3359Z" stroke="white" stroke-width="2.5" stroke-linejoin="round"/>
<path d="M406.55 436L431.921 480.083L406.55 524.166H355.808L330.438 480.083L355.808 436L406.55 436Z" stroke="white" stroke-width="2.5" stroke-linejoin="round"/>
<path d="M102.128 436L127.499 480.083L102.128 524.166H51.3864L26.0156 480.083L51.3864 436L102.128 436Z" stroke="white" stroke-width="2.5" stroke-linejoin="round"/>
<path d="M406.542 347.836L431.913 391.919L406.542 436.002H355.8L330.43 391.919L355.8 347.836L406.542 347.836Z" stroke="white" stroke-width="2.5" stroke-linejoin="round"/>
<path d="M102.12 347.836L127.491 391.919L102.12 436.002H51.3786L26.0078 391.919L51.3786 347.836L102.12 347.836Z" stroke="white" stroke-width="2.5" stroke-linejoin="round"/>
<path d="M406.55 700.5L431.921 744.583L406.55 788.666H355.808L330.438 744.583L355.808 700.5L406.55 700.5Z" stroke="white" stroke-width="2.5" stroke-linejoin="round"/>
<path d="M102.128 700.5L127.499 744.583L102.128 788.666H51.3864L26.0156 744.583L51.3864 700.5L102.128 700.5Z" stroke="white" stroke-width="2.5" stroke-linejoin="round"/>
<path d="M558.745 -4.82812L584.116 39.255L558.745 83.3381H508.004L482.633 39.255L508.004 -4.82812L558.745 -4.82812Z" stroke="white" stroke-width="2.5" stroke-linejoin="round"/>
<path d="M254.323 -4.82812L279.694 39.255L254.323 83.3381H203.582L178.211 39.255L203.582 -4.82812L254.323 -4.82812Z" stroke="white" stroke-width="2.5" stroke-linejoin="round"/>
<path d="M1015.36 -4.82812L1040.73 39.255L1015.36 83.3381H964.621L939.25 39.255L964.621 -4.82812L1015.36 -4.82812Z" stroke="white" stroke-width="2.5" stroke-linejoin="round"/>
<path d="M558.745 259.672L584.116 303.755L558.745 347.838H508.004L482.633 303.755L508.004 259.672L558.745 259.672Z" stroke="white" stroke-width="2.5" stroke-linejoin="round"/>
<path d="M254.323 259.672L279.694 303.755L254.323 347.838H203.582L178.211 303.755L203.582 259.672L254.323 259.672Z" stroke="white" stroke-width="2.5" stroke-linejoin="round"/>
<path d="M558.745 612.332L584.116 656.415L558.745 700.498H508.004L482.633 656.415L508.004 612.332L558.745 612.332Z" stroke="white" stroke-width="2.5" stroke-linejoin="round"/>
<path d="M254.323 612.332L279.694 656.415L254.323 700.498H203.582L178.211 656.415L203.582 612.332L254.323 612.332Z" stroke="white" stroke-width="2.5" stroke-linejoin="round"/>
<path d="M1015.36 259.672L1040.73 303.755L1015.36 347.838H964.621L939.25 303.755L964.621 259.672L1015.36 259.672Z" stroke="white" stroke-width="2.5" stroke-linejoin="round"/>
<path d="M1015.36 612.332L1040.73 656.415L1015.36 700.498H964.621L939.25 656.415L964.621 612.332L1015.36 612.332Z" stroke="white" stroke-width="2.5" stroke-linejoin="round"/>
<path d="M558.745 83.3359L584.116 127.419L558.745 171.502H508.004L482.633 127.419L508.004 83.3359L558.745 83.3359Z" stroke="white" stroke-width="2.5" stroke-linejoin="round"/>
<path d="M254.323 83.3359L279.694 127.419L254.323 171.502H203.582L178.211 127.419L203.582 83.3359L254.323 83.3359Z" stroke="white" stroke-width="2.5" stroke-linejoin="round"/>
<path d="M558.745 436L584.116 480.083L558.745 524.166H508.004L482.633 480.083L508.004 436L558.745 436Z" stroke="white" stroke-width="2.5" stroke-linejoin="round"/>
<path d="M254.323 436L279.694 480.083L254.323 524.166H203.582L178.211 480.083L203.582 436L254.323 436Z" stroke="white" stroke-width="2.5" stroke-linejoin="round"/>
<path d="M1015.36 83.3359L1040.73 127.419L1015.36 171.502H964.621L939.25 127.419L964.621 83.3359L1015.36 83.3359Z" stroke="white" stroke-width="2.5" stroke-linejoin="round"/>
<path d="M1015.36 436L1040.73 480.083L1015.36 524.166H964.621L939.25 480.083L964.621 436L1015.36 436Z" stroke="white" stroke-width="2.5" stroke-linejoin="round"/>
<path d="M558.745 347.836L584.116 391.919L558.745 436.002H508.004L482.633 391.919L508.004 347.836L558.745 347.836Z" stroke="white" stroke-width="2.5" stroke-linejoin="round"/>
<path d="M254.323 347.836L279.694 391.919L254.323 436.002H203.582L178.211 391.919L203.582 347.836L254.323 347.836Z" stroke="white" stroke-width="2.5" stroke-linejoin="round"/>
<path d="M558.745 700.5L584.116 744.583L558.745 788.666H508.004L482.633 744.583L508.004 700.5L558.745 700.5Z" stroke="white" stroke-width="2.5" stroke-linejoin="round"/>
<path d="M254.323 700.5L279.694 744.583L254.323 788.666H203.582L178.211 744.583L203.582 700.5L254.323 700.5Z" stroke="white" stroke-width="2.5" stroke-linejoin="round"/>
<path d="M1015.36 347.836L1040.73 391.919L1015.36 436.002H964.621L939.25 391.919L964.621 347.836L1015.36 347.836Z" stroke="white" stroke-width="2.5" stroke-linejoin="round"/>
<path d="M1015.36 700.5L1040.73 744.583L1015.36 788.666H964.621L939.25 744.583L964.621 700.5L1015.36 700.5Z" stroke="white" stroke-width="2.5" stroke-linejoin="round"/>
<path d="M710.94 -4.82812L736.311 39.255L710.94 83.3381H660.199L634.828 39.255L660.199 -4.82812L710.94 -4.82812Z" stroke="white" stroke-width="2.5" stroke-linejoin="round"/>
<path d="M1167.55 -4.82812L1192.92 39.255L1167.55 83.3381H1116.81L1091.44 39.255L1116.81 -4.82812L1167.55 -4.82812Z" stroke="white" stroke-width="2.5" stroke-linejoin="round"/>
<path d="M710.94 259.672L736.311 303.755L710.94 347.838H660.199L634.828 303.755L660.199 259.672L710.94 259.672Z" stroke="white" stroke-width="2.5" stroke-linejoin="round"/>
<path d="M710.94 612.336L736.311 656.419L710.94 700.502H660.199L634.828 656.419L660.199 612.336L710.94 612.336Z" stroke="white" stroke-width="2.5" stroke-linejoin="round"/>
<path d="M1167.56 612.336L1192.93 656.419L1167.56 700.502H1116.82L1091.45 656.419L1116.82 612.336L1167.56 612.336Z" stroke="white" stroke-width="2.5" stroke-linejoin="round"/>
<path d="M863.151 -4.82812L888.522 39.255L863.151 83.3381H812.41L787.039 39.255L812.41 -4.82812L863.151 -4.82812Z" stroke="white" stroke-width="2.5" stroke-linejoin="round"/>
<path d="M1319.76 -4.82812L1345.13 39.255L1319.76 83.3381H1269.02L1243.65 39.255L1269.02 -4.82812L1319.76 -4.82812Z" stroke="white" stroke-width="2.5" stroke-linejoin="round"/>
<path d="M863.151 259.672L888.522 303.755L863.151 347.838H812.41L787.039 303.755L812.41 259.672L863.151 259.672Z" stroke="white" stroke-width="2.5" stroke-linejoin="round"/>
<path d="M863.151 612.336L888.522 656.419L863.151 700.502H812.41L787.039 656.419L812.41 612.336L863.151 612.336Z" stroke="white" stroke-width="2.5" stroke-linejoin="round"/>
<path d="M1319.76 612.336L1345.13 656.419L1319.76 700.502H1269.02L1243.65 656.419L1269.02 612.336L1319.76 612.336Z" stroke="white" stroke-width="2.5" stroke-linejoin="round"/>
<path d="M710.94 83.3359L736.311 127.419L710.94 171.502H660.199L634.828 127.419L660.199 83.3359L710.94 83.3359Z" stroke="white" stroke-width="2.5" stroke-linejoin="round"/>
<path d="M710.94 436L736.311 480.083L710.94 524.166H660.199L634.828 480.083L660.199 436L710.94 436Z" stroke="white" stroke-width="2.5" stroke-linejoin="round"/>
<path d="M1167.55 83.3359L1192.92 127.419L1167.55 171.502H1116.81L1091.44 127.419L1116.81 83.3359L1167.55 83.3359Z" stroke="white" stroke-width="2.5" stroke-linejoin="round"/>
<path d="M710.94 347.836L736.311 391.919L710.94 436.002H660.199L634.828 391.919L660.199 347.836L710.94 347.836Z" stroke="white" stroke-width="2.5" stroke-linejoin="round"/>
<path d="M710.94 700.5L736.311 744.583L710.94 788.666H660.199L634.828 744.583L660.199 700.5L710.94 700.5Z" stroke="white" stroke-width="2.5" stroke-linejoin="round"/>
<path d="M1167.56 700.5L1192.93 744.583L1167.56 788.666H1116.82L1091.45 744.583L1116.82 700.5L1167.56 700.5Z" stroke="white" stroke-width="2.5" stroke-linejoin="round"/>
<path d="M863.151 83.3359L888.522 127.419L863.151 171.502H812.41L787.039 127.419L812.41 83.3359L863.151 83.3359Z" stroke="white" stroke-width="2.5" stroke-linejoin="round"/>
<path d="M863.151 436L888.522 480.083L863.151 524.166H812.41L787.039 480.083L812.41 436L863.151 436Z" stroke="white" stroke-width="2.5" stroke-linejoin="round"/>
<path d="M1319.76 83.3359L1345.13 127.419L1319.76 171.502H1269.02L1243.65 127.419L1269.02 83.3359L1319.76 83.3359Z" stroke="white" stroke-width="2.5" stroke-linejoin="round"/>
<path d="M863.151 347.836L888.522 391.919L863.151 436.002H812.41L787.039 391.919L812.41 347.836L863.151 347.836Z" stroke="white" stroke-width="2.5" stroke-linejoin="round"/>
<path d="M863.151 700.5L888.522 744.583L863.151 788.666H812.41L787.039 744.583L812.41 700.5L863.151 700.5Z" stroke="white" stroke-width="2.5" stroke-linejoin="round"/>
<path d="M1319.76 700.5L1345.13 744.583L1319.76 788.666H1269.02L1243.65 744.583L1269.02 700.5L1319.76 700.5Z" stroke="white" stroke-width="2.5" stroke-linejoin="round"/>
<path d="M1192.92 39.2539L1167.55 83.337L1192.92 127.42H1243.66L1269.03 83.337L1243.66 39.2539L1192.92 39.2539Z" stroke="white" stroke-width="2.5" stroke-linejoin="round"/>
<path d="M1167.55 171.508L1192.92 215.591L1167.55 259.674H1116.81L1091.44 215.591L1116.81 171.508L1167.55 171.508Z" stroke="white" stroke-width="2.5" stroke-linejoin="round"/>
<path d="M1167.56 524.164L1192.93 568.247L1167.56 612.33H1116.82L1091.45 568.247L1116.82 524.164L1167.56 524.164Z" stroke="white" stroke-width="2.5" stroke-linejoin="round"/>
<path d="M1319.76 171.508L1345.13 215.591L1319.76 259.674H1269.02L1243.65 215.591L1269.02 171.508L1319.76 171.508Z" stroke="white" stroke-width="2.5" stroke-linejoin="round"/>
<path d="M1319.76 524.164L1345.13 568.247L1319.76 612.33H1269.02L1243.65 568.247L1269.02 524.164L1319.76 524.164Z" stroke="white" stroke-width="2.5" stroke-linejoin="round"/>
<path d="M1345.13 480.086L1319.76 524.169L1345.13 568.252H1395.87L1421.24 524.169L1395.87 480.086L1345.13 480.086Z" stroke="white" stroke-width="2.5" stroke-linejoin="round"/>
<path d="M1345.13 215.586L1319.76 259.669L1345.13 303.752H1395.87L1421.24 259.669L1395.87 215.586L1345.13 215.586Z" stroke="white" stroke-width="2.5" stroke-linejoin="round"/>
<path d="M1345.13 391.922L1319.76 436.005L1345.13 480.088H1395.87L1421.24 436.005L1395.87 391.922L1345.13 391.922Z" stroke="white" stroke-width="2.5" stroke-linejoin="round"/>
<path d="M1345.13 303.75L1319.76 347.833L1345.13 391.916H1395.87L1421.24 347.833L1395.87 303.75L1345.13 303.75Z" stroke="white" stroke-width="2.5" stroke-linejoin="round"/>
<path d="M1040.73 480.086L1015.36 524.169L1040.73 568.252H1091.47L1116.84 524.169L1091.47 480.086L1040.73 480.086Z" stroke="white" stroke-width="2.5" stroke-linejoin="round"/>
<path d="M1192.92 480.086L1167.55 524.169L1192.92 568.252H1243.66L1269.03 524.169L1243.66 480.086L1192.92 480.086Z" stroke="white" stroke-width="2.5" stroke-linejoin="round"/>
<path d="M1040.72 215.586L1015.35 259.669L1040.72 303.752H1091.47L1116.84 259.669L1091.47 215.586L1040.72 215.586Z" stroke="white" stroke-width="2.5" stroke-linejoin="round"/>
<path d="M1040.72 391.922L1015.35 436.005L1040.72 480.088H1091.47L1116.84 436.005L1091.47 391.922L1040.72 391.922Z" stroke="white" stroke-width="2.5" stroke-linejoin="round"/>
<path d="M1040.72 303.75L1015.35 347.833L1040.72 391.916H1091.47L1116.84 347.833L1091.47 303.75L1040.72 303.75Z" stroke="white" stroke-width="2.5" stroke-linejoin="round"/>
<path d="M1192.92 215.586L1167.55 259.669L1192.92 303.752H1243.66L1269.03 259.669L1243.66 215.586L1192.92 215.586Z" stroke="white" stroke-width="2.5" stroke-linejoin="round"/>
<path d="M1192.92 391.922L1167.55 436.005L1192.92 480.088H1243.66L1269.03 436.005L1243.66 391.922L1192.92 391.922Z" stroke="white" stroke-width="2.5" stroke-linejoin="round"/>
<path d="M1192.92 303.75L1167.55 347.833L1192.92 391.916H1243.66L1269.03 347.833L1243.66 303.75L1192.92 303.75Z" stroke="white" stroke-width="2.5" stroke-linejoin="round"/>
<path d="M1167.55 259.672L1192.92 303.755L1167.55 347.838H1116.81L1091.44 303.755L1116.81 259.672L1167.55 259.672Z" stroke="white" stroke-width="2.5" stroke-linejoin="round"/>
<path d="M1319.76 259.672L1345.13 303.755L1319.76 347.838H1269.02L1243.65 303.755L1269.02 259.672L1319.76 259.672Z" stroke="white" stroke-width="2.5" stroke-linejoin="round"/>
<path d="M1167.56 436L1192.93 480.083L1167.56 524.166H1116.82L1091.45 480.083L1116.82 436L1167.56 436Z" stroke="white" stroke-width="2.5" stroke-linejoin="round"/>
<path d="M1167.55 347.836L1192.92 391.919L1167.55 436.002H1116.81L1091.44 391.919L1116.81 347.836L1167.55 347.836Z" stroke="white" stroke-width="2.5" stroke-linejoin="round"/>
<path d="M1319.76 436L1345.13 480.083L1319.76 524.166H1269.02L1243.65 480.083L1269.02 436L1319.76 436Z" stroke="white" stroke-width="2.5" stroke-linejoin="round"/>
<path d="M1319.76 347.836L1345.13 391.919L1319.76 436.002H1269.02L1243.65 391.919L1269.02 347.836L1319.76 347.836Z" stroke="white" stroke-width="2.5" stroke-linejoin="round"/>
</g>
<g opacity="0.4">
<g filter="url(#filter0_di_144_13362)">
<path d="M1243.64 215.588H1192.91L1167.54 259.672L1192.91 303.755L1167.54 347.838H1116.8L1091.43 303.755L1040.72 303.755L1015.35 347.838L1040.72 391.921L1015.34 436.003L1040.71 480.087H1091.44H1091.46L1116.83 524.168H1167.54L1192.91 480.085H1243.64L1269.01 436.003H1319.75L1345.12 480.086L1319.75 524.168L1345.12 568.251L1319.75 612.334L1345.12 656.417L1395.87 656.416L1421.24 612.333L1395.87 127.422L1345.12 127.423L1319.75 171.506H1269.01L1243.64 215.588Z" fill="white" fill-opacity="0.2" shape-rendering="crispEdges"/>
<path d="M1116.83 524.168L1116.81 524.168V524.169M1116.83 524.168H1167.54L1192.91 480.085H1243.64M1116.83 524.168L1091.46 480.087M1243.65 480.085H1243.64M1243.64 480.085L1243.64 480.086M1243.64 480.085L1269.01 436.003H1319.75L1345.12 480.086L1319.75 524.168L1345.12 568.251L1319.75 612.334L1345.12 656.417L1395.87 656.416L1421.24 612.333L1395.87 127.422L1345.12 127.423L1319.75 171.506H1269.01L1243.64 215.588H1192.91L1167.54 259.672L1192.91 303.755L1167.54 347.838H1116.8L1091.43 303.755L1040.72 303.755L1015.35 347.838L1040.72 391.921L1015.34 436.003L1040.71 480.087H1091.46M1091.44 480.087H1091.46" stroke="white" stroke-width="2.5" stroke-linejoin="round" shape-rendering="crispEdges"/>
</g>
<path d="M1192.92 568.251H1243.66L1269.03 612.334L1243.66 656.417H1192.92M1319.76 612.335H1269.02M1243.65 656.418L1269.02 612.335M1269.02 612.335L1243.65 568.252L1269.02 524.169M1091.45 568.252L1116.82 524.169M1243.66 568.252L1269.03 524.169L1243.66 480.086" stroke="url(#paint1_linear_144_13362)" stroke-width="2.5" stroke-linejoin="round"/>
<g filter="url(#filter1_di_144_13362)">
<path d="M279.689 568.248L254.318 524.165L203.589 524.165L178.218 568.247H127.477L102.123 612.33L127.477 656.413L178.206 656.413L203.577 700.496L178.206 744.58H127.494L102.123 700.496L51.378 700.496L26.0072 656.413H-24.7344L-24.7344 391.917H26.0072L51.3816 436L102.106 436L127.477 391.917L102.106 347.834L127.477 303.751L102.106 259.669L127.477 215.586H178.218L203.577 259.669L254.317 259.669L279.688 303.751L254.317 347.834L203.577 347.834L178.206 391.917L203.577 436H254.318L279.688 480.082H330.429L355.803 524.166L406.528 524.165L431.898 568.247L406.528 612.33L355.803 612.33L330.433 656.413L279.688 656.413L254.318 612.33L279.689 568.248Z" fill="white" fill-opacity="0.2" shape-rendering="crispEdges"/>
<path d="M279.689 568.248L254.318 524.165L203.589 524.165L178.218 568.247H127.477L102.123 612.33L127.477 656.413L178.206 656.413L203.577 700.496L178.206 744.58H127.494L102.123 700.496L51.378 700.496L26.0072 656.413H-24.7344L-24.7344 391.917H26.0072L51.3816 436L102.106 436L127.477 391.917L102.106 347.834L127.477 303.751L102.106 259.669L127.477 215.586H178.218L203.577 259.669L254.317 259.669L279.688 303.751L254.317 347.834L203.577 347.834L178.206 391.917L203.577 436H254.318L279.688 480.082H330.429L355.803 524.166L406.528 524.165L431.898 568.247L406.528 612.33L355.803 612.33L330.433 656.413L279.688 656.413L254.318 612.33L279.689 568.248Z" stroke="white" stroke-width="2.5" stroke-linejoin="round" shape-rendering="crispEdges"/>
</g>
<path d="M127.494 215.589L102.123 171.506H51.3816L26.0108 215.589M-24.7266 127.422L26.015 127.422L51.3858 171.505L26.015 215.588M51.3858 347.837L26.015 303.754M51.3816 347.838L26.0108 303.755M26.0108 391.92L51.3816 347.837" stroke="url(#paint2_linear_144_13362)" stroke-width="2.5" stroke-linejoin="round"/>
<g opacity="0.05">
<path d="M1345.13 127.422L1319.76 171.505L1345.13 215.588H1395.87L1421.24 171.505L1395.87 127.422L1345.13 127.422Z" stroke="white" stroke-width="2.5" stroke-linejoin="round"/>
<path d="M1345.13 568.25L1319.76 612.333L1345.13 656.416H1395.87L1421.24 612.333L1395.87 568.25L1345.13 568.25Z" stroke="white" stroke-width="2.5" stroke-linejoin="round"/>
<path d="M1319.76 171.508L1345.13 215.591L1319.76 259.674H1269.02L1243.65 215.591L1269.02 171.508L1319.76 171.508Z" stroke="white" stroke-width="2.5" stroke-linejoin="round"/>
<path d="M1345.13 480.086L1319.76 524.169L1345.13 568.252H1395.87L1421.24 524.169L1395.87 480.086L1345.13 480.086Z" stroke="white" stroke-width="2.5" stroke-linejoin="round"/>
<path d="M1345.13 215.59L1319.76 259.673L1345.13 303.756H1395.87L1421.24 259.673L1395.87 215.59L1345.13 215.59Z" stroke="white" stroke-width="2.5" stroke-linejoin="round"/>
<path d="M1345.13 391.922L1319.76 436.005L1345.13 480.088H1395.87L1421.24 436.005L1395.87 391.922L1345.13 391.922Z" stroke="white" stroke-width="2.5" stroke-linejoin="round"/>
<path d="M1345.13 303.754L1319.76 347.837L1345.13 391.92H1395.87L1421.24 347.837L1395.87 303.754L1345.13 303.754Z" stroke="white" stroke-width="2.5" stroke-linejoin="round"/>
<path d="M1040.72 391.922L1015.35 436.005L1040.72 480.088H1091.47L1116.84 436.005L1091.47 391.922L1040.72 391.922Z" stroke="white" stroke-width="2.5" stroke-linejoin="round"/>
<path d="M1040.72 303.754L1015.35 347.837L1040.72 391.92H1091.47L1116.84 347.837L1091.47 303.754L1040.72 303.754Z" stroke="white" stroke-width="2.5" stroke-linejoin="round"/>
<path d="M1192.92 215.59L1167.55 259.673L1192.92 303.756H1243.66L1269.03 259.673L1243.66 215.59L1192.92 215.59Z" stroke="white" stroke-width="2.5" stroke-linejoin="round"/>
<path d="M1192.92 391.922L1167.55 436.005L1192.92 480.088H1243.66L1269.03 436.005L1243.66 391.922L1192.92 391.922Z" stroke="white" stroke-width="2.5" stroke-linejoin="round"/>
<path d="M1192.92 303.754L1167.55 347.837L1192.92 391.92H1243.66L1269.03 347.837L1243.66 303.754L1192.92 303.754Z" stroke="white" stroke-width="2.5" stroke-linejoin="round"/>
<path d="M1319.76 259.672L1345.13 303.755L1319.76 347.838H1269.02L1243.65 303.755L1269.02 259.672L1319.76 259.672Z" stroke="white" stroke-width="2.5" stroke-linejoin="round"/>
<path d="M1167.56 436.004L1192.93 480.087L1167.56 524.17H1116.82L1091.45 480.087L1116.82 436.004L1167.56 436.004Z" stroke="white" stroke-width="2.5" stroke-linejoin="round"/>
<path d="M1167.54 347.836L1192.91 391.919L1167.54 436.002H1116.8L1091.43 391.919L1116.8 347.836L1167.54 347.836Z" stroke="white" stroke-width="2.5" stroke-linejoin="round"/>
<path d="M1319.76 347.836L1345.13 391.919L1319.76 436.002H1269.02L1243.65 391.919L1269.02 347.836L1319.76 347.836Z" stroke="white" stroke-width="2.5" stroke-linejoin="round"/>
</g>
<g opacity="0.02">
<path d="M406.55 524.164L431.921 568.247L406.55 612.33H355.808L330.438 568.247L355.808 524.164L406.55 524.164Z" stroke="white" stroke-width="2.5" stroke-linejoin="round"/>
<path d="M102.128 524.164L127.499 568.247L102.128 612.33H51.3864L26.0156 568.247L51.3864 524.164L102.128 524.164Z" stroke="white" stroke-width="2.5" stroke-linejoin="round"/>
<path d="M127.481 480.082L102.111 524.165L127.481 568.248H178.223L203.594 524.165L178.223 480.082L127.481 480.082Z" stroke="white" stroke-width="2.5" stroke-linejoin="round"/>
<path d="M279.692 480.082L254.322 524.165L279.692 568.248H330.434L355.805 524.165L330.434 480.082L279.692 480.082Z" stroke="white" stroke-width="2.5" stroke-linejoin="round"/>
<path d="M-24.7295 480.082L-50.1003 524.165L-24.7295 568.248H26.012L51.3828 524.165L26.012 480.082L-24.7295 480.082Z" stroke="white" stroke-width="2.5" stroke-linejoin="round"/>
<path d="M127.481 215.586L102.111 259.669L127.481 303.752H178.223L203.594 259.669L178.223 215.586L127.481 215.586Z" stroke="white" stroke-width="2.5" stroke-linejoin="round"/>
<path d="M127.481 391.918L102.111 436.001L127.481 480.084H178.223L203.594 436.001L178.223 391.918L127.481 391.918Z" stroke="white" stroke-width="2.5" stroke-linejoin="round"/>
<path d="M127.481 303.75L102.111 347.833L127.481 391.916H178.223L203.594 347.833L178.223 303.75L127.481 303.75Z" stroke="white" stroke-width="2.5" stroke-linejoin="round"/>
<path d="M127.481 656.414L102.111 700.497L127.481 744.58H178.223L203.594 700.497L178.223 656.414L127.481 656.414Z" stroke="white" stroke-width="2.5" stroke-linejoin="round"/>
<path d="M279.692 568.246L254.322 612.329L279.692 656.412H330.434L355.805 612.329L330.434 568.246L279.692 568.246Z" stroke="white" stroke-width="2.5" stroke-linejoin="round"/>
<path d="M-24.7295 568.246L-50.1003 612.329L-24.7295 656.412H26.012L51.3828 612.329L26.012 568.246L-24.7295 568.246Z" stroke="white" stroke-width="2.5" stroke-linejoin="round"/>
<path d="M-24.7295 391.918L-50.1003 436.001L-24.7295 480.084H26.012L51.3828 436.001L26.012 391.918L-24.7295 391.918Z" stroke="white" stroke-width="2.5" stroke-linejoin="round"/>
<path d="M279.692 656.414L254.322 700.497L279.692 744.58H330.434L355.805 700.497L330.434 656.414L279.692 656.414Z" stroke="white" stroke-width="2.5" stroke-linejoin="round"/>
<path d="M102.128 612.328L127.499 656.411L102.128 700.494H51.3864L26.0156 656.411L51.3864 612.328L102.128 612.328Z" stroke="white" stroke-width="2.5" stroke-linejoin="round"/>
<path d="M102.128 436L127.499 480.083L102.128 524.166H51.3864L26.0156 480.083L51.3864 436L102.128 436Z" stroke="white" stroke-width="2.5" stroke-linejoin="round"/>
<path d="M254.323 259.668L279.694 303.751L254.323 347.834H203.582L178.211 303.751L203.582 259.668L254.323 259.668Z" stroke="white" stroke-width="2.5" stroke-linejoin="round"/>
<path d="M254.323 436L279.694 480.083L254.323 524.166H203.582L178.211 480.083L203.582 436L254.323 436Z" stroke="white" stroke-width="2.5" stroke-linejoin="round"/>
</g>
<path d="M254.32 347.836L279.691 391.919H330.433M254.322 347.836L279.693 391.919" stroke="url(#paint3_linear_144_13362)" stroke-width="2.5" stroke-linejoin="round"/>
<path d="M431.902 568.25L406.531 612.333L431.902 656.416H482.644L508.014 700.499L482.644 744.582M406.549 612.333L431.919 656.416M508.002 700.499L482.632 656.416" stroke="url(#paint4_linear_144_13362)" stroke-width="2.5" stroke-linejoin="round"/>
<path d="M1040.73 127.42H1091.47L1116.84 83.337L1091.47 39.2539M1167.55 83.3389H1116.81L1091.44 127.422L1116.81 171.505L1091.44 215.588L1116.81 259.671H1167.55L1192.92 215.588" stroke="url(#paint5_linear_144_13362)" stroke-width="2.5" stroke-linejoin="round"/>
<path d="M254.322 259.668L279.693 215.585L254.322 171.502L279.693 127.419L254.322 83.3359M330.433 127.418H279.691L254.32 171.501L279.691 215.584L254.32 259.668M406.541 83.3359L355.799 83.3359L330.428 127.419" stroke="url(#paint6_linear_144_13362)" stroke-width="2.5" stroke-linejoin="round"/>
</g>
</g>
</g>
<rect width="1366" height="200" fill="url(#paint7_linear_144_13362)"/>
<path d="M0 740H1366V540H0V740Z" fill="url(#paint8_linear_144_13362)"/>
<defs>
<filter id="filter0_di_144_13362" x="982.094" y="94.1719" width="472.391" height="595.496" filterUnits="userSpaceOnUse" color-interpolation-filters="sRGB">
<feFlood flood-opacity="0" result="BackgroundImageFix"/>
<feColorMatrix in="SourceAlpha" type="matrix" values="0 0 0 0 0 0 0 0 0 0 0 0 0 0 0 0 0 0 127 0" result="hardAlpha"/>
<feOffset/>
<feGaussianBlur stdDeviation="16"/>
<feComposite in2="hardAlpha" operator="out"/>
<feColorMatrix type="matrix" values="0 0 0 0 1 0 0 0 0 1 0 0 0 0 1 0 0 0 0.34 0"/>
<feBlend mode="normal" in2="BackgroundImageFix" result="effect1_dropShadow_144_13362"/>
<feBlend mode="normal" in="SourceGraphic" in2="effect1_dropShadow_144_13362" result="shape"/>
<feColorMatrix in="SourceAlpha" type="matrix" values="0 0 0 0 0 0 0 0 0 0 0 0 0 0 0 0 0 0 127 0" result="hardAlpha"/>
<feOffset/>
<feGaussianBlur stdDeviation="16"/>
<feComposite in2="hardAlpha" operator="arithmetic" k2="-1" k3="1"/>
<feColorMatrix type="matrix" values="0 0 0 0 1 0 0 0 0 1 0 0 0 0 1 0 0 0 0.34 0"/>
<feBlend mode="normal" in2="shape" result="effect2_innerShadow_144_13362"/>
</filter>
<filter id="filter1_di_144_13362" x="-57.9844" y="182.336" width="523.133" height="595.496" filterUnits="userSpaceOnUse" color-interpolation-filters="sRGB">
<feFlood flood-opacity="0" result="BackgroundImageFix"/>
<feColorMatrix in="SourceAlpha" type="matrix" values="0 0 0 0 0 0 0 0 0 0 0 0 0 0 0 0 0 0 127 0" result="hardAlpha"/>
<feOffset/>
<feGaussianBlur stdDeviation="16"/>
<feComposite in2="hardAlpha" operator="out"/>
<feColorMatrix type="matrix" values="0 0 0 0 1 0 0 0 0 1 0 0 0 0 1 0 0 0 0.34 0"/>
<feBlend mode="normal" in2="BackgroundImageFix" result="effect1_dropShadow_144_13362"/>
<feBlend mode="normal" in="SourceGraphic" in2="effect1_dropShadow_144_13362" result="shape"/>
<feColorMatrix in="SourceAlpha" type="matrix" values="0 0 0 0 0 0 0 0 0 0 0 0 0 0 0 0 0 0 127 0" result="hardAlpha"/>
<feOffset/>
<feGaussianBlur stdDeviation="16"/>
<feComposite in2="hardAlpha" operator="arithmetic" k2="-1" k3="1"/>
<feColorMatrix type="matrix" values="0 0 0 0 1 0 0 0 0 1 0 0 0 0 1 0 0 0 0.34 0"/>
<feBlend mode="normal" in2="shape" result="effect2_innerShadow_144_13362"/>
</filter>
<radialGradient id="paint0_radial_144_13362" cx="0" cy="0" r="1" gradientUnits="userSpaceOnUse" gradientTransform="translate(683 370) rotate(90) scale(364 683)">
<stop offset="0.25" stop-color="#D9D9D9" stop-opacity="0.5"/>
<stop offset="0.729237" stop-color="#A6A6A6" stop-opacity="0.7"/>
<stop offset="1" stop-color="#737373"/>
</radialGradient>
<linearGradient id="paint1_linear_144_13362" x1="1262.56" y1="455.78" x2="1141.45" y2="651.666" gradientUnits="userSpaceOnUse">
<stop stop-color="white"/>
<stop offset="1" stop-color="white" stop-opacity="0"/>
</linearGradient>
<linearGradient id="paint2_linear_144_13362" x1="5.5" y1="288.503" x2="121.983" y2="306.362" gradientUnits="userSpaceOnUse">
<stop stop-color="white" stop-opacity="0"/>
<stop offset="1" stop-color="white"/>
</linearGradient>
<linearGradient id="paint3_linear_144_13362" x1="241" y1="334.002" x2="269.727" y2="421.702" gradientUnits="userSpaceOnUse">
<stop stop-color="white"/>
<stop offset="1" stop-color="white" stop-opacity="0"/>
</linearGradient>
<linearGradient id="paint4_linear_144_13362" x1="419.131" y1="581.197" x2="415.659" y2="690.361" gradientUnits="userSpaceOnUse">
<stop stop-color="white"/>
<stop offset="1" stop-color="white" stop-opacity="0"/>
</linearGradient>
<linearGradient id="paint5_linear_144_13362" x1="1179.05" y1="264.552" x2="1116.83" y2="39.2539" gradientUnits="userSpaceOnUse">
<stop stop-color="white"/>
<stop offset="1" stop-color="white" stop-opacity="0"/>
</linearGradient>
<linearGradient id="paint6_linear_144_13362" x1="301" y1="79.499" x2="231.897" y2="163.097" gradientUnits="userSpaceOnUse">
<stop stop-color="white" stop-opacity="0"/>
<stop offset="1" stop-color="white"/>
</linearGradient>
<linearGradient id="paint7_linear_144_13362" x1="683" y1="0" x2="683" y2="200" gradientUnits="userSpaceOnUse">
<stop stop-color="#101012"/>
<stop offset="1" stop-color="#101012" stop-opacity="0"/>
</linearGradient>
<linearGradient id="paint8_linear_144_13362" x1="683" y1="740" x2="683" y2="540" gradientUnits="userSpaceOnUse">
<stop stop-color="#101012"/>
<stop offset="1" stop-color="#101012" stop-opacity="0"/>
</linearGradient>
</defs>
</svg>
