<svg width="1366" height="1316" viewBox="0 0 1366 1316" fill="none" xmlns="http://www.w3.org/2000/svg">
<g opacity="0.6">
<mask id="mask0_144_11870" style="mask-type:alpha" maskUnits="userSpaceOnUse" x="0" y="0" width="1366" height="1316">
<rect width="1366" height="1316" fill="url(#paint0_radial_144_11870)"/>
</mask>
<g mask="url(#mask0_144_11870)">
<path d="M141.312 -15.0996L164.867 26.8479L141.312 68.7954H94.2031L70.6484 26.8479L94.2031 -15.0996L141.312 -15.0996Z" stroke="#1A1A1A" stroke-width="2" stroke-linejoin="round"/>
<path d="M423.937 -15.0996L447.492 26.8479L423.937 68.7954H376.828L353.273 26.8479L376.828 -15.0996L423.937 -15.0996Z" stroke="#1A1A1A" stroke-width="2" stroke-linejoin="round"/>
<path d="M141.312 152.691L164.867 194.639L141.312 236.586H94.2031L70.6484 194.639L94.2031 152.691L141.312 152.691Z" stroke="#1A1A1A" stroke-width="2" stroke-linejoin="round"/>
<path d="M141.312 404.375L164.867 446.323L141.312 488.27H94.2031L70.6484 446.323L94.2031 404.375L141.312 404.375Z" stroke="#1A1A1A" stroke-width="2" stroke-linejoin="round"/>
<path d="M141.312 739.953L164.867 781.901L141.312 823.848H94.2031L70.6484 781.901L94.2031 739.953L141.312 739.953Z" stroke="#1A1A1A" stroke-width="2" stroke-linejoin="round"/>
<path d="M423.937 152.691L447.492 194.639L423.937 236.586H376.828L353.273 194.639L376.828 152.691L423.937 152.691Z" stroke="#1A1A1A" stroke-width="2" stroke-linejoin="round"/>
<path d="M423.937 404.375L447.492 446.323L423.937 488.27H376.828L353.273 446.323L376.828 404.375L423.937 404.375Z" stroke="#1A1A1A" stroke-width="2" stroke-linejoin="round"/>
<path d="M423.945 739.953L447.5 781.901L423.945 823.848H376.836L353.281 781.901L376.836 739.953L423.945 739.953Z" stroke="#1A1A1A" stroke-width="2" stroke-linejoin="round"/>
<path d="M282.617 -15.0996L306.172 26.8479L282.617 68.7954H235.508L211.953 26.8479L235.508 -15.0996L282.617 -15.0996Z" stroke="#1A1A1A" stroke-width="2" stroke-linejoin="round"/>
<path d="M565.25 -15.0996L588.805 26.8479L565.25 68.7954H518.141L494.586 26.8479L518.141 -15.0996L565.25 -15.0996Z" stroke="#1A1A1A" stroke-width="2" stroke-linejoin="round"/>
<path d="M989.164 -15.0996L1012.72 26.8479L989.164 68.7954H942.055L918.5 26.8479L942.055 -15.0996L989.164 -15.0996Z" stroke="#1A1A1A" stroke-width="2" stroke-linejoin="round"/>
<path d="M706.555 -15.0996L730.109 26.8479L706.555 68.7954H659.445L635.891 26.8479L659.445 -15.0996L706.555 -15.0996Z" stroke="#1A1A1A" stroke-width="2" stroke-linejoin="round"/>
<path d="M1130.48 -15.0996L1154.03 26.8479L1130.48 68.7954H1083.37L1059.81 26.8479L1083.37 -15.0996L1130.48 -15.0996Z" stroke="#1A1A1A" stroke-width="2" stroke-linejoin="round"/>
<path d="M847.859 -15.0996L871.414 26.8479L847.859 68.7954H800.75L777.195 26.8479L800.75 -15.0996L847.859 -15.0996Z" stroke="#1A1A1A" stroke-width="2" stroke-linejoin="round"/>
<path d="M1271.78 -15.0996L1295.34 26.8479L1271.78 68.7954H1224.67L1201.12 26.8479L1224.67 -15.0996L1271.78 -15.0996Z" stroke="#1A1A1A" stroke-width="2" stroke-linejoin="round"/>
<path d="M282.609 152.691L306.164 194.639L282.609 236.586H235.5L211.945 194.639L235.5 152.691L282.609 152.691Z" stroke="#1A1A1A" stroke-width="2" stroke-linejoin="round"/>
<path d="M282.609 404.375L306.164 446.323L282.609 488.27H235.5L211.945 446.323L235.5 404.375L282.609 404.375Z" stroke="#1A1A1A" stroke-width="2" stroke-linejoin="round"/>
<path d="M282.617 739.953L306.172 781.901L282.617 823.848H235.508L211.953 781.901L235.508 739.953L282.617 739.953Z" stroke="#1A1A1A" stroke-width="2" stroke-linejoin="round"/>
<path d="M565.242 152.691L588.797 194.639L565.242 236.586H518.133L494.578 194.639L518.133 152.691L565.242 152.691Z" stroke="#1A1A1A" stroke-width="2" stroke-linejoin="round"/>
<path d="M989.164 152.691L1012.72 194.639L989.164 236.586H942.055L918.5 194.639L942.055 152.691L989.164 152.691Z" stroke="#1A1A1A" stroke-width="2" stroke-linejoin="round"/>
<path d="M565.242 404.375L588.797 446.323L565.242 488.27H518.133L494.578 446.323L518.133 404.375L565.242 404.375Z" stroke="#1A1A1A" stroke-width="2" stroke-linejoin="round"/>
<path d="M565.242 739.953L588.797 781.901L565.242 823.848H518.133L494.578 781.901L518.133 739.953L565.242 739.953Z" stroke="#1A1A1A" stroke-width="2" stroke-linejoin="round"/>
<path d="M989.164 404.375L1012.72 446.323L989.164 488.27H942.055L918.5 446.323L942.055 404.375L989.164 404.375Z" stroke="#1A1A1A" stroke-width="2" stroke-linejoin="round"/>
<path d="M989.164 739.953L1012.72 781.901L989.164 823.848H942.055L918.5 781.901L942.055 739.953L989.164 739.953Z" stroke="#1A1A1A" stroke-width="2" stroke-linejoin="round"/>
<path d="M706.547 152.691L730.101 194.639L706.547 236.586H659.437L635.883 194.639L659.437 152.691L706.547 152.691Z" stroke="#1A1A1A" stroke-width="2" stroke-linejoin="round"/>
<path d="M1130.47 152.691L1154.02 194.639L1130.47 236.586H1083.36L1059.8 194.639L1083.36 152.691L1130.47 152.691Z" stroke="#1A1A1A" stroke-width="2" stroke-linejoin="round"/>
<path d="M706.547 404.375L730.101 446.323L706.547 488.27H659.437L635.883 446.323L659.437 404.375L706.547 404.375Z" stroke="#1A1A1A" stroke-width="2" stroke-linejoin="round"/>
<path d="M706.555 739.953L730.109 781.901L706.555 823.848H659.445L635.891 781.901L659.445 739.953L706.555 739.953Z" stroke="#1A1A1A" stroke-width="2" stroke-linejoin="round"/>
<path d="M1130.47 404.375L1154.02 446.323L1130.47 488.27H1083.36L1059.8 446.323L1083.36 404.375L1130.47 404.375Z" stroke="#1A1A1A" stroke-width="2" stroke-linejoin="round"/>
<path d="M1130.48 739.953L1154.03 781.901L1130.48 823.848H1083.37L1059.81 781.901L1083.37 739.953L1130.48 739.953Z" stroke="#1A1A1A" stroke-width="2" stroke-linejoin="round"/>
<path d="M847.859 152.691L871.414 194.639L847.859 236.586H800.75L777.195 194.639L800.75 152.691L847.859 152.691Z" stroke="#1A1A1A" stroke-width="2" stroke-linejoin="round"/>
<path d="M1271.78 152.691L1295.34 194.639L1271.78 236.586H1224.67L1201.12 194.639L1224.67 152.691L1271.78 152.691Z" stroke="#1A1A1A" stroke-width="2" stroke-linejoin="round"/>
<path d="M847.859 404.375L871.414 446.323L847.859 488.27H800.75L777.195 446.323L800.75 404.375L847.859 404.375Z" stroke="#1A1A1A" stroke-width="2" stroke-linejoin="round"/>
<path d="M847.859 739.953L871.414 781.901L847.859 823.848H800.75L777.195 781.901L800.75 739.953L847.859 739.953Z" stroke="#1A1A1A" stroke-width="2" stroke-linejoin="round"/>
<path d="M1271.78 404.375L1295.34 446.323L1271.78 488.27H1224.67L1201.12 446.323L1224.67 404.375L1271.78 404.375Z" stroke="#1A1A1A" stroke-width="2" stroke-linejoin="round"/>
<path d="M1271.78 739.953L1295.34 781.901L1271.78 823.848H1224.67L1201.12 781.901L1224.67 739.953L1271.78 739.953Z" stroke="#1A1A1A" stroke-width="2" stroke-linejoin="round"/>
<path d="M164.859 110.742L141.305 152.69L164.859 194.637H211.969L235.523 152.69L211.969 110.742L164.859 110.742Z" stroke="#1A1A1A" stroke-width="2" stroke-linejoin="round"/>
<path d="M164.859 362.43L141.305 404.377L164.859 446.325H211.969L235.523 404.377L211.969 362.43L164.859 362.43Z" stroke="#1A1A1A" stroke-width="2" stroke-linejoin="round"/>
<path d="M164.867 698.004L141.313 739.951L164.867 781.899H211.977L235.531 739.951L211.977 698.004L164.867 698.004Z" stroke="#1A1A1A" stroke-width="2" stroke-linejoin="round"/>
<path d="M23.5548 110.742L9.12684e-05 152.69L23.5548 194.637H70.6641L94.2188 152.69L70.6641 110.742L23.5548 110.742Z" stroke="#1A1A1A" stroke-width="2" stroke-linejoin="round"/>
<path d="M23.5548 362.43L9.12684e-05 404.377L23.5548 446.325H70.6641L94.2188 404.377L70.6641 362.43L23.5548 362.43Z" stroke="#1A1A1A" stroke-width="2" stroke-linejoin="round"/>
<path d="M23.5548 698.004L9.12684e-05 739.951L23.5548 781.899H70.6641L94.2188 739.951L70.6641 698.004L23.5548 698.004Z" stroke="#1A1A1A" stroke-width="2" stroke-linejoin="round"/>
<path d="M447.492 110.742L423.938 152.69L447.492 194.637H494.602L518.156 152.69L494.602 110.742L447.492 110.742Z" stroke="#1A1A1A" stroke-width="2" stroke-linejoin="round"/>
<path d="M447.492 362.43L423.938 404.377L447.492 446.325H494.602L518.156 404.377L494.602 362.43L447.492 362.43Z" stroke="#1A1A1A" stroke-width="2" stroke-linejoin="round"/>
<path d="M447.492 698.004L423.938 739.951L447.492 781.899H494.602L518.156 739.951L494.602 698.004L447.492 698.004Z" stroke="#1A1A1A" stroke-width="2" stroke-linejoin="round"/>
<path d="M306.172 110.742L282.617 152.69L306.172 194.637H353.281L376.836 152.69L353.281 110.742L306.172 110.742Z" stroke="#1A1A1A" stroke-width="2" stroke-linejoin="round"/>
<path d="M306.172 362.43L282.617 404.377L306.172 446.325H353.281L376.836 404.377L353.281 362.43L306.172 362.43Z" stroke="#1A1A1A" stroke-width="2" stroke-linejoin="round"/>
<path d="M306.172 698.004L282.617 739.951L306.172 781.899H353.281L376.836 739.951L353.281 698.004L306.172 698.004Z" stroke="#1A1A1A" stroke-width="2" stroke-linejoin="round"/>
<path d="M588.797 110.742L565.242 152.69L588.797 194.637H635.906L659.461 152.69L635.906 110.742L588.797 110.742Z" stroke="#1A1A1A" stroke-width="2" stroke-linejoin="round"/>
<path d="M1012.72 110.742L989.164 152.69L1012.72 194.637H1059.83L1083.38 152.69L1059.83 110.742L1012.72 110.742Z" stroke="#1A1A1A" stroke-width="2" stroke-linejoin="round"/>
<path d="M588.797 362.43L565.242 404.377L588.797 446.325H635.906L659.461 404.377L635.906 362.43L588.797 362.43Z" stroke="#1A1A1A" stroke-width="2" stroke-linejoin="round"/>
<path d="M588.797 698.004L565.242 739.951L588.797 781.899H635.906L659.461 739.951L635.906 698.004L588.797 698.004Z" stroke="#1A1A1A" stroke-width="2" stroke-linejoin="round"/>
<path d="M1012.72 362.43L989.164 404.377L1012.72 446.325H1059.83L1083.38 404.377L1059.83 362.43L1012.72 362.43Z" stroke="#1A1A1A" stroke-width="2" stroke-linejoin="round"/>
<path d="M1012.73 698.004L989.172 739.951L1012.73 781.899H1059.84L1083.39 739.951L1059.84 698.004L1012.73 698.004Z" stroke="#1A1A1A" stroke-width="2" stroke-linejoin="round"/>
<path d="M730.109 110.742L706.555 152.69L730.109 194.637H777.219L800.773 152.69L777.219 110.742L730.109 110.742Z" stroke="#1A1A1A" stroke-width="2" stroke-linejoin="round"/>
<path d="M1154.02 110.742L1130.47 152.69L1154.02 194.637H1201.13L1224.69 152.69L1201.13 110.742L1154.02 110.742Z" stroke="#1A1A1A" stroke-width="2" stroke-linejoin="round"/>
<path d="M730.109 362.43L706.555 404.377L730.109 446.325H777.219L800.773 404.377L777.219 362.43L730.109 362.43Z" stroke="#1A1A1A" stroke-width="2" stroke-linejoin="round"/>
<path d="M730.109 698.004L706.555 739.951L730.109 781.899H777.219L800.773 739.951L777.219 698.004L730.109 698.004Z" stroke="#1A1A1A" stroke-width="2" stroke-linejoin="round"/>
<path d="M1154.02 362.43L1130.47 404.377L1154.02 446.325H1201.13L1224.69 404.377L1201.13 362.43L1154.02 362.43Z" stroke="#1A1A1A" stroke-width="2" stroke-linejoin="round"/>
<path d="M1154.02 698.004L1130.47 739.951L1154.02 781.899H1201.13L1224.69 739.951L1201.13 698.004L1154.02 698.004Z" stroke="#1A1A1A" stroke-width="2" stroke-linejoin="round"/>
<path d="M871.414 110.742L847.859 152.69L871.414 194.637H918.523L942.078 152.69L918.523 110.742L871.414 110.742Z" stroke="#1A1A1A" stroke-width="2" stroke-linejoin="round"/>
<path d="M1295.34 110.742L1271.78 152.69L1295.34 194.637H1342.45L1366 152.69L1342.45 110.742L1295.34 110.742Z" stroke="#1A1A1A" stroke-width="2" stroke-linejoin="round"/>
<path d="M871.414 362.43L847.859 404.377L871.414 446.325H918.523L942.078 404.377L918.523 362.43L871.414 362.43Z" stroke="#1A1A1A" stroke-width="2" stroke-linejoin="round"/>
<path d="M871.414 698.004L847.859 739.951L871.414 781.899H918.523L942.078 739.951L918.523 698.004L871.414 698.004Z" stroke="#1A1A1A" stroke-width="2" stroke-linejoin="round"/>
<path d="M1295.34 362.43L1271.78 404.377L1295.34 446.325H1342.45L1366 404.377L1342.45 362.43L1295.34 362.43Z" stroke="#1A1A1A" stroke-width="2" stroke-linejoin="round"/>
<path d="M1295.34 698.004L1271.78 739.951L1295.34 781.899H1342.45L1366 739.951L1342.45 698.004L1295.34 698.004Z" stroke="#1A1A1A" stroke-width="2" stroke-linejoin="round"/>
<path d="M164.859 26.8477L141.305 68.7952L164.859 110.743H211.969L235.523 68.7952L211.969 26.8477L164.859 26.8477Z" stroke="#1A1A1A" stroke-width="2" stroke-linejoin="round"/>
<path d="M23.5548 26.8477L9.12684e-05 68.7952L23.5548 110.743H70.6641L94.2188 68.7952L70.6641 26.8477L23.5548 26.8477Z" stroke="#1A1A1A" stroke-width="2" stroke-linejoin="round"/>
<path d="M447.492 26.8477L423.938 68.7952L447.492 110.743H494.602L518.156 68.7952L494.602 26.8477L447.492 26.8477Z" stroke="#1A1A1A" stroke-width="2" stroke-linejoin="round"/>
<path d="M164.859 194.641L141.305 236.588L164.859 278.536H211.969L235.523 236.588L211.969 194.641L164.859 194.641Z" fill="url(#paint1_linear_144_11870)" stroke="#1A1A1A" stroke-width="2" stroke-linejoin="round"/>
<path d="M164.859 446.32L141.305 488.268L164.859 530.215H211.969L235.523 488.268L211.969 446.32L164.859 446.32Z" stroke="#1A1A1A" stroke-width="2" stroke-linejoin="round"/>
<path d="M164.867 781.898L141.313 823.846L164.867 865.793H211.977L235.531 823.846L211.977 781.898L164.867 781.898Z" stroke="#1A1A1A" stroke-width="2" stroke-linejoin="round"/>
<path d="M164.867 949.688L141.313 991.635L164.867 1033.58H211.977L235.531 991.635L211.977 949.688L164.867 949.688Z" stroke="#1A1A1A" stroke-width="2" stroke-linejoin="round"/>
<path d="M164.867 1117.48L141.313 1159.42L164.867 1201.37H211.977L235.531 1159.42L211.977 1117.48L164.867 1117.48Z" stroke="#1A1A1A" stroke-width="2" stroke-linejoin="round"/>
<path d="M164.867 1285.27L141.313 1327.21L164.867 1369.16H211.977L235.531 1327.21L211.977 1285.27L164.867 1285.27Z" stroke="#1A1A1A" stroke-width="2" stroke-linejoin="round"/>
<path d="M23.5548 194.641L9.12684e-05 236.588L23.5548 278.536H70.6641L94.2188 236.588L70.6641 194.641L23.5548 194.641Z" stroke="#1A1A1A" stroke-width="2" stroke-linejoin="round"/>
<path d="M23.5548 446.32L9.12684e-05 488.268L23.5548 530.215H70.6641L94.2188 488.268L70.6641 446.32L23.5548 446.32Z" stroke="#1A1A1A" stroke-width="2" stroke-linejoin="round"/>
<path d="M23.5548 781.898L9.12684e-05 823.846L23.5548 865.793H70.6641L94.2188 823.846L70.6641 781.898L23.5548 781.898Z" stroke="#1A1A1A" stroke-width="2" stroke-linejoin="round"/>
<path d="M23.5548 949.688L9.12684e-05 991.635L23.5548 1033.58H70.6641L94.2188 991.635L70.6641 949.688L23.5548 949.688Z" stroke="#1A1A1A" stroke-width="2" stroke-linejoin="round"/>
<path d="M23.5548 1117.48L9.12684e-05 1159.42L23.5548 1201.37H70.6641L94.2188 1159.42L70.6641 1117.48L23.5548 1117.48Z" stroke="#1A1A1A" stroke-width="2" stroke-linejoin="round"/>
<path d="M23.5548 1285.27L9.12684e-05 1327.21L23.5548 1369.16H70.6641L94.2188 1327.21L70.6641 1285.27L23.5548 1285.27Z" stroke="#1A1A1A" stroke-width="2" stroke-linejoin="round"/>
<path d="M164.859 278.531L141.305 320.479L164.859 362.426H211.969L235.523 320.479L211.969 278.531L164.859 278.531Z" stroke="#1A1A1A" stroke-width="2" stroke-linejoin="round"/>
<path d="M164.859 614.109L141.305 656.057L164.859 698.004H211.969L235.523 656.057L211.969 614.109L164.859 614.109Z" stroke="#1A1A1A" stroke-width="2" stroke-linejoin="round"/>
<path d="M164.859 530.219L141.305 572.166L164.859 614.114H211.969L235.523 572.166L211.969 530.219L164.859 530.219Z" stroke="#1A1A1A" stroke-width="2" stroke-linejoin="round"/>
<path d="M164.867 865.797L141.313 907.744L164.867 949.692H211.977L235.531 907.744L211.977 865.797L164.867 865.797Z" stroke="#1A1A1A" stroke-width="2" stroke-linejoin="round"/>
<path d="M164.867 1033.58L141.313 1075.53L164.867 1117.48H211.977L235.531 1075.53L211.977 1033.58L164.867 1033.58Z" stroke="#1A1A1A" stroke-width="2" stroke-linejoin="round"/>
<path d="M164.867 1201.37L141.313 1243.32L164.867 1285.27H211.977L235.531 1243.32L211.977 1201.37L164.867 1201.37Z" stroke="#1A1A1A" stroke-width="2" stroke-linejoin="round"/>
<path d="M23.5548 278.531L9.12684e-05 320.479L23.5548 362.426H70.6641L94.2188 320.479L70.6641 278.531L23.5548 278.531Z" stroke="#1A1A1A" stroke-width="2" stroke-linejoin="round"/>
<path d="M23.5548 614.109L9.12684e-05 656.057L23.5548 698.004H70.6641L94.2188 656.057L70.6641 614.109L23.5548 614.109Z" stroke="#1A1A1A" stroke-width="2" stroke-linejoin="round"/>
<path d="M23.5548 530.219L9.12684e-05 572.166L23.5548 614.114H70.6641L94.2188 572.166L70.6641 530.219L23.5548 530.219Z" stroke="#1A1A1A" stroke-width="2" stroke-linejoin="round"/>
<path d="M23.5548 865.793L9.12684e-05 907.74L23.5548 949.688H70.6641L94.2188 907.74L70.6641 865.793L23.5548 865.793Z" stroke="#1A1A1A" stroke-width="2" stroke-linejoin="round"/>
<path d="M23.5548 1033.58L9.12684e-05 1075.53L23.5548 1117.48H70.6641L94.2188 1075.53L70.6641 1033.58L23.5548 1033.58Z" stroke="#1A1A1A" stroke-width="2" stroke-linejoin="round"/>
<path d="M23.5548 1201.37L9.12684e-05 1243.32L23.5548 1285.27H70.6641L94.2188 1243.32L70.6641 1201.37L23.5548 1201.37Z" stroke="#1A1A1A" stroke-width="2" stroke-linejoin="round"/>
<path d="M447.492 194.641L423.938 236.588L447.492 278.536H494.602L518.156 236.588L494.602 194.641L447.492 194.641Z" stroke="#1A1A1A" stroke-width="2" stroke-linejoin="round"/>
<path d="M447.492 446.32L423.938 488.268L447.492 530.215H494.602L518.156 488.268L494.602 446.32L447.492 446.32Z" stroke="#1A1A1A" stroke-width="2" stroke-linejoin="round"/>
<path d="M447.492 781.898L423.938 823.846L447.492 865.793H494.602L518.156 823.846L494.602 781.898L447.492 781.898Z" stroke="#1A1A1A" stroke-width="2" stroke-linejoin="round"/>
<path d="M447.492 949.688L423.938 991.635L447.492 1033.58H494.602L518.156 991.635L494.602 949.688L447.492 949.688Z" stroke="#1A1A1A" stroke-width="2" stroke-linejoin="round"/>
<path d="M447.492 1117.48L423.938 1159.42L447.492 1201.37H494.602L518.156 1159.42L494.602 1117.48L447.492 1117.48Z" stroke="#1A1A1A" stroke-width="2" stroke-linejoin="round"/>
<path d="M447.492 1285.27L423.938 1327.21L447.492 1369.16H494.602L518.156 1327.21L494.602 1285.27L447.492 1285.27Z" stroke="#1A1A1A" stroke-width="2" stroke-linejoin="round"/>
<path d="M447.492 278.531L423.938 320.479L447.492 362.426H494.602L518.156 320.479L494.602 278.531L447.492 278.531Z" stroke="#1A1A1A" stroke-width="2" stroke-linejoin="round"/>
<path d="M447.492 614.109L423.938 656.057L447.492 698.004H494.602L518.156 656.057L494.602 614.109L447.492 614.109Z" stroke="#1A1A1A" stroke-width="2" stroke-linejoin="round"/>
<path d="M447.492 530.219L423.938 572.166L447.492 614.114H494.602L518.156 572.166L494.602 530.219L447.492 530.219Z" stroke="#1A1A1A" stroke-width="2" stroke-linejoin="round"/>
<path d="M447.492 865.793L423.938 907.74L447.492 949.688H494.602L518.156 907.74L494.602 865.793L447.492 865.793Z" stroke="#1A1A1A" stroke-width="2" stroke-linejoin="round"/>
<path d="M447.492 1033.58L423.938 1075.53L447.492 1117.48H494.602L518.156 1075.53L494.602 1033.58L447.492 1033.58Z" stroke="#1A1A1A" stroke-width="2" stroke-linejoin="round"/>
<path d="M447.492 1201.37L423.938 1243.32L447.492 1285.27H494.602L518.156 1243.32L494.602 1201.37L447.492 1201.37Z" stroke="#1A1A1A" stroke-width="2" stroke-linejoin="round"/>
<path d="M306.172 26.8477L282.617 68.7952L306.172 110.743H353.281L376.836 68.7952L353.281 26.8477L306.172 26.8477Z" stroke="#1A1A1A" stroke-width="2" stroke-linejoin="round"/>
<path d="M588.797 26.8477L565.242 68.7952L588.797 110.743H635.906L659.461 68.7952L635.906 26.8477L588.797 26.8477Z" stroke="#1A1A1A" stroke-width="2" stroke-linejoin="round"/>
<path d="M1012.72 26.8477L989.164 68.7952L1012.72 110.743H1059.83L1083.38 68.7952L1059.83 26.8477L1012.72 26.8477Z" stroke="#1A1A1A" stroke-width="2" stroke-linejoin="round"/>
<path d="M730.109 26.8477L706.555 68.7952L730.109 110.743H777.219L800.773 68.7952L777.219 26.8477L730.109 26.8477Z" stroke="#1A1A1A" stroke-width="2" stroke-linejoin="round"/>
<path d="M1154.02 26.8477L1130.47 68.7952L1154.02 110.743H1201.13L1224.69 68.7952L1201.13 26.8477L1154.02 26.8477Z" stroke="#1A1A1A" stroke-width="2" stroke-linejoin="round"/>
<path d="M871.414 26.8477L847.859 68.7952L871.414 110.743H918.523L942.078 68.7952L918.523 26.8477L871.414 26.8477Z" stroke="#1A1A1A" stroke-width="2" stroke-linejoin="round"/>
<path d="M1295.34 26.8477L1271.78 68.7952L1295.34 110.743H1342.45L1366 68.7952L1342.45 26.8477L1295.34 26.8477Z" stroke="#1A1A1A" stroke-width="2" stroke-linejoin="round"/>
<path d="M306.172 194.641L282.617 236.588L306.172 278.536H353.281L376.836 236.588L353.281 194.641L306.172 194.641Z" stroke="#1A1A1A" stroke-width="2" stroke-linejoin="round"/>
<path d="M306.172 446.32L282.617 488.268L306.172 530.215H353.281L376.836 488.268L353.281 446.32L306.172 446.32Z" stroke="#1A1A1A" stroke-width="2" stroke-linejoin="round"/>
<path d="M306.172 781.898L282.617 823.846L306.172 865.793H353.281L376.836 823.846L353.281 781.898L306.172 781.898Z" stroke="#1A1A1A" stroke-width="2" stroke-linejoin="round"/>
<path d="M306.172 949.688L282.617 991.635L306.172 1033.58H353.281L376.836 991.635L353.281 949.688L306.172 949.688Z" stroke="#1A1A1A" stroke-width="2" stroke-linejoin="round"/>
<path d="M306.172 1117.48L282.617 1159.42L306.172 1201.37H353.281L376.836 1159.42L353.281 1117.48L306.172 1117.48Z" stroke="#1A1A1A" stroke-width="2" stroke-linejoin="round"/>
<path d="M306.172 1285.27L282.617 1327.21L306.172 1369.16H353.281L376.836 1327.21L353.281 1285.27L306.172 1285.27Z" stroke="#1A1A1A" stroke-width="2" stroke-linejoin="round"/>
<path d="M306.172 278.531L282.617 320.479L306.172 362.426H353.281L376.836 320.479L353.281 278.531L306.172 278.531Z" stroke="#1A1A1A" stroke-width="2" stroke-linejoin="round"/>
<path d="M306.172 614.109L282.617 656.057L306.172 698.004H353.281L376.836 656.057L353.281 614.109L306.172 614.109Z" stroke="#1A1A1A" stroke-width="2" stroke-linejoin="round"/>
<path d="M306.172 530.219L282.617 572.166L306.172 614.114H353.281L376.836 572.166L353.281 530.219L306.172 530.219Z" stroke="#1A1A1A" stroke-width="2" stroke-linejoin="round"/>
<path d="M306.172 865.793L282.617 907.74L306.172 949.688H353.281L376.836 907.74L353.281 865.793L306.172 865.793Z" stroke="#1A1A1A" stroke-width="2" stroke-linejoin="round"/>
<path d="M306.172 1033.58L282.617 1075.53L306.172 1117.48H353.281L376.836 1075.53L353.281 1033.58L306.172 1033.58Z" stroke="#1A1A1A" stroke-width="2" stroke-linejoin="round"/>
<path d="M306.172 1201.37L282.617 1243.32L306.172 1285.27H353.281L376.836 1243.32L353.281 1201.37L306.172 1201.37Z" stroke="#1A1A1A" stroke-width="2" stroke-linejoin="round"/>
<path d="M588.797 194.641L565.242 236.588L588.797 278.536H635.906L659.461 236.588L635.906 194.641L588.797 194.641Z" stroke="#1A1A1A" stroke-width="2" stroke-linejoin="round"/>
<path d="M1012.72 194.641L989.164 236.588L1012.72 278.536H1059.83L1083.38 236.588L1059.83 194.641L1012.72 194.641Z" stroke="#1A1A1A" stroke-width="2" stroke-linejoin="round"/>
<path d="M588.797 446.32L565.242 488.268L588.797 530.215H635.906L659.461 488.268L635.906 446.32L588.797 446.32Z" stroke="#1A1A1A" stroke-width="2" stroke-linejoin="round"/>
<path d="M588.797 781.898L565.242 823.846L588.797 865.793H635.906L659.461 823.846L635.906 781.898L588.797 781.898Z" stroke="#1A1A1A" stroke-width="2" stroke-linejoin="round"/>
<path d="M588.797 949.688L565.242 991.635L588.797 1033.58H635.906L659.461 991.635L635.906 949.688L588.797 949.688Z" stroke="#1A1A1A" stroke-width="2" stroke-linejoin="round"/>
<path d="M588.797 1117.48L565.242 1159.42L588.797 1201.37H635.906L659.461 1159.42L635.906 1117.48L588.797 1117.48Z" stroke="#1A1A1A" stroke-width="2" stroke-linejoin="round"/>
<path d="M588.797 1285.27L565.242 1327.21L588.797 1369.16H635.906L659.461 1327.21L635.906 1285.27L588.797 1285.27Z" stroke="#1A1A1A" stroke-width="2" stroke-linejoin="round"/>
<path d="M1012.72 446.32L989.164 488.268L1012.72 530.215H1059.83L1083.38 488.268L1059.83 446.32L1012.72 446.32Z" stroke="#1A1A1A" stroke-width="2" stroke-linejoin="round"/>
<path d="M1012.73 781.898L989.172 823.846L1012.73 865.793H1059.84L1083.39 823.846L1059.84 781.898L1012.73 781.898Z" stroke="#1A1A1A" stroke-width="2" stroke-linejoin="round"/>
<path d="M1012.73 949.688L989.172 991.635L1012.73 1033.58H1059.84L1083.39 991.635L1059.84 949.688L1012.73 949.688Z" stroke="#1A1A1A" stroke-width="2" stroke-linejoin="round"/>
<path d="M1012.73 1117.48L989.172 1159.42L1012.73 1201.37H1059.84L1083.39 1159.42L1059.84 1117.48L1012.73 1117.48Z" stroke="#1A1A1A" stroke-width="2" stroke-linejoin="round"/>
<path d="M1012.73 1285.27L989.172 1327.21L1012.73 1369.16H1059.84L1083.39 1327.21L1059.84 1285.27L1012.73 1285.27Z" stroke="#1A1A1A" stroke-width="2" stroke-linejoin="round"/>
<path d="M588.797 278.531L565.242 320.479L588.797 362.426H635.906L659.461 320.479L635.906 278.531L588.797 278.531Z" stroke="#1A1A1A" stroke-width="2" stroke-linejoin="round"/>
<path d="M588.797 614.109L565.242 656.057L588.797 698.004H635.906L659.461 656.057L635.906 614.109L588.797 614.109Z" stroke="#1A1A1A" stroke-width="2" stroke-linejoin="round"/>
<path d="M1012.72 278.531L989.164 320.479L1012.72 362.426H1059.83L1083.38 320.479L1059.83 278.531L1012.72 278.531Z" stroke="#1A1A1A" stroke-width="2" stroke-linejoin="round"/>
<path d="M1012.72 614.109L989.164 656.057L1012.72 698.004H1059.83L1083.38 656.057L1059.83 614.109L1012.72 614.109Z" stroke="#1A1A1A" stroke-width="2" stroke-linejoin="round"/>
<path d="M588.797 530.219L565.242 572.166L588.797 614.114H635.906L659.461 572.166L635.906 530.219L588.797 530.219Z" stroke="#1A1A1A" stroke-width="2" stroke-linejoin="round"/>
<path d="M588.797 865.793L565.242 907.74L588.797 949.688H635.906L659.461 907.74L635.906 865.793L588.797 865.793Z" stroke="#1A1A1A" stroke-width="2" stroke-linejoin="round"/>
<path d="M588.797 1033.58L565.242 1075.53L588.797 1117.48H635.906L659.461 1075.53L635.906 1033.58L588.797 1033.58Z" stroke="#1A1A1A" stroke-width="2" stroke-linejoin="round"/>
<path d="M588.797 1201.37L565.242 1243.32L588.797 1285.27H635.906L659.461 1243.32L635.906 1201.37L588.797 1201.37Z" stroke="#1A1A1A" stroke-width="2" stroke-linejoin="round"/>
<path d="M1012.72 530.219L989.164 572.166L1012.72 614.114H1059.83L1083.38 572.166L1059.83 530.219L1012.72 530.219Z" stroke="#1A1A1A" stroke-width="2" stroke-linejoin="round"/>
<path d="M1012.73 865.797L989.172 907.744L1012.73 949.692H1059.84L1083.39 907.744L1059.84 865.797L1012.73 865.797Z" stroke="#1A1A1A" stroke-width="2" stroke-linejoin="round"/>
<path d="M1012.73 1033.58L989.172 1075.53L1012.73 1117.48H1059.84L1083.39 1075.53L1059.84 1033.58L1012.73 1033.58Z" stroke="#1A1A1A" stroke-width="2" stroke-linejoin="round"/>
<path d="M1012.73 1201.37L989.172 1243.32L1012.73 1285.27H1059.84L1083.39 1243.32L1059.84 1201.37L1012.73 1201.37Z" stroke="#1A1A1A" stroke-width="2" stroke-linejoin="round"/>
<path d="M730.109 194.641L706.555 236.588L730.109 278.536H777.219L800.773 236.588L777.219 194.641L730.109 194.641Z" stroke="#1A1A1A" stroke-width="2" stroke-linejoin="round"/>
<path d="M1154.02 194.641L1130.47 236.588L1154.02 278.536H1201.13L1224.69 236.588L1201.13 194.641L1154.02 194.641Z" stroke="#1A1A1A" stroke-width="2" stroke-linejoin="round"/>
<path d="M730.109 446.32L706.555 488.268L730.109 530.215H777.219L800.773 488.268L777.219 446.32L730.109 446.32Z" stroke="#1A1A1A" stroke-width="2" stroke-linejoin="round"/>
<path d="M730.109 781.898L706.555 823.846L730.109 865.793H777.219L800.773 823.846L777.219 781.898L730.109 781.898Z" stroke="#1A1A1A" stroke-width="2" stroke-linejoin="round"/>
<path d="M730.109 949.688L706.555 991.635L730.109 1033.58H777.219L800.773 991.635L777.219 949.688L730.109 949.688Z" stroke="#1A1A1A" stroke-width="2" stroke-linejoin="round"/>
<path d="M730.109 1117.48L706.555 1159.42L730.109 1201.37H777.219L800.773 1159.42L777.219 1117.48L730.109 1117.48Z" stroke="#1A1A1A" stroke-width="2" stroke-linejoin="round"/>
<path d="M730.109 1285.27L706.555 1327.21L730.109 1369.16H777.219L800.773 1327.21L777.219 1285.27L730.109 1285.27Z" stroke="#1A1A1A" stroke-width="2" stroke-linejoin="round"/>
<path d="M1154.02 446.32L1130.47 488.268L1154.02 530.215H1201.13L1224.69 488.268L1201.13 446.32L1154.02 446.32Z" stroke="#1A1A1A" stroke-width="2" stroke-linejoin="round"/>
<path d="M1154.02 781.898L1130.47 823.846L1154.02 865.793H1201.13L1224.69 823.846L1201.13 781.898L1154.02 781.898Z" stroke="#1A1A1A" stroke-width="2" stroke-linejoin="round"/>
<path d="M1154.02 949.688L1130.47 991.635L1154.02 1033.58H1201.13L1224.69 991.635L1201.13 949.688L1154.02 949.688Z" stroke="#1A1A1A" stroke-width="2" stroke-linejoin="round"/>
<path d="M1154.02 1117.48L1130.47 1159.42L1154.02 1201.37H1201.13L1224.69 1159.42L1201.13 1117.48L1154.02 1117.48Z" stroke="#1A1A1A" stroke-width="2" stroke-linejoin="round"/>
<path d="M1154.02 1285.27L1130.47 1327.21L1154.02 1369.16H1201.13L1224.69 1327.21L1201.13 1285.27L1154.02 1285.27Z" stroke="#1A1A1A" stroke-width="2" stroke-linejoin="round"/>
<path d="M871.414 194.641L847.859 236.588L871.414 278.536H918.523L942.078 236.588L918.523 194.641L871.414 194.641Z" stroke="#1A1A1A" stroke-width="2" stroke-linejoin="round"/>
<path d="M1295.34 194.641L1271.78 236.588L1295.34 278.536H1342.45L1366 236.588L1342.45 194.641L1295.34 194.641Z" stroke="#1A1A1A" stroke-width="2" stroke-linejoin="round"/>
<path d="M871.414 446.32L847.859 488.268L871.414 530.215H918.523L942.078 488.268L918.523 446.32L871.414 446.32Z" stroke="#1A1A1A" stroke-width="2" stroke-linejoin="round"/>
<path d="M871.414 781.898L847.859 823.846L871.414 865.793H918.523L942.078 823.846L918.523 781.898L871.414 781.898Z" stroke="#1A1A1A" stroke-width="2" stroke-linejoin="round"/>
<path d="M871.414 949.688L847.859 991.635L871.414 1033.58H918.523L942.078 991.635L918.523 949.688L871.414 949.688Z" stroke="#1A1A1A" stroke-width="2" stroke-linejoin="round"/>
<path d="M871.414 1117.48L847.859 1159.42L871.414 1201.37H918.523L942.078 1159.42L918.523 1117.48L871.414 1117.48Z" stroke="#1A1A1A" stroke-width="2" stroke-linejoin="round"/>
<path d="M871.414 1285.27L847.859 1327.21L871.414 1369.16H918.523L942.078 1327.21L918.523 1285.27L871.414 1285.27Z" stroke="#1A1A1A" stroke-width="2" stroke-linejoin="round"/>
<path d="M1295.34 446.32L1271.78 488.268L1295.34 530.215H1342.45L1366 488.268L1342.45 446.32L1295.34 446.32Z" stroke="#1A1A1A" stroke-width="2" stroke-linejoin="round"/>
<path d="M1295.34 781.898L1271.78 823.846L1295.34 865.793H1342.45L1366 823.846L1342.45 781.898L1295.34 781.898Z" stroke="#1A1A1A" stroke-width="2" stroke-linejoin="round"/>
<path d="M1295.34 949.688L1271.78 991.635L1295.34 1033.58H1342.45L1366 991.635L1342.45 949.688L1295.34 949.688Z" stroke="#1A1A1A" stroke-width="2" stroke-linejoin="round"/>
<path d="M1295.34 1117.48L1271.78 1159.42L1295.34 1201.37H1342.45L1366 1159.42L1342.45 1117.48L1295.34 1117.48Z" stroke="#1A1A1A" stroke-width="2" stroke-linejoin="round"/>
<path d="M1295.34 1285.27L1271.78 1327.21L1295.34 1369.16H1342.45L1366 1327.21L1342.45 1285.27L1295.34 1285.27Z" stroke="#1A1A1A" stroke-width="2" stroke-linejoin="round"/>
<path d="M730.109 278.531L706.555 320.479L730.109 362.426H777.219L800.773 320.479L777.219 278.531L730.109 278.531Z" stroke="#1A1A1A" stroke-width="2" stroke-linejoin="round"/>
<path d="M730.109 614.109L706.555 656.057L730.109 698.004H777.219L800.773 656.057L777.219 614.109L730.109 614.109Z" stroke="#1A1A1A" stroke-width="2" stroke-linejoin="round"/>
<path d="M1154.02 614.109L1130.47 656.057L1154.02 698.004H1201.13L1224.69 656.057L1201.13 614.109L1154.02 614.109Z" stroke="#1A1A1A" stroke-width="2" stroke-linejoin="round"/>
<path d="M730.109 530.219L706.555 572.166L730.109 614.114H777.219L800.773 572.166L777.219 530.219L730.109 530.219Z" stroke="#1A1A1A" stroke-width="2" stroke-linejoin="round"/>
<path d="M730.109 865.793L706.555 907.74L730.109 949.688H777.219L800.773 907.74L777.219 865.793L730.109 865.793Z" stroke="#1A1A1A" stroke-width="2" stroke-linejoin="round"/>
<path d="M730.109 1033.58L706.555 1075.53L730.109 1117.48H777.219L800.773 1075.53L777.219 1033.58L730.109 1033.58Z" stroke="#1A1A1A" stroke-width="2" stroke-linejoin="round"/>
<path d="M730.109 1201.37L706.555 1243.32L730.109 1285.27H777.219L800.773 1243.32L777.219 1201.37L730.109 1201.37Z" stroke="#1A1A1A" stroke-width="2" stroke-linejoin="round"/>
<path d="M1154.02 530.219L1130.47 572.166L1154.02 614.114H1201.13L1224.69 572.166L1201.13 530.219L1154.02 530.219Z" stroke="#1A1A1A" stroke-width="2" stroke-linejoin="round"/>
<path d="M1154.02 865.797L1130.47 907.744L1154.02 949.692H1201.13L1224.69 907.744L1201.13 865.797L1154.02 865.797Z" stroke="#1A1A1A" stroke-width="2" stroke-linejoin="round"/>
<path d="M1154.02 1033.58L1130.47 1075.53L1154.02 1117.48H1201.13L1224.69 1075.53L1201.13 1033.58L1154.02 1033.58Z" stroke="#1A1A1A" stroke-width="2" stroke-linejoin="round"/>
<path d="M1154.02 1201.37L1130.47 1243.32L1154.02 1285.27H1201.13L1224.69 1243.32L1201.13 1201.37L1154.02 1201.37Z" stroke="#1A1A1A" stroke-width="2" stroke-linejoin="round"/>
<path d="M871.414 278.531L847.859 320.479L871.414 362.426H918.523L942.078 320.479L918.523 278.531L871.414 278.531Z" stroke="#1A1A1A" stroke-width="2" stroke-linejoin="round"/>
<path d="M871.414 614.109L847.859 656.057L871.414 698.004H918.523L942.078 656.057L918.523 614.109L871.414 614.109Z" stroke="#1A1A1A" stroke-width="2" stroke-linejoin="round"/>
<path d="M1295.34 278.531L1271.78 320.479L1295.34 362.426H1342.45L1366 320.479L1342.45 278.531L1295.34 278.531Z" stroke="#1A1A1A" stroke-width="2" stroke-linejoin="round"/>
<path d="M1295.34 614.109L1271.78 656.057L1295.34 698.004H1342.45L1366 656.057L1342.45 614.109L1295.34 614.109Z" stroke="#1A1A1A" stroke-width="2" stroke-linejoin="round"/>
<path d="M871.414 530.219L847.859 572.166L871.414 614.114H918.523L942.078 572.166L918.523 530.219L871.414 530.219Z" stroke="#1A1A1A" stroke-width="2" stroke-linejoin="round"/>
<path d="M871.414 865.797L847.859 907.744L871.414 949.692H918.523L942.078 907.744L918.523 865.797L871.414 865.797Z" stroke="#1A1A1A" stroke-width="2" stroke-linejoin="round"/>
<path d="M871.414 1033.58L847.859 1075.53L871.414 1117.48H918.523L942.078 1075.53L918.523 1033.58L871.414 1033.58Z" stroke="#1A1A1A" stroke-width="2" stroke-linejoin="round"/>
<path d="M871.414 1201.37L847.859 1243.32L871.414 1285.27H918.523L942.078 1243.32L918.523 1201.37L871.414 1201.37Z" stroke="#1A1A1A" stroke-width="2" stroke-linejoin="round"/>
<path d="M1295.34 530.219L1271.78 572.166L1295.34 614.114H1342.45L1366 572.166L1342.45 530.219L1295.34 530.219Z" stroke="#1A1A1A" stroke-width="2" stroke-linejoin="round"/>
<path d="M1295.34 865.793L1271.78 907.74L1295.34 949.688H1342.45L1366 907.74L1342.45 865.793L1295.34 865.793Z" stroke="#1A1A1A" stroke-width="2" stroke-linejoin="round"/>
<path d="M1295.34 1033.58L1271.78 1075.53L1295.34 1117.48H1342.45L1366 1075.53L1342.45 1033.58L1295.34 1033.58Z" stroke="#1A1A1A" stroke-width="2" stroke-linejoin="round"/>
<path d="M1295.34 1201.37L1271.78 1243.32L1295.34 1285.27H1342.45L1366 1243.32L1342.45 1201.37L1295.34 1201.37Z" stroke="#1A1A1A" stroke-width="2" stroke-linejoin="round"/>
<path d="M164.867 -57.0469L141.313 -15.0994L164.867 26.8481H211.977L235.531 -15.0994L211.977 -57.0469L164.867 -57.0469Z" stroke="#1A1A1A" stroke-width="2" stroke-linejoin="round"/>
<path d="M23.5548 -57.0469L9.12684e-05 -15.0994L23.5548 26.8481H70.6641L94.2188 -15.0994L70.6641 -57.0469L23.5548 -57.0469Z" stroke="#1A1A1A" stroke-width="2" stroke-linejoin="round"/>
<path d="M447.492 -57.0469L423.938 -15.0994L447.492 26.8481H494.602L518.156 -15.0994L494.602 -57.0469L447.492 -57.0469Z" stroke="#1A1A1A" stroke-width="2" stroke-linejoin="round"/>
<path d="M306.172 -57.0469L282.617 -15.0994L306.172 26.8481H353.281L376.836 -15.0994L353.281 -57.0469L306.172 -57.0469Z" stroke="#1A1A1A" stroke-width="2" stroke-linejoin="round"/>
<path d="M588.797 -57.0469L565.242 -15.0994L588.797 26.8481H635.906L659.461 -15.0994L635.906 -57.0469L588.797 -57.0469Z" stroke="#1A1A1A" stroke-width="2" stroke-linejoin="round"/>
<path d="M1012.72 -57.0469L989.164 -15.0994L1012.72 26.8481H1059.83L1083.38 -15.0994L1059.83 -57.0469L1012.72 -57.0469Z" stroke="#1A1A1A" stroke-width="2" stroke-linejoin="round"/>
<path d="M730.109 -57.0449L706.555 -15.0974L730.109 26.8501H777.219L800.773 -15.0974L777.219 -57.0449L730.109 -57.0449Z" stroke="#1A1A1A" stroke-width="2" stroke-linejoin="round"/>
<path d="M1154.02 -57.0449L1130.47 -15.0974L1154.02 26.8501H1201.13L1224.69 -15.0974L1201.13 -57.0449L1154.02 -57.0449Z" stroke="#1A1A1A" stroke-width="2" stroke-linejoin="round"/>
<path d="M871.414 -57.0449L847.859 -15.0974L871.414 26.8501H918.523L942.078 -15.0974L918.523 -57.0449L871.414 -57.0449Z" stroke="#1A1A1A" stroke-width="2" stroke-linejoin="round"/>
<path d="M1295.34 -57.0449L1271.78 -15.0974L1295.34 26.8501H1342.45L1366 -15.0974L1342.45 -57.0449L1295.34 -57.0449Z" stroke="#1A1A1A" stroke-width="2" stroke-linejoin="round"/>
<path d="M141.312 68.7969L164.867 110.744L141.312 152.692H94.2031L70.6484 110.744L94.2031 68.7969L141.312 68.7969Z" stroke="#1A1A1A" stroke-width="2" stroke-linejoin="round"/>
<path d="M423.937 68.7969L447.492 110.744L423.937 152.692H376.828L353.273 110.744L376.828 68.7969L423.937 68.7969Z" stroke="#1A1A1A" stroke-width="2" stroke-linejoin="round"/>
<path d="M141.312 236.586L164.867 278.533L141.312 320.481H94.2031L70.6484 278.533L94.2031 236.586L141.312 236.586Z" stroke="#1A1A1A" stroke-width="2" stroke-linejoin="round"/>
<path d="M141.312 488.27L164.867 530.217L141.312 572.165H94.2031L70.6484 530.217L94.2031 488.27L141.312 488.27Z" stroke="#1A1A1A" stroke-width="2" stroke-linejoin="round"/>
<path d="M141.312 823.844L164.867 865.791L141.312 907.739H94.2031L70.6484 865.791L94.2031 823.844L141.312 823.844Z" stroke="#1A1A1A" stroke-width="2" stroke-linejoin="round"/>
<path d="M141.312 991.633L164.867 1033.58L141.312 1075.53H94.2031L70.6484 1033.58L94.2031 991.633L141.312 991.633Z" stroke="#1A1A1A" stroke-width="2" stroke-linejoin="round"/>
<path d="M141.312 1159.42L164.867 1201.37L141.312 1243.32H94.2031L70.6484 1201.37L94.2031 1159.42L141.312 1159.42Z" stroke="#1A1A1A" stroke-width="2" stroke-linejoin="round"/>
<path d="M141.312 320.48L164.867 362.428L141.312 404.375H94.2031L70.6484 362.428L94.2031 320.48L141.312 320.48Z" stroke="#1A1A1A" stroke-width="2" stroke-linejoin="round"/>
<path d="M141.312 656.059L164.867 698.006L141.312 739.954H94.2031L70.6484 698.006L94.2031 656.059L141.312 656.059Z" stroke="#1A1A1A" stroke-width="2" stroke-linejoin="round"/>
<path d="M141.312 572.164L164.867 614.112L141.312 656.059H94.2031L70.6484 614.112L94.2031 572.164L141.312 572.164Z" stroke="#1A1A1A" stroke-width="2" stroke-linejoin="round"/>
<path d="M141.312 907.742L164.867 949.69L141.312 991.637H94.2031L70.6484 949.69L94.2031 907.742L141.312 907.742Z" stroke="#1A1A1A" stroke-width="2" stroke-linejoin="round"/>
<path d="M141.312 1075.53L164.867 1117.48L141.312 1159.43H94.2031L70.6484 1117.48L94.2031 1075.53L141.312 1075.53Z" fill="url(#paint2_linear_144_11870)" stroke="#1A1A1A" stroke-width="2" stroke-linejoin="round"/>
<path d="M141.312 1243.32L164.867 1285.27L141.312 1327.22H94.2031L70.6484 1285.27L94.2031 1243.32L141.312 1243.32Z" stroke="#1A1A1A" stroke-width="2" stroke-linejoin="round"/>
<path d="M423.937 236.586L447.492 278.533L423.937 320.481H376.828L353.273 278.533L376.828 236.586L423.937 236.586Z" stroke="#1A1A1A" stroke-width="2" stroke-linejoin="round"/>
<path d="M423.937 488.27L447.492 530.217L423.937 572.165H376.828L353.273 530.217L376.828 488.27L423.937 488.27Z" stroke="#1A1A1A" stroke-width="2" stroke-linejoin="round"/>
<path d="M423.945 823.844L447.5 865.791L423.945 907.739H376.836L353.281 865.791L376.836 823.844L423.945 823.844Z" stroke="#1A1A1A" stroke-width="2" stroke-linejoin="round"/>
<path d="M423.945 991.633L447.5 1033.58L423.945 1075.53H376.836L353.281 1033.58L376.836 991.633L423.945 991.633Z" stroke="#1A1A1A" stroke-width="2" stroke-linejoin="round"/>
<path d="M423.945 1159.42L447.5 1201.37L423.945 1243.32H376.836L353.281 1201.37L376.836 1159.42L423.945 1159.42Z" stroke="#1A1A1A" stroke-width="2" stroke-linejoin="round"/>
<path d="M423.937 320.48L447.492 362.428L423.937 404.375H376.828L353.273 362.428L376.828 320.48L423.937 320.48Z" stroke="#1A1A1A" stroke-width="2" stroke-linejoin="round"/>
<path d="M423.945 656.059L447.5 698.006L423.945 739.954H376.836L353.281 698.006L376.836 656.059L423.945 656.059Z" stroke="#1A1A1A" stroke-width="2" stroke-linejoin="round"/>
<path d="M423.937 572.164L447.492 614.112L423.937 656.059H376.828L353.273 614.112L376.828 572.164L423.937 572.164Z" fill="url(#paint3_linear_144_11870)" stroke="#1A1A1A" stroke-width="2" stroke-linejoin="round"/>
<path d="M423.945 907.742L447.5 949.69L423.945 991.637H376.836L353.281 949.69L376.836 907.742L423.945 907.742Z" stroke="#1A1A1A" stroke-width="2" stroke-linejoin="round"/>
<path d="M423.945 1075.53L447.5 1117.48L423.945 1159.43H376.836L353.281 1117.48L376.836 1075.53L423.945 1075.53Z" stroke="#1A1A1A" stroke-width="2" stroke-linejoin="round"/>
<path d="M423.945 1243.32L447.5 1285.27L423.945 1327.22H376.836L353.281 1285.27L376.836 1243.32L423.945 1243.32Z" stroke="#1A1A1A" stroke-width="2" stroke-linejoin="round"/>
<path d="M282.617 68.7969L306.172 110.744L282.617 152.692H235.508L211.953 110.744L235.508 68.7969L282.617 68.7969Z" stroke="#1A1A1A" stroke-width="2" stroke-linejoin="round"/>
<path d="M565.25 68.7969L588.805 110.744L565.25 152.692H518.141L494.586 110.744L518.141 68.7969L565.25 68.7969Z" stroke="#1A1A1A" stroke-width="2" stroke-linejoin="round"/>
<path d="M989.164 68.7969L1012.72 110.744L989.164 152.692H942.055L918.5 110.744L942.055 68.7969L989.164 68.7969Z" stroke="#1A1A1A" stroke-width="2" stroke-linejoin="round"/>
<path d="M706.555 68.7969L730.109 110.744L706.555 152.692H659.445L635.891 110.744L659.445 68.7969L706.555 68.7969Z" stroke="#1A1A1A" stroke-width="2" stroke-linejoin="round"/>
<path d="M1130.48 68.7969L1154.03 110.744L1130.48 152.692H1083.37L1059.81 110.744L1083.37 68.7969L1130.48 68.7969Z" stroke="#1A1A1A" stroke-width="2" stroke-linejoin="round"/>
<path d="M847.859 68.7969L871.414 110.744L847.859 152.692H800.75L777.195 110.744L800.75 68.7969L847.859 68.7969Z" stroke="#1A1A1A" stroke-width="2" stroke-linejoin="round"/>
<path d="M1271.78 68.7969L1295.34 110.744L1271.78 152.692H1224.67L1201.12 110.744L1224.67 68.7969L1271.78 68.7969Z" stroke="#1A1A1A" stroke-width="2" stroke-linejoin="round"/>
<path d="M282.609 236.586L306.164 278.533L282.609 320.481H235.5L211.945 278.533L235.5 236.586L282.609 236.586Z" stroke="#1A1A1A" stroke-width="2" stroke-linejoin="round"/>
<path d="M282.609 488.27L306.164 530.217L282.609 572.165H235.5L211.945 530.217L235.5 488.27L282.609 488.27Z" stroke="#1A1A1A" stroke-width="2" stroke-linejoin="round"/>
<path d="M282.617 823.844L306.172 865.791L282.617 907.739H235.508L211.953 865.791L235.508 823.844L282.617 823.844Z" stroke="#1A1A1A" stroke-width="2" stroke-linejoin="round"/>
<path d="M282.617 991.633L306.172 1033.58L282.617 1075.53H235.508L211.953 1033.58L235.508 991.633L282.617 991.633Z" stroke="#1A1A1A" stroke-width="2" stroke-linejoin="round"/>
<path d="M282.617 1159.42L306.172 1201.37L282.617 1243.32H235.508L211.953 1201.37L235.508 1159.42L282.617 1159.42Z" stroke="#1A1A1A" stroke-width="2" stroke-linejoin="round"/>
<path d="M282.609 320.48L306.164 362.428L282.609 404.375H235.5L211.945 362.428L235.5 320.48L282.609 320.48Z" stroke="#1A1A1A" stroke-width="2" stroke-linejoin="round"/>
<path d="M282.617 656.059L306.172 698.006L282.617 739.954H235.508L211.953 698.006L235.508 656.059L282.617 656.059Z" stroke="#1A1A1A" stroke-width="2" stroke-linejoin="round"/>
<path d="M282.609 572.164L306.164 614.112L282.609 656.059H235.5L211.945 614.112L235.5 572.164L282.609 572.164Z" stroke="#1A1A1A" stroke-width="2" stroke-linejoin="round"/>
<path d="M282.617 907.742L306.172 949.69L282.617 991.637H235.508L211.953 949.69L235.508 907.742L282.617 907.742Z" stroke="#1A1A1A" stroke-width="2" stroke-linejoin="round"/>
<path d="M282.617 1075.53L306.172 1117.48L282.617 1159.43H235.508L211.953 1117.48L235.508 1075.53L282.617 1075.53Z" stroke="#1A1A1A" stroke-width="2" stroke-linejoin="round"/>
<path d="M282.617 1243.32L306.172 1285.27L282.617 1327.22H235.508L211.953 1285.27L235.508 1243.32L282.617 1243.32Z" stroke="#1A1A1A" stroke-width="2" stroke-linejoin="round"/>
<path d="M565.242 236.586L588.797 278.533L565.242 320.481H518.133L494.578 278.533L518.133 236.586L565.242 236.586Z" stroke="#1A1A1A" stroke-width="2" stroke-linejoin="round"/>
<path d="M989.164 236.586L1012.72 278.533L989.164 320.481H942.055L918.5 278.533L942.055 236.586L989.164 236.586Z" stroke="#1A1A1A" stroke-width="2" stroke-linejoin="round"/>
<path d="M565.242 488.27L588.797 530.217L565.242 572.165H518.133L494.578 530.217L518.133 488.27L565.242 488.27Z" stroke="#1A1A1A" stroke-width="2" stroke-linejoin="round"/>
<path d="M565.242 823.844L588.797 865.791L565.242 907.739H518.133L494.578 865.791L518.133 823.844L565.242 823.844Z" stroke="#1A1A1A" stroke-width="2" stroke-linejoin="round"/>
<path d="M565.242 991.633L588.797 1033.58L565.242 1075.53H518.133L494.578 1033.58L518.133 991.633L565.242 991.633Z" stroke="#1A1A1A" stroke-width="2" stroke-linejoin="round"/>
<path d="M565.242 1159.42L588.797 1201.37L565.242 1243.32H518.133L494.578 1201.37L518.133 1159.42L565.242 1159.42Z" stroke="#1A1A1A" stroke-width="2" stroke-linejoin="round"/>
<path d="M989.164 488.27L1012.72 530.217L989.164 572.165H942.055L918.5 530.217L942.055 488.27L989.164 488.27Z" stroke="#1A1A1A" stroke-width="2" stroke-linejoin="round"/>
<path d="M989.164 823.844L1012.72 865.791L989.164 907.739H942.055L918.5 865.791L942.055 823.844L989.164 823.844Z" stroke="#1A1A1A" stroke-width="2" stroke-linejoin="round"/>
<path d="M989.164 991.633L1012.72 1033.58L989.164 1075.53H942.055L918.5 1033.58L942.055 991.633L989.164 991.633Z" stroke="#1A1A1A" stroke-width="2" stroke-linejoin="round"/>
<path d="M989.164 1159.42L1012.72 1201.37L989.164 1243.32H942.055L918.5 1201.37L942.055 1159.42L989.164 1159.42Z" stroke="#1A1A1A" stroke-width="2" stroke-linejoin="round"/>
<path d="M565.242 320.48L588.797 362.428L565.242 404.375H518.133L494.578 362.428L518.133 320.48L565.242 320.48Z" stroke="#1A1A1A" stroke-width="2" stroke-linejoin="round"/>
<path d="M565.242 656.059L588.797 698.006L565.242 739.954H518.133L494.578 698.006L518.133 656.059L565.242 656.059Z" stroke="#1A1A1A" stroke-width="2" stroke-linejoin="round"/>
<path d="M989.164 320.48L1012.72 362.428L989.164 404.375H942.055L918.5 362.428L942.055 320.48L989.164 320.48Z" stroke="#1A1A1A" stroke-width="2" stroke-linejoin="round"/>
<path d="M989.164 656.059L1012.72 698.006L989.164 739.954H942.055L918.5 698.006L942.055 656.059L989.164 656.059Z" stroke="#1A1A1A" stroke-width="2" stroke-linejoin="round"/>
<path d="M565.242 572.164L588.797 614.112L565.242 656.059H518.133L494.578 614.112L518.133 572.164L565.242 572.164Z" stroke="#1A1A1A" stroke-width="2" stroke-linejoin="round"/>
<path d="M565.242 907.742L588.797 949.69L565.242 991.637H518.133L494.578 949.69L518.133 907.742L565.242 907.742Z" stroke="#1A1A1A" stroke-width="2" stroke-linejoin="round"/>
<path d="M565.242 1075.53L588.797 1117.48L565.242 1159.43H518.133L494.578 1117.48L518.133 1075.53L565.242 1075.53Z" stroke="#1A1A1A" stroke-width="2" stroke-linejoin="round"/>
<path d="M565.242 1243.32L588.797 1285.27L565.242 1327.22H518.133L494.578 1285.27L518.133 1243.32L565.242 1243.32Z" stroke="#1A1A1A" stroke-width="2" stroke-linejoin="round"/>
<path d="M989.164 572.164L1012.72 614.112L989.164 656.059H942.055L918.5 614.112L942.055 572.164L989.164 572.164Z" stroke="#1A1A1A" stroke-width="2" stroke-linejoin="round"/>
<path d="M989.164 907.742L1012.72 949.69L989.164 991.637H942.055L918.5 949.69L942.055 907.742L989.164 907.742Z" stroke="#1A1A1A" stroke-width="2" stroke-linejoin="round"/>
<path d="M989.164 1075.53L1012.72 1117.48L989.164 1159.43H942.055L918.5 1117.48L942.055 1075.53L989.164 1075.53Z" fill="url(#paint4_linear_144_11870)" stroke="#1A1A1A" stroke-width="2" stroke-linejoin="round"/>
<path d="M989.164 1243.32L1012.72 1285.27L989.164 1327.22H942.055L918.5 1285.27L942.055 1243.32L989.164 1243.32Z" stroke="#1A1A1A" stroke-width="2" stroke-linejoin="round"/>
<path d="M706.547 236.586L730.101 278.533L706.547 320.481H659.437L635.883 278.533L659.437 236.586L706.547 236.586Z" stroke="#1A1A1A" stroke-width="2" stroke-linejoin="round"/>
<path d="M1130.47 236.586L1154.02 278.533L1130.47 320.481H1083.36L1059.8 278.533L1083.36 236.586L1130.47 236.586Z" stroke="#1A1A1A" stroke-width="2" stroke-linejoin="round"/>
<path d="M706.547 488.273L730.101 530.221L706.547 572.168H659.437L635.883 530.221L659.437 488.273L706.547 488.273Z" stroke="#1A1A1A" stroke-width="2" stroke-linejoin="round"/>
<path d="M706.555 823.844L730.109 865.791L706.555 907.739H659.445L635.891 865.791L659.445 823.844L706.555 823.844Z" stroke="#1A1A1A" stroke-width="2" stroke-linejoin="round"/>
<path d="M706.555 991.633L730.109 1033.58L706.555 1075.53H659.445L635.891 1033.58L659.445 991.633L706.555 991.633Z" stroke="#1A1A1A" stroke-width="2" stroke-linejoin="round"/>
<path d="M706.555 1159.42L730.109 1201.37L706.555 1243.32H659.445L635.891 1201.37L659.445 1159.42L706.555 1159.42Z" stroke="#1A1A1A" stroke-width="2" stroke-linejoin="round"/>
<path d="M1130.47 488.273L1154.02 530.221L1130.47 572.168H1083.36L1059.8 530.221L1083.36 488.273L1130.47 488.273Z" stroke="#1A1A1A" stroke-width="2" stroke-linejoin="round"/>
<path d="M1130.48 823.844L1154.03 865.791L1130.48 907.739H1083.37L1059.81 865.791L1083.37 823.844L1130.48 823.844Z" stroke="#1A1A1A" stroke-width="2" stroke-linejoin="round"/>
<path d="M1130.48 991.633L1154.03 1033.58L1130.48 1075.53H1083.37L1059.81 1033.58L1083.37 991.633L1130.48 991.633Z" stroke="#1A1A1A" stroke-width="2" stroke-linejoin="round"/>
<path d="M1130.48 1159.42L1154.03 1201.37L1130.48 1243.32H1083.37L1059.81 1201.37L1083.37 1159.42L1130.48 1159.42Z" stroke="#1A1A1A" stroke-width="2" stroke-linejoin="round"/>
<path d="M847.859 236.586L871.414 278.533L847.859 320.481H800.75L777.195 278.533L800.75 236.586L847.859 236.586Z" fill="url(#paint5_linear_144_11870)" stroke="#1A1A1A" stroke-width="2" stroke-linejoin="round"/>
<path d="M1271.78 236.586L1295.34 278.533L1271.78 320.481H1224.67L1201.12 278.533L1224.67 236.586L1271.78 236.586Z" stroke="#1A1A1A" stroke-width="2" stroke-linejoin="round"/>
<path d="M847.859 488.273L871.414 530.221L847.859 572.168H800.75L777.195 530.221L800.75 488.273L847.859 488.273Z" stroke="#1A1A1A" stroke-width="2" stroke-linejoin="round"/>
<path d="M847.859 823.844L871.414 865.791L847.859 907.739H800.75L777.195 865.791L800.75 823.844L847.859 823.844Z" stroke="#1A1A1A" stroke-width="2" stroke-linejoin="round"/>
<path d="M847.859 991.633L871.414 1033.58L847.859 1075.53H800.75L777.195 1033.58L800.75 991.633L847.859 991.633Z" stroke="#1A1A1A" stroke-width="2" stroke-linejoin="round"/>
<path d="M847.859 1159.42L871.414 1201.37L847.859 1243.32H800.75L777.195 1201.37L800.75 1159.42L847.859 1159.42Z" stroke="#1A1A1A" stroke-width="2" stroke-linejoin="round"/>
<path d="M1271.78 488.273L1295.34 530.221L1271.78 572.168H1224.67L1201.12 530.221L1224.67 488.273L1271.78 488.273Z" stroke="#1A1A1A" stroke-width="2" stroke-linejoin="round"/>
<path d="M1271.78 823.844L1295.34 865.791L1271.78 907.739H1224.67L1201.12 865.791L1224.67 823.844L1271.78 823.844Z" stroke="#1A1A1A" stroke-width="2" stroke-linejoin="round"/>
<path d="M1271.78 991.633L1295.34 1033.58L1271.78 1075.53H1224.67L1201.12 1033.58L1224.67 991.633L1271.78 991.633Z" stroke="#1A1A1A" stroke-width="2" stroke-linejoin="round"/>
<path d="M1271.78 1159.42L1295.34 1201.37L1271.78 1243.32H1224.67L1201.12 1201.37L1224.67 1159.42L1271.78 1159.42Z" stroke="#1A1A1A" stroke-width="2" stroke-linejoin="round"/>
<path d="M706.547 320.48L730.101 362.428L706.547 404.375H659.437L635.883 362.428L659.437 320.48L706.547 320.48Z" stroke="#1A1A1A" stroke-width="2" stroke-linejoin="round"/>
<path d="M706.555 656.059L730.109 698.006L706.555 739.954H659.445L635.891 698.006L659.445 656.059L706.555 656.059Z" stroke="#1A1A1A" stroke-width="2" stroke-linejoin="round"/>
<path d="M1130.47 320.48L1154.02 362.428L1130.47 404.375H1083.36L1059.8 362.428L1083.36 320.48L1130.47 320.48Z" stroke="#1A1A1A" stroke-width="2" stroke-linejoin="round"/>
<path d="M1130.48 656.059L1154.03 698.006L1130.48 739.954H1083.37L1059.81 698.006L1083.37 656.059L1130.48 656.059Z" stroke="#1A1A1A" stroke-width="2" stroke-linejoin="round"/>
<path d="M706.547 572.164L730.101 614.112L706.547 656.059H659.437L635.883 614.112L659.437 572.164L706.547 572.164Z" stroke="#1A1A1A" stroke-width="2" stroke-linejoin="round"/>
<path d="M706.555 907.742L730.109 949.69L706.555 991.637H659.445L635.891 949.69L659.445 907.742L706.555 907.742Z" stroke="#1A1A1A" stroke-width="2" stroke-linejoin="round"/>
<path d="M706.555 1075.53L730.109 1117.48L706.555 1159.43H659.445L635.891 1117.48L659.445 1075.53L706.555 1075.53Z" stroke="#1A1A1A" stroke-width="2" stroke-linejoin="round"/>
<path d="M706.555 1243.32L730.109 1285.27L706.555 1327.22H659.445L635.891 1285.27L659.445 1243.32L706.555 1243.32Z" stroke="#1A1A1A" stroke-width="2" stroke-linejoin="round"/>
<path d="M1130.47 572.164L1154.02 614.112L1130.47 656.059H1083.36L1059.8 614.112L1083.36 572.164L1130.47 572.164Z" stroke="#1A1A1A" stroke-width="2" stroke-linejoin="round"/>
<path d="M1130.48 907.742L1154.03 949.69L1130.48 991.637H1083.37L1059.81 949.69L1083.37 907.742L1130.48 907.742Z" stroke="#1A1A1A" stroke-width="2" stroke-linejoin="round"/>
<path d="M1130.48 1075.53L1154.03 1117.48L1130.48 1159.43H1083.37L1059.81 1117.48L1083.37 1075.53L1130.48 1075.53Z" stroke="#1A1A1A" stroke-width="2" stroke-linejoin="round"/>
<path d="M1130.48 1243.32L1154.03 1285.27L1130.48 1327.22H1083.37L1059.81 1285.27L1083.37 1243.32L1130.48 1243.32Z" stroke="#1A1A1A" stroke-width="2" stroke-linejoin="round"/>
<path d="M847.859 320.48L871.414 362.428L847.859 404.375H800.75L777.195 362.428L800.75 320.48L847.859 320.48Z" stroke="#1A1A1A" stroke-width="2" stroke-linejoin="round"/>
<path d="M847.859 656.059L871.414 698.006L847.859 739.954H800.75L777.195 698.006L800.75 656.059L847.859 656.059Z" stroke="#1A1A1A" stroke-width="2" stroke-linejoin="round"/>
<path d="M1271.78 320.48L1295.34 362.428L1271.78 404.375H1224.67L1201.12 362.428L1224.67 320.48L1271.78 320.48Z" stroke="#1A1A1A" stroke-width="2" stroke-linejoin="round"/>
<path d="M1271.78 656.059L1295.34 698.006L1271.78 739.954H1224.67L1201.12 698.006L1224.67 656.059L1271.78 656.059Z" fill="url(#paint6_linear_144_11870)" stroke="#1A1A1A" stroke-width="2" stroke-linejoin="round"/>
<path d="M847.859 572.164L871.414 614.112L847.859 656.059H800.75L777.195 614.112L800.75 572.164L847.859 572.164Z" stroke="#1A1A1A" stroke-width="2" stroke-linejoin="round"/>
<path d="M847.859 907.742L871.414 949.69L847.859 991.637H800.75L777.195 949.69L800.75 907.742L847.859 907.742Z" stroke="#1A1A1A" stroke-width="2" stroke-linejoin="round"/>
<path d="M847.859 1075.53L871.414 1117.48L847.859 1159.43H800.75L777.195 1117.48L800.75 1075.53L847.859 1075.53Z" stroke="#1A1A1A" stroke-width="2" stroke-linejoin="round"/>
<path d="M847.859 1243.32L871.414 1285.27L847.859 1327.22H800.75L777.195 1285.27L800.75 1243.32L847.859 1243.32Z" stroke="#1A1A1A" stroke-width="2" stroke-linejoin="round"/>
<path d="M1271.78 572.164L1295.34 614.112L1271.78 656.059H1224.67L1201.12 614.112L1224.67 572.164L1271.78 572.164Z" stroke="#1A1A1A" stroke-width="2" stroke-linejoin="round"/>
<path d="M1271.78 907.742L1295.34 949.69L1271.78 991.637H1224.67L1201.12 949.69L1224.67 907.742L1271.78 907.742Z" stroke="#1A1A1A" stroke-width="2" stroke-linejoin="round"/>
<path d="M1271.78 1075.53L1295.34 1117.48L1271.78 1159.43H1224.67L1201.12 1117.48L1224.67 1075.53L1271.78 1075.53Z" stroke="#1A1A1A" stroke-width="2" stroke-linejoin="round"/>
<path d="M1271.78 1243.32L1295.34 1285.27L1271.78 1327.22H1224.67L1201.12 1285.27L1224.67 1243.32L1271.78 1243.32Z" stroke="#1A1A1A" stroke-width="2" stroke-linejoin="round"/>
<path d="M1154.02 278.531L1130.47 320.479L1154.02 362.426H1201.13L1224.69 320.479L1201.13 278.531L1154.02 278.531Z" stroke="#1A1A1A" stroke-width="2" stroke-linejoin="round"/>
</g>
</g>
<defs>
<radialGradient id="paint0_radial_144_11870" cx="0" cy="0" r="1" gradientUnits="userSpaceOnUse" gradientTransform="translate(683 658) rotate(90) scale(658 616.705)">
<stop offset="0.847371" stop-color="white"/>
<stop offset="1" stop-color="#999999" stop-opacity="0"/>
</radialGradient>
<linearGradient id="paint1_linear_144_11870" x1="188.414" y1="194.641" x2="188.414" y2="278.536" gradientUnits="userSpaceOnUse">
<stop stop-color="#1A1A1A"/>
<stop offset="1" stop-color="#1A1A1A" stop-opacity="0"/>
</linearGradient>
<linearGradient id="paint2_linear_144_11870" x1="117.758" y1="1075.53" x2="117.758" y2="1159.43" gradientUnits="userSpaceOnUse">
<stop stop-color="#1A1A1A"/>
<stop offset="1" stop-color="#1A1A1A" stop-opacity="0"/>
</linearGradient>
<linearGradient id="paint3_linear_144_11870" x1="400.383" y1="572.164" x2="400.383" y2="656.059" gradientUnits="userSpaceOnUse">
<stop stop-color="#1A1A1A"/>
<stop offset="1" stop-color="#1A1A1A" stop-opacity="0"/>
</linearGradient>
<linearGradient id="paint4_linear_144_11870" x1="965.609" y1="1075.53" x2="965.609" y2="1159.43" gradientUnits="userSpaceOnUse">
<stop stop-color="#1A1A1A"/>
<stop offset="1" stop-color="#1A1A1A" stop-opacity="0"/>
</linearGradient>
<linearGradient id="paint5_linear_144_11870" x1="824.305" y1="236.586" x2="824.305" y2="320.481" gradientUnits="userSpaceOnUse">
<stop stop-color="#1A1A1A"/>
<stop offset="1" stop-color="#1A1A1A" stop-opacity="0"/>
</linearGradient>
<linearGradient id="paint6_linear_144_11870" x1="1248.23" y1="656.059" x2="1248.23" y2="739.954" gradientUnits="userSpaceOnUse">
<stop stop-color="#1A1A1A"/>
<stop offset="1" stop-color="#1A1A1A" stop-opacity="0"/>
</linearGradient>
</defs>
</svg>
