<svg width="49" height="32" viewBox="0 0 49 32" fill="none" xmlns="http://www.w3.org/2000/svg">
<g clip-path="url(#clip0_144_12455)">
<path fill-rule="evenodd" clip-rule="evenodd" d="M38.1194 2.94041C38.177 2.70086 37.992 2.51513 37.7522 2.57302C35.7542 3.05514 31.1688 4.39789 26.6552 7.38276C27.895 8.26783 29.1185 9.27983 30.2718 10.4354C31.4253 11.5911 32.4353 12.8169 33.3186 14.0593C36.2981 9.53679 37.6382 4.94237 38.1194 2.94041ZM37.5752 1.83692C38.3634 1.64671 39.044 2.32728 38.854 3.11771C38.3457 5.23258 36.9031 10.1702 33.6362 14.9427C33.5656 15.0455 33.4491 15.1071 33.3245 15.1071C33.2 15.1071 33.0835 15.0455 33.0129 14.9427C32.0791 13.5786 30.9946 12.2304 29.7376 10.9708C28.4804 9.71122 27.1348 8.62464 25.7735 7.68896C25.6707 7.61836 25.6094 7.50157 25.6094 7.37675C25.6094 7.25194 25.6708 7.13514 25.7735 7.06456C30.5366 3.79175 35.4646 2.34623 37.5752 1.83692Z" fill="white"/>
<path fill-rule="evenodd" clip-rule="evenodd" d="M16.1085 16.8906C16.2331 16.8906 16.3496 16.9521 16.4201 17.0551C17.354 18.4192 18.4384 19.7673 19.6956 21.0269C20.9527 22.2866 22.2982 23.3736 23.66 24.3087C23.7628 24.3792 23.8242 24.4961 23.8242 24.6209C23.8242 24.7457 23.7628 24.8626 23.66 24.9332C18.896 28.2064 13.968 29.652 11.8578 30.1613C11.0693 30.3516 10.3891 29.6701 10.579 28.8801C11.0873 26.7656 12.53 21.828 15.7969 17.0551C15.8674 16.9522 15.984 16.8906 16.1085 16.8906ZM16.1145 17.9385C13.135 22.4615 11.7949 27.0558 11.3137 29.0573C11.256 29.2972 11.4414 29.483 11.6809 29.4253C13.6784 28.9431 18.2637 27.6004 22.7782 24.6151C21.5379 23.7302 20.3145 22.7178 19.1612 21.5623C18.0079 20.4066 16.9978 19.1808 16.1145 17.9385Z" fill="white"/>
<path fill-rule="evenodd" clip-rule="evenodd" d="M33.3798 16.8906C33.2552 16.8906 33.1387 16.9521 33.0681 17.0551C32.1343 18.4192 31.0499 19.7673 29.7927 21.0269C28.5356 22.2866 27.1902 23.3736 25.8283 24.3087C25.7255 24.3792 25.6641 24.4961 25.6641 24.6209C25.6641 24.7457 25.7255 24.8626 25.8283 24.9332C30.5924 28.2064 35.5203 29.652 37.6304 30.1613C38.419 30.3516 39.0992 29.6701 38.9092 28.8801C38.4009 26.7656 36.9582 21.828 33.6914 17.0551C33.6209 16.9522 33.5043 16.8906 33.3798 16.8906ZM33.3738 17.9385C36.3533 22.4615 37.6935 27.0558 38.1746 29.0573C38.2323 29.2972 38.0469 29.483 37.8074 29.4253C35.8098 28.9431 31.2246 27.6004 26.7101 24.6151C27.9504 23.7302 29.1738 22.7178 30.3271 21.5623C31.4805 20.4066 32.4905 19.1808 33.3738 17.9385Z" fill="white"/>
<path fill-rule="evenodd" clip-rule="evenodd" d="M11.6809 2.57302C11.441 2.51513 11.2561 2.70086 11.3137 2.94041C11.7949 4.94184 13.1354 9.53662 16.1144 14.0596C16.9975 12.8168 18.0079 11.591 19.1612 10.4354C20.3146 9.27983 21.538 8.26783 22.7783 7.38273C18.2638 4.39783 13.6783 3.05462 11.6809 2.57302ZM11.8578 1.8369C11.0697 1.64675 10.389 2.32731 10.579 3.11771C11.0874 5.23206 12.5306 10.1702 15.7969 14.9432C15.8674 15.0461 15.984 15.1076 16.1086 15.1076C16.2332 15.1076 16.3498 15.046 16.4202 14.943C17.3535 13.5786 18.4384 12.2305 19.6956 10.9708C20.9527 9.71122 22.2982 8.62466 23.66 7.68899C23.7628 7.6184 23.8242 7.50159 23.8242 7.37676C23.8242 7.25193 23.7628 7.13513 23.66 7.06454C18.896 3.79181 13.9681 2.34574 11.8578 1.8369Z" fill="white"/>
<path fill-rule="evenodd" clip-rule="evenodd" d="M24.502 8.33588C24.6308 8.2474 24.8007 8.24741 24.9295 8.33592C26.3242 9.29448 27.7063 10.4102 29.0004 11.7068C30.2943 13.0033 31.4079 14.3882 32.3646 15.7858C32.453 15.9147 32.453 16.0849 32.3646 16.214C31.4079 17.612 30.2943 18.9969 29.0004 20.2935C27.7063 21.59 26.3242 22.7062 24.9293 23.6644C24.8007 23.7528 24.6308 23.7528 24.5021 23.6644C23.1067 22.7063 21.7245 21.59 20.4305 20.2935C19.1365 18.9969 18.0229 17.612 17.0663 16.2145C16.9779 16.0855 16.9779 15.9154 17.0662 15.7864C18.0224 14.3882 19.1365 13.0033 20.4305 11.7068C21.7245 10.4102 23.1068 9.29446 24.502 8.33588ZM24.7156 9.1085C23.4268 10.0102 22.1562 11.0485 20.9648 12.2422C19.7735 13.4359 18.7368 14.709 17.8373 16.0002C18.7373 17.2912 19.7735 18.5644 20.9648 19.7581C22.1562 20.9518 23.427 21.9905 24.7156 22.8918C26.004 21.9905 27.2746 20.9518 28.466 19.7581C29.6574 18.5644 30.6936 17.2912 31.5935 15.9999C30.6936 14.709 29.6573 13.4358 28.466 12.2422C27.2747 11.0485 26.004 10.0102 24.7156 9.1085Z" fill="white"/>
<path fill-rule="evenodd" clip-rule="evenodd" d="M35.8669 3.82885C36.4616 3.68533 36.9785 4.20318 36.8351 4.79902C36.5161 6.12476 35.6123 9.21906 33.5641 12.2117C33.4937 12.3146 33.377 12.3762 33.2525 12.3761C33.1279 12.3761 33.0114 12.3146 32.9408 12.2116C32.3638 11.3682 31.6939 10.5356 30.9177 9.7579C30.1416 8.98023 29.3107 8.30903 28.4688 7.73078C28.366 7.66019 28.3047 7.54338 28.3047 7.41853V7.41803C28.3047 7.2932 28.366 7.17639 28.4688 7.10579C31.456 5.05366 34.5441 4.14803 35.8669 3.82885ZM36.0792 4.56387C36.0736 4.56231 36.0625 4.56047 36.0439 4.56494C34.8337 4.85695 32.0863 5.6604 29.3501 7.42781C30.0704 7.95365 30.78 8.54907 31.4521 9.22252C32.1241 9.89585 32.7183 10.6067 33.2431 11.3283C35.0067 8.58742 35.8085 5.83479 36.1006 4.62171C36.105 4.60312 36.1031 4.59192 36.1015 4.58638C36.0998 4.5802 36.0969 4.57555 36.0934 4.57205C36.09 4.56854 36.0853 4.56561 36.0792 4.56387Z" fill="white"/>
<path fill-rule="evenodd" clip-rule="evenodd" d="M13.6096 3.92651C13.0149 3.78299 12.4981 4.30083 12.6413 4.89668C12.9603 6.22241 13.8642 9.31672 15.9124 12.3093C15.9828 12.4123 16.0994 12.4738 16.224 12.4738C16.3486 12.4738 16.4651 12.4122 16.5356 12.3093C17.1127 11.4658 17.7826 10.6332 18.5587 9.85555C19.3349 9.07788 20.1659 8.40668 21.0077 7.82843C21.1104 7.75784 21.1718 7.64103 21.1718 7.51619V7.51568C21.1718 7.39085 21.1104 7.27404 21.0077 7.20345C18.0205 5.15131 14.9323 4.24568 13.6096 3.92651ZM13.3973 4.66153C13.4029 4.65997 13.414 4.65812 13.4326 4.6626C14.6427 4.9546 17.3902 5.75806 20.1263 7.52548C19.4061 8.05131 18.6965 8.64672 18.0244 9.32017C17.3524 9.99351 16.7582 10.7044 16.2335 11.4259C14.4697 8.68507 13.6679 5.93246 13.376 4.71937C13.3715 4.70077 13.3733 4.68957 13.3749 4.68403C13.3766 4.67785 13.3796 4.6732 13.3831 4.6697C13.3865 4.66621 13.3912 4.66326 13.3973 4.66153Z" fill="white"/>
<path fill-rule="evenodd" clip-rule="evenodd" d="M16.2474 19.5977C16.372 19.5977 16.4886 19.6592 16.559 19.7622C17.1361 20.6056 17.806 21.4383 18.5822 22.216C19.3583 22.9936 20.1893 23.6648 21.0311 24.243C21.1339 24.3137 21.1953 24.4305 21.1953 24.5553V24.5558C21.1953 24.6807 21.1339 24.7974 21.0311 24.868C18.0439 26.9202 14.9557 27.8258 13.633 28.145C13.0383 28.2885 12.5215 27.7707 12.6647 27.1748C12.9838 25.849 13.8876 22.7548 15.9358 19.7621C16.0062 19.6592 16.1228 19.5977 16.2474 19.5977ZM13.3994 27.3522C13.3949 27.3708 13.3968 27.382 13.3983 27.3875C13.4001 27.3936 13.403 27.3983 13.4065 27.4018C13.41 27.4053 13.4146 27.4083 13.4208 27.41C13.4263 27.4115 13.4375 27.4133 13.4561 27.4089C14.6662 27.1169 17.4137 26.3135 20.1498 24.546C19.4295 24.0202 18.72 23.4247 18.0478 22.7514C17.3758 22.078 16.7816 21.3671 16.2569 20.6455C14.4932 23.3864 13.6913 26.1391 13.3994 27.3521" fill="white"/>
<path fill-rule="evenodd" clip-rule="evenodd" d="M33.362 19.6914C33.2374 19.6914 33.1209 19.753 33.0503 19.856C32.4733 20.6995 31.8034 21.532 31.0272 22.3097C30.2511 23.0873 29.4201 23.7585 28.5783 24.3368C28.4755 24.4074 28.4141 24.5242 28.4141 24.6491V24.6496C28.4141 24.7744 28.4755 24.8912 28.5783 24.9617C31.5655 27.014 34.6536 27.9195 35.9764 28.2387C36.5711 28.3823 37.088 27.8645 36.9446 27.2685C36.6256 25.9428 35.7218 22.8485 33.6736 19.8559C33.6032 19.753 33.4865 19.6914 33.362 19.6914ZM36.2101 27.446C36.2145 27.4645 36.2126 27.4757 36.211 27.4813C36.2093 27.4874 36.2064 27.4921 36.2029 27.4955C36.1994 27.4991 36.1948 27.502 36.1887 27.5037C36.1831 27.5052 36.172 27.5071 36.1534 27.5026C34.9433 27.2106 32.1957 26.4072 29.4596 24.6397C30.1798 24.114 30.8895 23.5185 31.5616 22.8451C32.2336 22.1717 32.8278 21.4608 33.3526 20.7393C35.1162 23.4801 35.918 26.2328 36.2101 27.4459" fill="white"/>
<path fill-rule="evenodd" clip-rule="evenodd" d="M24.7404 12.0865C24.6957 12.1632 24.6433 12.2934 24.593 12.4873C24.5341 12.7132 24.4863 12.9909 24.4492 13.2989C24.3749 13.9141 24.3465 14.619 24.3465 15.2072C24.3465 15.3574 24.256 15.4938 24.1216 15.5571C23.9573 15.6346 23.7453 15.6305 23.5683 15.6457C23.2953 15.6692 22.9574 15.6938 22.588 15.727C22.2239 15.7597 21.8564 15.7986 21.5584 15.8471C21.4129 15.8707 21.2647 15.8954 21.1246 15.9427C21.1954 15.9815 21.3075 16.0253 21.47 16.0669C21.6742 16.1192 21.925 16.1603 22.2062 16.1928C22.7965 16.261 23.3915 16.283 23.9848 16.3077C24.1858 16.3161 24.3451 16.4809 24.3469 16.6824C24.3524 17.2662 24.3814 17.9407 24.4544 18.5263C24.4911 18.8193 24.5376 19.0822 24.5952 19.2966C24.6444 19.4802 24.6957 19.6051 24.7404 19.6806C24.7853 19.6051 24.8367 19.4801 24.886 19.2962C24.9435 19.0817 24.9901 18.8187 25.0267 18.5256C25.0997 17.9397 25.1287 17.2647 25.134 16.6807C25.1358 16.4806 25.2928 16.3164 25.4922 16.3061C26.0586 16.2767 26.6958 16.2503 27.2542 16.1864C27.5327 16.1546 27.7807 16.1144 27.9827 16.0632C28.1424 16.0227 28.2523 15.9803 28.3216 15.9425C28.1837 15.8965 28.0381 15.8725 27.8949 15.8496C27.6001 15.8027 27.237 15.7652 26.8767 15.7334C26.5375 15.7035 26.151 15.6746 25.9058 15.6525C25.7233 15.636 25.4987 15.6386 25.3344 15.5458C25.2132 15.4774 25.1343 15.3476 25.1343 15.2072C25.1343 14.6189 25.106 13.9139 25.0317 13.2987C24.9946 12.9908 24.9468 12.7131 24.888 12.4872C24.8375 12.2933 24.7852 12.1632 24.7404 12.0865ZM24.1656 11.5874C24.4544 11.2052 25.0266 11.2052 25.3153 11.5874C25.4572 11.7752 25.5512 12.0351 25.6192 12.2961C25.6896 12.5667 25.7425 12.8809 25.7819 13.2079C25.8477 13.7523 25.8788 14.3538 25.8874 14.8904C26.0591 14.9071 26.2311 14.9205 26.4031 14.9343C26.567 14.9474 26.7455 14.9618 26.9431 14.9791C27.3064 15.0112 27.6916 15.0505 28.0137 15.1019C28.1745 15.1276 28.3272 15.1574 28.4575 15.1931C28.5745 15.2252 28.7214 15.274 28.8327 15.3588C29.2134 15.6484 29.2129 16.222 28.8327 16.5112C28.6511 16.6495 28.408 16.7364 28.1682 16.7972C27.9199 16.8601 27.6347 16.9049 27.34 16.9387C26.8723 16.9921 26.3539 17.0207 25.8836 17.0444C25.8709 17.556 25.8394 18.1141 25.7765 18.6194C25.7376 18.9322 25.6856 19.2324 25.6158 19.4927C25.5482 19.7448 25.4549 19.9945 25.3153 20.1793C25.0266 20.5614 24.4544 20.5614 24.1656 20.1793C24.026 19.9947 23.933 19.7449 23.8654 19.4931C23.7957 19.2329 23.7437 18.9328 23.7046 18.6202C23.6418 18.1161 23.6102 17.5596 23.5974 17.0492C23.1191 17.028 22.5943 16.9998 22.1197 16.9449C21.8215 16.9105 21.5333 16.8646 21.2827 16.8004C21.0404 16.7383 20.7959 16.6501 20.6135 16.5112C20.233 16.2217 20.233 15.6487 20.6135 15.3591C20.725 15.2743 20.8722 15.2252 20.9901 15.1926C21.1212 15.1565 21.2753 15.126 21.4376 15.0996C21.7631 15.0468 22.1525 15.0059 22.5205 14.9728C22.7403 14.9531 22.9626 14.9352 23.1595 14.9195C23.3286 14.906 23.478 14.8939 23.5936 14.8834C23.6024 14.3486 23.6336 13.75 23.699 13.208C23.7384 12.881 23.7913 12.5668 23.8617 12.2961C23.9296 12.0351 24.0237 11.7752 24.1656 11.5874Z" fill="white"/>
</g>
<defs>
<clipPath id="clip0_144_12455">
<rect width="28.3906" height="28.3906" fill="white" transform="translate(10.5469 1.80469)"/>
</clipPath>
</defs>
</svg>
