<svg width="236" height="40" viewBox="0 0 236 40" fill="none" xmlns="http://www.w3.org/2000/svg">
<g clip-path="url(#clip0_40000001_1126)">
<g clip-path="url(#clip1_40000001_1126)">
<path d="M23.979 10.7327L18.6485 1.5H10.8294L0.148438 20L10.8294 38.5H18.6487L23.979 29.2675L16.1801 29.2129L10.8496 19.9802H10.8491L16.1796 10.7474L23.979 10.7327Z" fill="white"/>
<path d="M56.0234 10.7327L61.354 1.5H69.173L79.854 20L69.173 38.5H61.3538L56.0234 29.2675L63.8223 29.2129L69.1529 19.9802H69.1534L63.8229 10.7474L56.0234 10.7327Z" fill="white"/>
<path fill-rule="evenodd" clip-rule="evenodd" d="M29.3294 1.5L18.6484 20L29.3294 38.5L50.6914 38.5L61.3723 20L50.6914 1.5L29.3294 1.5ZM29.349 19.9796L34.6795 10.7469L45.3406 10.7469L50.6711 19.9796L50.6716 19.9796L45.3411 29.2124L34.68 29.2124L29.3495 19.9796L29.349 19.9796Z" fill="white"/>
</g>
<path d="M113.852 15L108.852 20M108.852 20L103.852 25M108.852 20L113.852 25M108.852 20L103.852 15" stroke="white" stroke-opacity="0.64" stroke-width="1.5"/>
<path d="M155.844 35.9985C145.716 35.9985 139.711 30.6879 139.711 19.9767C139.711 9.31058 145.716 4 155.844 4C165.927 4 171.977 9.31058 171.977 19.9767C171.977 30.6879 165.927 35.9985 155.844 35.9985ZM155.844 29.6978C160.998 29.6978 163.731 26.4575 163.731 21.0119V18.9866C163.731 13.541 160.998 10.3007 155.844 10.3007C150.646 10.3007 147.957 13.541 147.957 18.9866V21.0119C147.957 26.4575 150.646 29.6978 155.844 29.6978Z" fill="white"/>
<path d="M174.979 35.4584L167.227 4.54006H175.652L179.416 20.7868C179.55 21.5969 179.999 23.7572 180.223 25.1523H180.402C180.626 23.8922 180.94 21.8219 181.164 20.7868L184.704 4.54006H193.443L197.073 20.7868C197.297 21.6869 197.7 23.8022 197.924 25.1523H198.104C198.328 23.9372 198.731 21.912 198.955 20.7868L202.585 4.54006H210.472L202.719 35.4584H193.757L189.813 18.3566C189.544 17.1414 189.186 15.1162 188.961 13.8561H188.782C188.558 15.1162 188.244 17.1414 187.976 18.3566L184.077 35.4584H174.979Z" fill="white"/>
<path d="M207.851 35.4584V4.54006H226.673C231.424 4.54006 235.188 7.6454 235.188 12.1459C235.188 16.1963 232.903 18.4016 230.079 19.3017V19.4817C233.396 20.2018 235.995 22.587 235.995 27.0875C235.995 32.4431 231.917 35.4584 226.808 35.4584H207.851ZM215.873 16.8264H223.895C225.867 16.8264 227.032 15.5663 227.032 13.586C227.032 11.6508 225.777 10.5257 224.029 10.5257H215.873V16.8264ZM215.873 29.2478H224.612C226.494 29.2478 227.794 28.1676 227.794 25.7824C227.794 23.8922 226.584 22.542 224.478 22.542H215.873V29.2478Z" fill="white"/>
</g>
<defs>
<clipPath id="clip0_40000001_1126">
<rect width="236" height="40" fill="white"/>
</clipPath>
<clipPath id="clip1_40000001_1126">
<rect width="79.7056" height="40" fill="white" transform="translate(0.148438)"/>
</clipPath>
</defs>
</svg>
