<svg width="144" height="32" viewBox="0 0 144 32" fill="none" xmlns="http://www.w3.org/2000/svg">
<g clip-path="url(#clip0_150_14577)">
<path d="M123.942 23.2975L119.405 12.8758H122.443L125.542 20.35L129.123 12.8758H132.111L125.048 27.2308H122.01L123.942 23.2975ZM112.895 21.1398C113.163 21.0787 113.422 20.9823 113.664 20.853C113.899 20.7282 114.117 20.5744 114.313 20.3953C114.509 20.2158 114.678 20.0092 114.816 19.7817C114.96 19.5428 115.072 19.2856 115.148 19.0172C115.23 18.7242 115.271 18.4212 115.269 18.1168C115.272 17.8092 115.231 17.5027 115.148 17.2065C115.072 16.938 114.96 16.6809 114.816 16.4419C114.678 16.2136 114.509 16.0053 114.313 15.8233C114.119 15.6426 113.901 15.4902 113.664 15.3706C113.42 15.2476 113.161 15.1547 112.895 15.094C112.614 15.0296 112.327 14.9976 112.039 14.9984C111.753 14.9974 111.468 15.0295 111.189 15.094C110.926 15.1547 110.671 15.2477 110.43 15.3706C110.195 15.4918 109.976 15.6441 109.781 15.8233C109.583 16.0043 109.412 16.2127 109.273 16.4419C109.129 16.6804 109.019 16.9377 108.946 17.2065C108.866 17.5033 108.828 17.8096 108.831 18.1168C108.828 18.4208 108.867 18.7237 108.946 19.0172C109.019 19.2859 109.129 19.5432 109.273 19.7817C109.411 20.0101 109.583 20.2168 109.781 20.3953C109.979 20.573 110.196 20.7266 110.43 20.853C110.669 20.9822 110.925 21.0786 111.189 21.1398C111.468 21.2044 111.753 21.2364 112.039 21.2353C112.327 21.2362 112.614 21.2041 112.895 21.1398ZM109.832 23.4736C109.366 23.355 108.917 23.1758 108.499 22.9404C107.682 22.4815 107.009 21.8061 106.552 20.9889C106.317 20.5663 106.138 20.1149 106.019 19.6459C105.771 18.6383 105.771 17.5854 106.019 16.5778C106.137 16.1103 106.316 15.6604 106.552 15.2399C107.011 14.4255 107.684 13.7523 108.499 13.2933C108.917 13.058 109.366 12.8787 109.832 12.7601C110.33 12.6339 110.841 12.5713 111.356 12.574C111.633 12.5734 111.91 12.5902 112.185 12.6244C112.439 12.6557 112.689 12.7061 112.935 12.7752C113.162 12.8399 113.386 12.9188 113.604 13.0116C113.808 13.0984 114.005 13.2009 114.192 13.3185C114.369 13.4291 114.534 13.5571 114.685 13.7007C114.827 13.8349 114.958 13.9795 115.077 14.1333V12.8758H117.965V23.3579H115.077V22.1005C114.893 22.332 114.682 22.5413 114.449 22.7241C114.191 22.9265 113.909 23.0955 113.609 23.2271C113.275 23.3736 112.926 23.4817 112.568 23.549C112.168 23.6246 111.762 23.6617 111.356 23.6597C110.841 23.6624 110.33 23.5999 109.832 23.4736ZM99.3502 15.5315C99.7635 15.5391 100.176 15.4918 100.578 15.3907C100.89 15.3117 101.182 15.1659 101.432 14.9632C101.659 14.7744 101.832 14.53 101.936 14.254C102.048 13.9412 102.103 13.6106 102.097 13.2782C102.103 12.9475 102.049 12.6184 101.936 12.3074C101.832 12.0344 101.659 11.7933 101.432 11.6083C101.18 11.4086 100.889 11.2646 100.578 11.1858C100.176 11.0849 99.7635 11.0375 99.3502 11.045H96.5132V15.5315H99.3502ZM93.5257 8.57031H99.6321C100.591 8.57031 101.422 8.68765 102.127 8.9224C102.831 9.15714 103.411 9.48241 103.867 9.89821C104.32 10.3105 104.67 10.824 104.888 11.3971C105.116 12.0012 105.23 12.6424 105.225 13.2882C105.232 13.9326 105.118 14.5725 104.888 15.1744C104.667 15.7427 104.317 16.2523 103.867 16.6633C103.411 17.0825 102.831 17.4094 102.127 17.644C101.422 17.879 100.591 17.9963 99.6321 17.9961H96.5132V23.3579H93.5257V8.57031ZM80.6966 12.8758H83.5636V14.1333C83.74 13.8892 83.9499 13.6709 84.1869 13.4844C84.4376 13.2878 84.7112 13.1222 85.0016 12.9915C85.3219 12.8483 85.6579 12.7436 86.0028 12.6797C86.3855 12.6076 86.7749 12.5722 87.1648 12.574C87.7713 12.5653 88.3748 12.6676 88.9454 12.8758C89.4529 13.063 89.9136 13.3601 90.2933 13.746C90.6749 14.1459 90.9634 14.625 91.138 15.1493C91.3402 15.7521 91.4386 16.3847 91.4302 17.0204V23.3579H88.5632V17.7647C88.5698 17.3559 88.5122 16.9485 88.3916 16.5576C88.2927 16.2349 88.1265 15.9367 87.9039 15.6825C87.6903 15.4462 87.4228 15.265 87.1246 15.1543C86.7857 15.0319 86.4281 14.9722 86.0682 14.9783C85.7065 14.9725 85.3471 15.0322 85.007 15.1543C84.7064 15.2641 84.437 15.4454 84.2223 15.6825C84.0003 15.9367 83.8335 16.2349 83.7346 16.5576C83.614 16.9485 83.5564 17.3559 83.5636 17.7647V23.3579H80.6966V12.8758ZM73.6411 21.1096C73.9153 21.0434 74.1798 20.9455 74.4312 20.8178C74.6699 20.6958 74.8883 20.538 75.0797 20.35C75.2692 20.1646 75.4336 19.9548 75.568 19.7264C75.7048 19.491 75.8068 19.2368 75.8698 18.9719C75.9381 18.6852 75.9717 18.3914 75.9699 18.0967C75.9717 17.8037 75.9381 17.5115 75.8698 17.2266C75.7426 16.7014 75.469 16.2233 75.0797 15.8484C74.8859 15.6621 74.6675 15.503 74.4312 15.3756C74.1822 15.2421 73.9165 15.1422 73.6411 15.0788C73.3429 15.0103 73.037 14.9766 72.731 14.9782C72.4281 14.9769 72.1257 15.0106 71.8306 15.0788C71.557 15.1416 71.2931 15.2415 71.0459 15.3756C70.8113 15.5039 70.5948 15.6629 70.4022 15.8484C70.2126 16.0311 70.0513 16.2413 69.9241 16.4721C69.7945 16.7091 69.6931 16.9607 69.6223 17.2215C69.5467 17.507 69.5095 17.8013 69.5119 18.0967C69.5101 18.3921 69.5473 18.6863 69.6223 18.9719C69.6913 19.235 69.7927 19.4884 69.9241 19.7264C70.0531 19.9561 70.2138 20.1661 70.4022 20.35C70.5924 20.5372 70.8095 20.6949 71.0459 20.8179C71.2949 20.9461 71.5582 21.044 71.8306 21.1096C72.1251 21.1812 72.4275 21.2166 72.731 21.2152C73.0376 21.217 73.3435 21.1815 73.6411 21.1096ZM71.0411 23.4686C70.5234 23.3482 70.0225 23.1675 69.5473 22.9303C69.1004 22.7075 68.6853 22.425 68.3145 22.0904C67.9552 21.7653 67.6438 21.3911 67.3895 20.9788C67.1315 20.5591 66.9329 20.1054 66.8009 19.6308C66.5256 18.6266 66.5256 17.5669 66.8009 16.5626C66.9323 16.0894 67.1309 15.6373 67.3895 15.2197C67.6456 14.8088 67.957 14.4348 68.3145 14.1081C68.6847 13.7709 69.0992 13.4866 69.5473 13.2632C70.0225 13.0261 70.5234 12.8454 71.0411 12.725C72.1599 12.4701 73.3219 12.4701 74.4408 12.725C74.9555 12.8444 75.4534 13.0251 75.925 13.2632C76.3707 13.4899 76.7852 13.7739 77.1572 14.1081C77.5201 14.4336 77.8369 14.8076 78.0978 15.2197C78.3594 15.6365 78.5591 16.0888 78.6911 16.5626C78.9665 17.5669 78.9665 18.6266 78.6911 19.6308C78.5585 20.1061 78.3588 20.56 78.0978 20.9788C77.8387 21.3922 77.5219 21.7665 77.1572 22.0904C76.784 22.4219 76.3701 22.7042 75.925 22.9303C75.4552 23.168 74.9585 23.3487 74.4462 23.4686C73.3256 23.7234 72.1617 23.7234 71.0411 23.4686ZM59.8535 21.1096C60.1272 21.0434 60.3923 20.9455 60.6432 20.8178C60.882 20.6958 61.1008 20.538 61.2921 20.35C61.4814 20.1646 61.6455 19.9548 61.78 19.7264C61.9171 19.4911 62.0188 19.2369 62.0817 18.9719C62.1502 18.6852 62.1839 18.3914 62.1823 18.0967C62.1841 17.8037 62.1503 17.5115 62.0817 17.2266C61.9549 16.7014 61.681 16.2233 61.2921 15.8484C61.0982 15.6621 60.88 15.503 60.6432 15.3756C60.3944 15.2421 60.1288 15.1422 59.8535 15.0788C59.555 15.0103 59.2495 14.9766 58.9432 14.9782C58.6402 14.9769 58.338 15.0106 58.0428 15.0788C57.769 15.1416 57.505 15.2415 57.2582 15.3756C57.0235 15.5039 56.807 15.6629 56.6143 15.8484C56.4246 16.0311 56.2635 16.2413 56.1365 16.4721C56.0069 16.7092 55.9056 16.9607 55.8347 17.2215C55.7587 17.507 55.7215 17.8013 55.7241 18.0967C55.7224 18.392 55.7596 18.6863 55.8347 18.9719C55.9037 19.2349 56.0051 19.4883 56.1365 19.7264C56.2651 19.9561 56.426 20.1661 56.6143 20.35C56.8045 20.5372 57.0215 20.6948 57.2582 20.8178C57.5071 20.9461 57.7705 21.044 58.0428 21.1096C58.3376 21.1812 58.6399 21.2166 58.9432 21.2152C59.2498 21.217 59.5555 21.1815 59.8535 21.1096ZM57.2531 23.4686C56.7359 23.3482 56.2345 23.1676 55.7593 22.9304C55.3123 22.7076 54.8978 22.425 54.527 22.0904C54.1677 21.7653 53.8561 21.3911 53.6015 20.9789C53.3434 20.5592 53.1454 20.1055 53.013 19.6309C52.7381 18.6266 52.7381 17.567 53.013 16.5627C53.1448 16.0895 53.3429 15.6374 53.6015 15.2198C53.858 14.8088 54.1693 14.4348 54.527 14.1082C54.8968 13.771 55.3115 13.4866 55.7593 13.2632C56.2345 13.0261 56.7359 12.8455 57.2531 12.725C58.3722 12.4701 59.5342 12.4701 60.6533 12.725C61.1676 12.8444 61.6658 13.0251 62.1371 13.2632C62.5829 13.4899 62.9972 13.774 63.3694 14.1082C63.7326 14.4336 64.0491 14.8077 64.3099 15.2198C64.5715 15.6365 64.7714 16.0888 64.9034 16.5627C65.1782 17.567 65.1782 18.6266 64.9034 19.6309C64.7708 20.1062 64.571 20.5601 64.3099 20.9789C64.051 21.3923 63.7342 21.7666 63.3694 22.0904C62.9962 22.422 62.5821 22.7043 62.1371 22.9304C61.6674 23.1681 61.1709 23.3487 60.6583 23.4686C59.5376 23.7234 58.3739 23.7234 57.2531 23.4686ZM34.625 8.57031H37.6429L42.8034 16.457L47.9841 8.57031H51.002V23.3579H48.0143V13.2179L43.7289 19.7566H41.8981L37.6127 13.2179V23.3579H34.625V8.57031Z" fill="white"/>
<path d="M27.7268 11.2193C28.3237 11.2193 28.9072 11.0424 29.4034 10.7107C29.8997 10.3791 30.2865 9.90782 30.5149 9.35639C30.7434 8.80489 30.8031 8.19815 30.6867 7.6127C30.5702 7.02731 30.2828 6.48955 29.8607 6.06751C29.4387 5.64548 28.901 5.35806 28.3155 5.24156C27.7302 5.12514 27.1233 5.18493 26.5719 5.41331C26.0205 5.64176 25.5491 6.02852 25.2176 6.52482C24.8859 7.02113 24.7089 7.6046 24.7089 8.20145C24.7089 8.5978 24.7869 8.99026 24.9386 9.35639C25.0903 9.72257 25.3125 10.0552 25.5928 10.3355C25.873 10.6157 26.2057 10.838 26.5719 10.9897C26.938 11.1414 27.3305 11.2193 27.7268 11.2193ZM18.4733 24.811C17.0184 24.8111 15.5961 24.3796 14.3865 23.5713C13.1767 22.7631 12.2339 21.6142 11.6772 20.27C11.1204 18.9259 10.9747 17.4468 11.2585 16.0199C11.5424 14.593 12.243 13.2822 13.2717 12.2535C14.3005 11.2247 15.6112 10.5241 17.0382 10.2403C18.4651 9.95642 19.9442 10.1021 21.2883 10.6589C22.6324 11.2157 23.7813 12.1585 24.5896 13.3682C25.3979 14.5779 25.8293 16.0001 25.8293 17.455C25.8293 18.4211 25.6391 19.3776 25.2694 20.2701C24.8997 21.1626 24.3579 21.9735 23.6748 22.6566C22.9917 23.3397 22.1808 23.8815 21.2883 24.2512C20.3959 24.6209 19.4392 24.8111 18.4733 24.811Z" fill="white"/>
</g>
<defs>
<clipPath id="clip0_150_14577">
<rect width="123.109" height="22.9526" fill="white" transform="translate(10.3047 4.52344)"/>
</clipPath>
</defs>
</svg>
