<svg width="212" height="32" viewBox="0 0 212 32" fill="none" xmlns="http://www.w3.org/2000/svg">
<g clip-path="url(#clip0_144_12506)">
<path d="M25.6326 3.62407L23.8164 10.4667C23.4785 10.3822 23.1406 10.3822 22.8027 10.3822C22.2958 10.3822 21.7889 10.4667 21.3243 10.5934C20.5218 10.8046 19.7615 11.227 19.1279 11.7338L14.1016 6.70747C14.7351 6.11614 15.4532 5.56704 16.2135 5.10242L16.5936 4.89122C17.4806 4.38436 18.4521 4.00422 19.4658 3.75079C20.5218 3.45512 21.62 3.32841 22.7604 3.32841C23.7319 3.28617 24.7034 3.41288 25.6326 3.62407Z" fill="white"/>
<path d="M60.6034 13.168C60.8146 14.0972 60.9413 15.0265 60.9413 15.9979C60.9413 17.1384 60.7724 18.2366 60.5189 19.2925C60.2655 20.3063 59.8431 21.2777 59.3785 22.1647L59.1673 22.5449C58.7027 23.3052 58.1536 24.0232 57.5623 24.6568L52.5781 19.6727C53.1272 19.0391 53.5074 18.2788 53.7186 17.4763C53.8453 17.0117 53.9298 16.5048 53.9298 15.9979C53.9298 15.66 53.8875 15.3221 53.8453 15.0265L60.6034 13.168Z" fill="white"/>
<path d="M46.3256 21.361L44.4671 28.2036C43.6223 27.9501 42.8198 27.6122 42.0595 27.1476L41.6794 26.9364C40.7924 26.3873 39.9476 25.7538 39.2295 25.0357L38.8494 24.6556C38.5537 24.3599 38.3003 24.022 38.0469 23.6841L42.9888 18.7422L44.087 19.8826C44.1292 19.9249 44.1714 20.0093 44.2559 20.0516C44.805 20.6007 45.5231 21.0653 46.3256 21.361Z" fill="white"/>
<path d="M32.935 8.39377L28.0353 13.2934L26.9371 12.153C26.8949 12.1107 26.8526 12.0263 26.7682 11.984C26.1768 11.3927 25.4588 10.9281 24.6562 10.6324L26.5147 3.83203C27.3595 4.08546 28.162 4.42337 28.9223 4.84575L29.3025 5.05694C30.1895 5.60604 31.0342 6.23962 31.7523 6.95767L32.1324 7.33781C32.4281 7.71796 32.6815 8.05587 32.935 8.39377Z" fill="white"/>
<path d="M51.8516 20.3047L56.8358 25.2888C56.2022 25.8802 55.4841 26.4293 54.7238 26.8939L54.3437 27.1051C53.4567 27.6119 52.4852 27.9921 51.4715 28.2455C50.4155 28.5412 49.3173 28.6679 48.1769 28.6679C47.2054 28.6679 46.2339 28.5412 45.3047 28.33L47.2054 21.5718C47.5433 21.6563 47.8812 21.6563 48.2191 21.6563C48.726 21.6563 49.2329 21.5718 49.6975 21.4451C50.5 21.2762 51.2603 20.8538 51.8516 20.3047Z" fill="white"/>
<path d="M25.834 20.7277L30.8181 25.7963C30.3535 26.1764 29.8466 26.5566 29.2975 26.8945L28.8751 27.1057C27.9881 27.6125 27.0167 27.9927 26.0029 28.2461C24.947 28.5418 23.8488 28.6685 22.7083 28.6685C21.5679 28.6685 20.4697 28.4995 19.4138 28.2461C18.4 27.9927 17.4708 27.5703 16.5838 27.1057L16.1614 26.8522C15.2744 26.3031 14.4296 25.6696 13.7116 24.9515C12.9935 24.2335 12.3177 23.3887 11.8108 22.5017L11.5997 22.1215C11.1773 21.3613 10.8394 20.5587 10.5859 19.714L17.3863 17.8555C17.682 18.658 18.1466 19.376 18.7379 20.0096C19.4138 20.6854 20.3008 21.2345 21.2722 21.488C21.7369 21.6147 22.2437 21.6992 22.7506 21.6992C23.2574 21.6992 23.7643 21.6147 24.2289 21.488C24.8203 21.319 25.3694 21.0656 25.834 20.7277Z" fill="white"/>
<path d="M13.4604 7.33594L18.4445 12.3201C17.8954 12.9536 17.5153 13.7139 17.3041 14.5165C17.1773 14.9811 17.0929 15.4879 17.0929 15.9948C17.0929 16.3327 17.1351 16.6706 17.1773 16.9663L10.377 18.867C10.1658 17.9378 10.0391 16.9663 10.0391 15.9948C10.0391 14.8544 10.208 13.7562 10.4614 12.7002C10.7149 11.6865 11.1373 10.7572 11.6019 9.828L11.8131 9.44786C12.3199 8.68756 12.8268 7.96951 13.4604 7.33594Z" fill="white"/>
<path d="M60.387 12.2812L53.5443 14.1397C53.2487 13.3372 52.7841 12.5769 52.1927 11.9855C51.5169 11.3097 50.6299 10.7606 49.6584 10.5072C49.1938 10.3805 48.6869 10.296 48.1801 10.296C47.6732 10.296 47.1664 10.3805 46.7017 10.5072C46.1104 10.6761 45.5613 10.9296 45.0544 11.2252L40.0703 6.15663C40.5349 5.77649 41.0418 5.39634 41.5909 5.05844L42.0133 4.80501C42.9003 4.29815 43.8718 3.918 44.8855 3.66457C45.9414 3.3689 47.0396 3.24219 48.1801 3.24219C49.3205 3.24219 50.4187 3.41114 51.4747 3.66457C52.4884 3.918 53.4176 4.34038 54.3469 4.80501L54.7693 5.05844C55.6563 5.60754 56.501 6.24111 57.2191 6.95916C57.9371 7.67721 58.6129 8.52198 59.1198 9.40899L59.331 9.78913C59.7534 10.6339 60.0913 11.4364 60.387 12.2812Z" fill="white"/>
<path d="M70.5078 22.2103V9.75H72.493L77.6883 17.9442V9.75H80.1382V22.2103H78.153L72.9999 13.9738V22.2103H70.5078Z" fill="white"/>
<path d="M88.174 22.2941C87.9205 22.2941 87.5826 22.2518 87.2447 22.2096C86.9068 22.1673 86.5689 22.0406 86.231 21.8717C85.9353 21.7027 85.6397 21.4071 85.4285 21.0691C85.2173 20.689 85.1328 20.1821 85.1328 19.5486V12.5792C85.1328 12.0301 85.2173 11.5655 85.3862 11.1854C85.5552 10.8052 85.7664 10.5096 86.0621 10.2984C86.3577 10.0872 86.6534 9.91822 86.9913 9.83375C87.3292 9.74927 87.6671 9.70703 87.9628 9.70703C88.8075 9.70703 89.5256 9.70703 90.1592 9.74927C90.7927 9.79151 91.3841 9.79151 91.8909 9.83375C92.3978 9.87598 92.8624 9.87598 93.2848 9.91822V11.9879H88.6808C88.3429 11.9879 88.0895 12.0724 87.8783 12.2413C87.7094 12.4103 87.5826 12.6637 87.5826 13.0016V14.8179L92.4823 14.9446V16.9298L87.5826 17.0565V18.7883C87.5826 19.0839 87.6249 19.2951 87.7093 19.4641C87.7938 19.633 87.9205 19.7175 88.0895 19.802C88.2585 19.8442 88.4274 19.8865 88.5964 19.8865H93.2426V21.9562C92.7357 21.9984 92.2289 22.0406 91.5953 22.0829C91.0039 22.1251 90.4126 22.1251 89.779 22.1673C89.2722 22.2518 88.7231 22.2941 88.174 22.2941Z" fill="white"/>
<path d="M100.66 22.2103V11.9886H97.2812V9.75H106.531V11.9886H103.152V22.2103H100.66Z" fill="white"/>
<path d="M110.891 22.2103V9.75H113.34V14.9031H117.987V9.75H120.479V22.2103H117.987V17.1417H113.34V22.2103H110.891Z" fill="white"/>
<path d="M128.588 22.2941C128.335 22.2941 127.997 22.2518 127.659 22.2096C127.321 22.1673 126.983 22.0406 126.645 21.8717C126.349 21.7027 126.054 21.4071 125.843 21.0691C125.631 20.689 125.547 20.1821 125.547 19.5486V12.5792C125.547 12.0301 125.631 11.5655 125.8 11.1854C125.969 10.8052 126.18 10.5096 126.476 10.2984C126.772 10.0872 127.067 9.91822 127.405 9.83375C127.743 9.74927 128.081 9.70703 128.377 9.70703C129.222 9.70703 129.94 9.70703 130.573 9.74927C131.207 9.79151 131.798 9.79151 132.305 9.83375C132.812 9.87598 133.276 9.87598 133.699 9.91822V11.9879H129.137C128.799 11.9879 128.546 12.0724 128.335 12.2413C128.166 12.4103 128.039 12.6637 128.039 13.0016V14.8179L132.939 14.9446V16.9298L128.039 17.0565V18.7883C128.039 19.0839 128.081 19.2951 128.166 19.4641C128.25 19.633 128.377 19.7175 128.546 19.802C128.715 19.8442 128.884 19.8865 129.053 19.8865H133.699V21.9562C133.192 21.9984 132.685 22.0406 132.052 22.0829C131.46 22.1251 130.869 22.1251 130.235 22.1673C129.686 22.2518 129.137 22.2941 128.588 22.2941Z" fill="white"/>
<path d="M138.516 22.2103V9.75H143.626C144.133 9.75 144.556 9.79224 144.978 9.91895C145.4 10.0457 145.781 10.2146 146.076 10.5103C146.372 10.806 146.668 11.1861 146.837 11.7352C147.006 12.2421 147.132 12.9179 147.132 13.7204C147.132 14.3117 147.09 14.7764 146.963 15.1987C146.837 15.6211 146.71 15.9168 146.499 16.2125C146.33 16.4659 146.119 16.6771 145.865 16.846C145.612 17.015 145.4 17.1417 145.147 17.2262L147.428 22.2103H144.894L142.908 17.6063C142.782 17.6063 142.613 17.6063 142.444 17.6063C142.275 17.6063 142.106 17.6063 141.937 17.6063C141.768 17.6063 141.599 17.6063 141.388 17.6063C141.219 17.6063 141.05 17.6063 140.923 17.6063V22.2526H138.516V22.2103ZM140.965 15.5789H143.162C143.373 15.5789 143.584 15.5367 143.753 15.4944C143.922 15.4522 144.091 15.3255 144.218 15.1987C144.345 15.072 144.471 14.8608 144.513 14.6074C144.598 14.354 144.64 14.0583 144.64 13.6782C144.64 13.3403 144.598 13.0446 144.513 12.8334C144.429 12.58 144.345 12.411 144.218 12.2843C144.091 12.1576 143.922 12.0731 143.753 12.0309C143.584 11.9886 143.373 11.9464 143.162 11.9464H140.965V15.5789Z" fill="white"/>
<path d="M151.602 22.2103L153.038 9.75H155.403L158.233 19.2959L161.063 9.75H163.428L164.864 22.2103H162.499L161.401 13.0024L161.781 13.0446L159.373 22.2103H157.05L154.6 13.0446H155.023L154.009 22.2103H151.602Z" fill="white"/>
<path d="M172.106 9.75H169.656V22.2103H172.106V9.75Z" fill="white"/>
<path d="M177.344 22.2103V9.75H179.329L184.482 17.9442V9.75H186.974V22.2103H184.989L179.836 13.9738V22.2103H177.344Z" fill="white"/>
<path d="M191.984 22.2103V9.75H197.18C198.024 9.75 198.7 9.91895 199.249 10.2146C199.798 10.5103 200.263 10.9327 200.559 11.4818C200.897 12.0309 201.108 12.7067 201.277 13.467C201.404 14.2273 201.488 15.072 201.488 16.0013C201.488 17.3951 201.319 18.5778 201.023 19.4648C200.728 20.3941 200.221 21.0699 199.587 21.5345C198.954 21.9991 198.151 22.2103 197.18 22.2103H191.984ZM194.434 19.9717H196.926C197.433 19.9717 197.856 19.845 198.151 19.5493C198.447 19.2536 198.658 18.789 198.785 18.1977C198.911 17.6063 198.996 16.8883 198.996 16.0013C198.996 15.1987 198.954 14.5229 198.869 14.0161C198.785 13.5092 198.658 13.0868 198.489 12.7912C198.32 12.4955 198.109 12.2843 197.856 12.1998C197.602 12.0731 197.306 12.0309 196.969 12.0309H194.476V19.9717H194.434Z" fill="white"/>
</g>
<defs>
<clipPath id="clip0_144_12506">
<rect width="191.466" height="25.4275" fill="white" transform="translate(10.0234 3.28516)"/>
</clipPath>
</defs>
</svg>
