<svg width="97" height="32" viewBox="0 0 97 32" fill="none" xmlns="http://www.w3.org/2000/svg">
<g clip-path="url(#clip0_150_14585)">
<path d="M17.3527 3.96094C19.161 3.96094 20.7028 4.60812 21.9781 5.88345C23.2915 7.17782 23.9387 8.71964 23.9387 10.5089C23.9387 12.3363 23.2915 13.8781 21.9972 15.1344C20.7218 16.4287 19.18 17.0759 17.3527 17.0759C15.5253 17.0759 14.0025 16.4287 12.7272 15.1534C11.4519 13.8781 10.8047 12.3363 10.8047 10.5089C10.8047 8.71964 11.4519 7.17782 12.7272 5.88345C13.9835 4.60812 15.5444 3.96094 17.3527 3.96094ZM17.3527 6.14994C16.1535 6.14994 15.1256 6.58774 14.25 7.44431C13.4125 8.30088 12.9747 9.32876 12.9747 10.5279C12.9747 11.7271 13.3934 12.755 14.25 13.6306C15.1256 14.4682 16.1535 14.906 17.3527 14.906C18.5519 14.906 19.5797 14.4872 20.4363 13.6306C21.2929 12.755 21.7307 11.7271 21.7307 10.5279C21.7307 9.32876 21.2929 8.30088 20.4363 7.44431C19.5797 6.58774 18.5519 6.14994 17.3527 6.14994Z" fill="white"/>
<path d="M38.5774 17.0759L36.0458 12.717H32.334V17.0759H30.1641V3.96094H36.712C37.9112 3.96094 38.9391 4.39874 39.7957 5.25531C40.6522 6.11187 41.09 7.13975 41.09 8.33895C41.09 9.25262 40.8236 10.0711 40.3096 10.8135C39.8147 11.5368 39.1675 12.0698 38.3871 12.3743L41.09 17.0759H38.5774ZM36.7311 6.14994H32.3531V10.4899L36.7311 10.5089C37.3212 10.5089 37.8351 10.2995 38.2539 9.86173C38.6726 9.44297 38.901 8.90999 38.901 8.31991C38.901 7.72983 38.6917 7.21589 38.2539 6.79713C37.8351 6.35932 37.3212 6.14994 36.7311 6.14994Z" fill="white"/>
<path d="M47.3281 3.96094H49.4981V17.0759H47.3281V3.96094Z" fill="white"/>
<path d="M62.2902 3.96094C64.0985 3.96094 65.6403 4.60812 66.9156 5.88345C68.21 7.17782 68.8572 8.71964 68.8572 10.5089C68.8572 12.3363 68.21 13.8781 66.9156 15.1344C65.6593 16.4287 64.0985 17.0759 62.2902 17.0759C60.4819 17.0759 58.94 16.4287 57.6647 15.1534C56.3703 13.8781 55.7422 12.3363 55.7422 10.5279C55.7422 8.71964 56.3894 7.17782 57.6647 5.90249C58.921 4.60812 60.4628 3.96094 62.2902 3.96094ZM62.2902 6.14994C61.091 6.14994 60.0631 6.58774 59.1875 7.44431C58.35 8.30088 57.9122 9.32876 57.9122 10.5279C57.9122 11.7271 58.3309 12.755 59.1875 13.6306C60.0631 14.4682 61.091 14.906 62.2902 14.906C63.4894 14.906 64.5172 14.4872 65.3738 13.6306C66.2304 12.755 66.6682 11.7271 66.6682 10.5279C66.6682 9.32876 66.2304 8.30088 65.3738 7.44431C64.5172 6.58774 63.4894 6.14994 62.2902 6.14994Z" fill="white"/>
<path d="M75.1016 3.94531L83.8385 11.8067V3.94531H86.0275V17.0603V17.0413V17.0793L77.2715 9.21796V17.0603H75.1016V3.94531Z" fill="white"/>
<path d="M12.4226 25.6729C11.9658 25.6729 11.5851 25.5206 11.2806 25.1971C10.957 24.8735 10.8047 24.4928 10.8047 24.0359C10.8047 23.5981 10.957 23.2174 11.2806 22.8938C11.5851 22.5702 11.9658 22.418 12.4226 22.418H15.4301V23.3507H12.4226C12.3275 23.3507 12.2323 23.3697 12.1562 23.4078C12.08 23.4458 12.0039 23.4839 11.9277 23.5601C11.8706 23.6172 11.8135 23.6933 11.7755 23.7885C11.7374 23.8646 11.7184 23.9598 11.7184 24.055C11.7184 24.2453 11.7945 24.4166 11.9277 24.5499C12.061 24.6831 12.2323 24.7593 12.4226 24.7593H13.8122C14.269 24.7593 14.6497 24.9115 14.9543 25.2351C15.2779 25.5587 15.4301 25.9394 15.4301 26.3772C15.4301 26.815 15.2779 27.1957 14.9543 27.5193C14.6307 27.8429 14.25 27.9952 13.8122 27.9952H10.8047V27.0625H13.8122C13.9074 27.0625 14.0025 27.0434 14.0787 27.0054C14.1548 26.9673 14.231 26.9292 14.3071 26.8531C14.3642 26.796 14.4213 26.7198 14.4594 26.6247C14.4974 26.5485 14.5165 26.4533 14.5165 26.3582C14.5165 26.1678 14.4403 26.0155 14.3071 25.8633C14.1738 25.73 14.0025 25.6539 13.8122 25.6539H12.4226V25.6729Z" fill="white"/>
<path d="M23.484 22.418H24.6641L22.38 25.3303V27.9761H21.4663V25.3684L19.125 22.418H20.3242L21.9041 24.4547L23.484 22.418Z" fill="white"/>
<path d="M29.2508 25.6729C28.7939 25.6729 28.4132 25.5206 28.1087 25.1971C27.7851 24.8735 27.6328 24.4928 27.6328 24.0359C27.6328 23.5981 27.7851 23.2174 28.1087 22.8938C28.4132 22.5702 28.7939 22.418 29.2508 22.418H32.2583V23.3507H29.2508C29.1556 23.3507 29.0604 23.3697 28.9843 23.4078C28.9081 23.4458 28.832 23.4839 28.7559 23.5601C28.6988 23.6172 28.6417 23.6933 28.6036 23.7885C28.5655 23.8646 28.5465 23.9598 28.5465 24.055C28.5465 24.2453 28.6226 24.4166 28.7559 24.5499C28.8891 24.6831 29.0604 24.7593 29.2508 24.7593H30.6403C31.0971 24.7593 31.4778 24.9115 31.7824 25.2351C32.106 25.5587 32.2583 25.9394 32.2583 26.3772C32.2583 26.815 32.106 27.1957 31.7824 27.5193C31.4588 27.8429 31.0781 27.9952 30.6403 27.9952H27.6328V27.0625H30.6403C30.7355 27.0625 30.8307 27.0434 30.9068 27.0054C30.9829 26.9673 31.0591 26.9292 31.1352 26.8531C31.1923 26.796 31.2494 26.7198 31.2875 26.6247C31.3256 26.5485 31.3446 26.4533 31.3446 26.3582C31.3446 26.1678 31.2685 26.0155 31.1352 25.8633C31.002 25.73 30.8307 25.6539 30.6403 25.6539H29.2508V25.6729Z" fill="white"/>
<path d="M35.9531 22.418H40.5976V23.3507H38.7512V27.9952H37.8185V23.3507H35.9531V22.418Z" fill="white"/>
<path d="M47.993 22.418V23.3507H45.214V24.7402H47.993V25.6539H45.214V27.0434H47.993V27.9761H44.2812V22.418H47.993Z" fill="white"/>
<path d="M52.609 24.6641V27.9952H51.6953V22.418L54.4744 25.1971L57.2725 22.418V27.9761H56.3398V24.645L54.4934 26.5105L52.609 24.6641Z" fill="white"/>
<path d="M65.0153 27.0591H62.4647L61.9888 27.9918H60.9609L63.74 22.4336L66.5191 27.9918H65.4912L65.0153 27.0591ZM62.9215 26.1263H64.5585L63.74 24.4894L62.9215 26.1263Z" fill="white"/>
<path d="M68.3281 22.418H72.9726V23.3507H71.1262V27.9952H70.1935V23.3507H68.3281V22.418Z" fill="white"/>
<path d="M76.6641 22.418H77.5777V27.9761H76.6641V22.418Z" fill="white"/>
<path d="M84.0671 22.418C84.4478 22.418 84.8095 22.4941 85.1521 22.6274C85.4948 22.7796 85.7803 22.97 86.0468 23.2365L85.3806 23.9027C85.0189 23.541 84.5811 23.3507 84.0671 23.3507C83.8197 23.3507 83.5722 23.4078 83.3438 23.503C83.1154 23.5981 82.9251 23.7314 82.7537 23.9027C82.5824 24.074 82.4492 24.2643 82.354 24.4928C82.2588 24.7212 82.2017 24.9496 82.2017 25.2161C82.2017 25.4826 82.2588 25.711 82.354 25.9394C82.4492 26.1678 82.5824 26.3582 82.7537 26.5295C82.9251 26.7008 83.1154 26.834 83.3438 26.9292C83.5722 27.0244 83.8197 27.0815 84.0671 27.0815C84.5621 27.0815 84.9999 26.9102 85.3806 26.5485L86.0468 27.1957C85.7993 27.4432 85.4948 27.6525 85.1521 27.8048C84.8095 27.9571 84.4669 28.0142 84.0671 28.0142C83.6674 28.0142 83.3248 27.9381 82.9822 27.7858C82.6395 27.6335 82.354 27.4432 82.0875 27.1957C81.8401 26.9483 81.6307 26.6437 81.4784 26.3201C81.3261 25.9775 81.25 25.6158 81.25 25.2351C81.25 24.8544 81.3261 24.5118 81.4784 24.1692C81.6307 23.8265 81.821 23.541 82.0875 23.2745C82.335 23.0271 82.6395 22.8177 82.9822 22.6654C83.3248 22.4941 83.6865 22.418 84.0671 22.418Z" fill="white"/>
</g>
<defs>
<clipPath id="clip0_150_14585">
<rect width="75.2256" height="24.06" fill="white" transform="translate(10.8594 3.96875)"/>
</clipPath>
</defs>
</svg>
