<svg width="149" height="32" viewBox="0 0 149 32" fill="none" xmlns="http://www.w3.org/2000/svg">
<path d="M68.1617 25.9965C67.8976 25.9965 67.6353 25.9278 67.3994 25.7923L60.0593 21.5544C59.5891 21.2833 59.2969 20.7779 59.2969 20.2339V11.7581C59.2969 11.2159 59.5891 10.7088 60.0593 10.4377L67.3994 6.20334C67.8695 5.93222 68.454 5.93222 68.9241 6.20334L76.2643 10.4412C76.7343 10.7124 77.0266 11.2176 77.0266 11.7617V20.2374C77.0266 20.7797 76.7343 21.2868 76.2643 21.5579L68.9241 25.7958C68.6899 25.9314 68.4258 26 68.1617 26V25.9965ZM68.1617 7.01855C68.0754 7.01855 67.9874 7.04143 67.91 7.08544L60.5699 11.3233C60.4149 11.4131 60.3181 11.5804 60.3181 11.7581V20.2339C60.3181 20.4134 60.4149 20.579 60.5699 20.6687L67.91 24.9066C68.0649 24.9965 68.2585 24.9965 68.4136 24.9066L75.7537 20.6687C75.9086 20.579 76.0054 20.4117 76.0054 20.2339V11.7581C76.0054 11.5786 75.9086 11.4131 75.7537 11.3233L68.4136 7.08544C68.336 7.04143 68.2498 7.01855 68.1617 7.01855Z" fill="white"/>
<path d="M68.1678 21.6113C67.9846 21.6113 67.8034 21.5637 67.6396 21.4703L63.6922 19.1921C63.3666 19.0037 63.1641 18.6533 63.1641 18.2784V13.72C63.1641 13.3432 63.3666 12.9947 63.6922 12.8063L67.6396 10.528C67.9653 10.3396 68.3702 10.3396 68.696 10.528L72.6433 12.8063C72.9691 12.9947 73.1715 13.345 73.1715 13.72V18.2784C73.1715 18.6533 72.9691 19.0037 72.6433 19.1921L68.696 21.4703C68.534 21.5637 68.3509 21.6113 68.1678 21.6113ZM68.1678 11.4065C68.1678 11.4065 68.1555 11.4065 68.1502 11.4119L64.2028 13.6901C64.1923 13.6971 64.1852 13.7077 64.1852 13.72V18.2784C64.1852 18.2907 64.1923 18.3012 64.2028 18.3083L68.1502 20.5865C68.1608 20.5936 68.173 20.5918 68.1837 20.5865L72.131 18.3083C72.1415 18.303 72.1486 18.2907 72.1486 18.2784V13.72C72.1486 13.7077 72.1415 13.6971 72.131 13.6901L68.1837 11.4119C68.1837 11.4119 68.173 11.4065 68.166 11.4065H68.1678Z" fill="white"/>
<path d="M67.3047 15.642V16.3515C67.3047 16.4378 67.3504 16.517 67.4244 16.5592L68.0388 16.9149C68.1127 16.9572 68.2043 16.9572 68.2783 16.9149L68.8927 16.5592C68.9666 16.517 69.0125 16.4378 69.0125 16.3515V15.642C69.0125 15.5557 68.9666 15.4765 68.8927 15.4342L68.2783 15.0785C68.2043 15.0363 68.1127 15.0363 68.0388 15.0785L67.4244 15.4342C67.3504 15.4765 67.3047 15.5557 67.3047 15.642Z" fill="white"/>
<path d="M76.1332 10.8594L67.8906 15.559L68.3964 16.446L76.6389 11.7465L76.1332 10.8594Z" fill="white"/>
<path d="M19.652 6.99609C14.6659 6.99609 10.6094 11.0526 10.6094 16.0388C10.6094 21.0249 14.6659 25.0832 19.652 25.0832C24.6382 25.0832 28.6965 21.0267 28.6965 16.0388C28.6965 11.0509 24.64 6.99609 19.652 6.99609ZM19.652 24.0568C15.2329 24.0568 11.6359 20.4598 11.6359 16.0388C11.6359 11.6178 15.2329 8.02258 19.652 8.02258C24.0713 8.02258 27.67 11.6178 27.67 16.0388C27.67 20.4598 24.073 24.0568 19.652 24.0568Z" fill="white"/>
<path d="M110.536 7.21875H109.484V24.8569H110.536V7.21875Z" fill="white"/>
<path d="M129.31 6.99609C124.324 6.99609 120.266 11.0526 120.266 16.0388C120.266 21.0249 124.324 25.0832 129.31 25.0832C134.297 25.0832 138.354 21.0267 138.354 16.0388C138.354 11.0509 134.298 6.99609 129.31 6.99609ZM129.31 24.0568C124.889 24.0568 121.294 20.4598 121.294 16.0388C121.294 11.6178 124.889 8.02258 129.31 8.02258C133.731 8.02258 137.329 11.6196 137.329 16.0388C137.329 20.458 133.731 24.0568 129.31 24.0568Z" fill="white"/>
<path d="M44.1043 16.0396L51.8247 24.8569H50.4444L43.4141 16.8301L36.3838 24.8569H35.0017L42.7239 16.0378L35 7.21875H36.3803L43.4141 15.2526L50.4461 7.21875H51.8265L44.1043 16.0396Z" fill="white"/>
<path d="M94.9252 16.4991C95.934 16.3652 96.8761 15.9022 97.6049 15.1751C98.1014 14.6786 98.4835 14.0694 98.7106 13.4144L98.7687 13.2384C98.7881 13.175 98.8057 13.1098 98.8233 13.0447C98.855 12.9162 98.8832 12.7823 98.9042 12.6539C98.9113 12.6204 98.9166 12.5887 98.9202 12.5605C98.9307 12.4848 98.9395 12.4074 98.9465 12.3281C98.9554 12.2524 98.9606 12.1714 98.9642 12.094C98.9677 12.0218 98.9694 11.9513 98.9694 11.8791C98.9694 11.7981 98.9677 11.7189 98.9642 11.6397C98.9113 10.6327 98.5469 9.69061 97.9131 8.9283C97.899 8.90717 97.8832 8.8896 97.8779 8.88429C96.9905 7.82615 95.6894 7.21875 94.3072 7.21875H85.6484V16.3019V16.3652V24.8568H86.7013V16.5413H93.7175L98.2387 24.8568H99.4395L94.9252 16.4991ZM86.7013 8.24513H94.2826C95.3055 8.24513 96.2863 8.67832 96.9782 9.44236C97.369 9.8298 97.6419 10.2998 97.7863 10.8333C97.8144 10.9495 97.8602 11.1555 97.8691 11.2153C97.892 11.3862 97.9183 11.6116 97.9183 11.8492C97.9183 11.9073 97.9183 11.9671 97.9131 12.0271C97.9113 12.0728 97.9078 12.1203 97.9042 12.1749C97.9042 12.2136 97.899 12.2542 97.8937 12.2929L97.8902 12.3298C97.8761 12.4548 97.8585 12.571 97.8338 12.6855C97.8268 12.719 97.8198 12.7507 97.8091 12.7876L97.788 12.8704C97.7811 12.9039 97.7722 12.9355 97.7599 12.969C97.7458 13.0183 97.73 13.0675 97.7123 13.1186C97.7 13.1574 97.686 13.1979 97.6683 13.2384C97.6419 13.3035 97.6138 13.3687 97.5768 13.4444C97.5504 13.5007 97.5222 13.5518 97.4957 13.6029C97.4799 13.631 97.4641 13.6574 97.4412 13.6926C97.4113 13.7454 97.3778 13.8 97.3391 13.8528C97.3056 13.9022 97.2722 13.9496 97.2299 14.0024C97.1208 14.1575 96.994 14.3088 96.8514 14.4497C96.1647 15.1363 95.2527 15.5149 94.2826 15.5149H86.7013V8.24513Z" fill="white"/>
</svg>
