<svg width="110" height="32" viewBox="0 0 110 32" fill="none" xmlns="http://www.w3.org/2000/svg">
<g clip-path="url(#clip0_150_14568)">
<path fill-rule="evenodd" clip-rule="evenodd" d="M75.9926 16.6233H75.7233L72.2203 6.46484H68.1172V6.88484L73.0587 21.071H78.508L83.451 6.88484V6.46484H79.5264L75.991 16.6233H75.9926Z" fill="white"/>
<path d="M67.0331 6.46484H62.9531V21.0695H67.0331V6.46484Z" fill="white"/>
<path fill-rule="evenodd" clip-rule="evenodd" d="M95.5718 6.46248H95.5748L92.0394 16.624H91.7702L88.2671 6.46401H84.1641V6.88709L89.5318 22.2994H84.4487V25.6825H89.4164C91.5379 25.6825 93.1902 24.9671 93.9918 22.684C94.0994 22.3794 99.4964 6.88401 99.4964 6.88401V6.46094H95.5718V6.46248Z" fill="white"/>
<path fill-rule="evenodd" clip-rule="evenodd" d="M42.1545 6.07031C40.2991 6.07031 38.5653 7.01493 37.4837 8.79031H37.233V6.48262H33.3438V25.6811H37.4761V19.2134H37.7299C37.7576 19.2518 37.7853 19.2918 37.813 19.3242C38.5099 20.1718 40.1376 21.4642 42.1622 21.4642C45.8468 21.4642 48.3668 18.2795 48.3668 13.7688C48.3668 9.258 45.7222 6.07031 42.1545 6.07031ZM40.9207 18.298C38.9976 18.298 37.6699 16.7995 37.6699 13.7703C37.6699 10.7411 38.9976 9.24262 40.9207 9.24262C42.8437 9.24262 44.2361 10.7734 44.2361 13.7703C44.2361 16.7672 42.8761 18.298 40.9207 18.298Z" fill="white"/>
<path fill-rule="evenodd" clip-rule="evenodd" d="M58.6106 6.46484C56.6952 6.46484 55.4659 6.78484 54.7475 8.78946H54.5013V6.46638H48.5859V9.82023H49.9059C50.3413 9.82023 50.5552 9.97407 50.6106 10.331V13.1187H50.6259V21.0725H54.7582V13.3248C54.7582 11.3187 55.3029 10.0895 57.309 10.0895H61.6382V6.46484H58.6121H58.6106Z" fill="white"/>
<path d="M18.7392 21.4588C22.9869 21.4588 26.4315 18.0142 26.4315 13.7665C26.4315 9.51884 22.9869 6.07422 18.7392 6.07422C14.4915 6.07422 11.0469 9.51884 11.0469 13.7665C11.0469 18.0142 14.4915 21.4588 18.7392 21.4588Z" fill="white"/>
<path d="M18.7413 25.9327C21.6444 25.9327 23.9982 25.4373 23.9982 24.8296C23.9982 24.2219 21.6459 23.7266 18.7413 23.7266C15.8367 23.7266 13.4844 24.2219 13.4844 24.8296C13.4844 25.4373 15.8367 25.9327 18.7413 25.9327Z" fill="white"/>
</g>
<defs>
<clipPath id="clip0_150_14568">
<rect width="88.7179" height="20" fill="white" transform="translate(10.9062 6)"/>
</clipPath>
</defs>
</svg>
