<svg width="196" height="32" viewBox="0 0 196 32" fill="none" xmlns="http://www.w3.org/2000/svg">
<g clip-path="url(#clip0_144_12467)">
<path d="M27.0938 7.32812H32.9223V10.5736C34.8319 7.65682 37.0295 7.32812 40.2465 7.32812V13.0635H38.7814C34.9266 13.0635 33.081 14.8668 33.081 18.4389V24.5354H27.0938V7.32812Z" fill="white"/>
<path d="M59.6918 24.5354H53.7053V22.895C52.3983 24.4029 50.6166 25.0583 48.4202 25.0583C44.2489 25.0583 41.8906 22.5996 41.8906 18.0779V7.32812H47.8769V16.7358C47.8769 18.8647 48.9278 20.1097 50.7101 20.1097C52.4926 20.1097 53.7045 18.8961 53.7045 16.8329V7.32812H59.6906V24.5354H59.6918Z" fill="white"/>
<path d="M61.1484 19.2221H66.7553C67.0105 20.4671 67.8702 20.991 69.9388 20.991C71.6273 20.991 72.6142 20.5986 72.6142 19.8775C72.6142 19.3192 72.136 18.9581 70.7688 18.6638L66.2466 17.6474C63.2209 16.9607 61.6916 15.2232 61.6916 12.4359C61.6916 8.76363 64.398 6.86328 69.6527 6.86328C74.9074 6.86328 77.4866 8.71508 77.9343 12.6827H72.3618C72.2675 11.6349 71.1828 10.9937 69.4003 10.9937C67.968 10.9937 67.0461 11.4518 67.0461 12.1416C67.0461 12.7312 67.6495 13.1893 68.8622 13.4867L73.6062 14.6346C76.7267 15.387 78.225 16.9617 78.225 19.5174C78.225 23.0582 75.1355 25.1558 69.8836 25.1558C64.632 25.1558 61.1574 22.8943 61.1574 19.2221H61.1516H61.1484Z" fill="white"/>
<path d="M94.1748 12.6802V7.32812H79.3984V12.6833H83.8079V24.5354H89.7634V12.6802H94.1748Z" fill="white"/>
<path d="M25.4317 12.6802V7.32812H10.6562V12.6833H15.0656V24.5354H21.0223V12.6802H25.4317Z" fill="white"/>
<path d="M102.716 24.2054L98.125 7.41406H100.191L103.701 21.0898H103.865L107.439 7.41406H109.735L113.31 21.0898H113.474L116.983 7.41406H119.049L114.457 24.2054H112.359L108.652 10.8248H108.521L104.815 24.2054H102.716ZM120.27 24.2054H118.139L124.305 7.41406H126.403L132.569 24.2054H130.437L128.748 19.45H121.959L120.27 24.2054ZM122.599 17.6463H128.109L125.419 10.0705H125.288L122.599 17.6463ZM134.492 24.2054V7.41406H136.525V22.4017H144.331V24.2054H134.492ZM146.786 24.2054V7.41406H148.819V22.4017H156.625V24.2054H146.786ZM159.081 24.2054V7.41406H169.215V9.21782H161.114V14.8915H168.69V16.6952H161.114V22.4017H169.346V24.2054H159.081ZM171.269 9.21782V7.41406H183.862V9.21782H178.582V24.2054H176.549V9.21782H171.269Z" fill="white"/>
</g>
<defs>
<clipPath id="clip0_144_12467">
<rect width="174.922" height="18.7836" fill="white" transform="translate(10.3828 6.60938)"/>
</clipPath>
</defs>
</svg>
