<svg width="91" height="32" viewBox="0 0 91 32" fill="none" xmlns="http://www.w3.org/2000/svg">
<path d="M55.7219 9.33334V5.00781H35.1793L35.2082 7.49608L35.2516 9.99881L40.8502 10.0422C45.7399 10.0711 46.4488 10.1001 46.3765 10.2881C46.3186 10.4039 46.2173 10.5051 46.1305 10.5051C46.0582 10.5051 45.494 10.7945 44.8864 11.1417L44.8136 11.1827C43.8164 11.7445 42.9253 12.2466 41.3999 13.0657C41.0383 13.2683 40.6621 13.5287 40.5753 13.6589C40.3583 13.9193 40.3149 17.1019 40.503 17.4202C40.6043 17.5649 41.0672 17.5504 42.8755 17.3768C44.626 17.2177 45.4217 17.2032 46.4199 17.3189C49.1107 17.6372 50.2101 18.3171 50.2246 19.6481C50.2246 20.5595 49.7327 21.0513 48.315 21.5143C47.3891 21.8181 46.9985 21.8615 45.0166 21.8615C43.2372 21.8615 42.6007 21.8036 41.9497 21.6011C40.9949 21.2973 39.9533 20.5884 39.852 20.1833C39.7363 19.7638 39.2878 19.7204 37.1901 19.894C36.1341 19.9808 34.9333 20.0531 34.5138 20.0531C34.0943 20.0531 33.7181 20.111 33.6747 20.1833C33.5301 20.4148 34.0075 21.8904 34.5283 22.7729C35.6856 24.7693 37.8845 26.0568 41.3276 26.7801C42.673 27.0695 47.2589 27.0695 48.8647 26.7801C53.1035 26.0279 55.5194 24.2919 56.3295 21.3696C57.1252 18.5052 55.91 15.6119 53.3928 14.3822C52.3657 13.8903 51.0492 13.4563 50.1378 13.3406C49.4289 13.2393 48.9371 13.0368 49.0673 12.9211C49.0992 12.8891 49.8304 12.5114 50.8497 11.985C51.2136 11.797 51.6143 11.5901 52.0329 11.3731C53.6243 10.563 55.0999 9.76734 55.3169 9.60821L55.7219 9.33334Z" fill="white"/>
<path d="M17.9639 14.9898C17.5878 13.9771 16.6764 11.5757 16.0977 10.0711L15.8518 9.42014L13.2189 9.37674C11.7722 9.36228 10.5859 9.36228 10.5859 9.39121C10.5859 9.41023 10.8172 9.98558 11.1565 10.8297C11.3334 11.2696 11.5396 11.7827 11.7577 12.3279C12.3075 13.6595 13.0222 15.4242 13.4926 16.5857C13.5793 16.7997 13.6577 16.9932 13.7252 17.1598C14.1592 18.2303 14.6366 19.3732 14.7813 19.6915C14.9259 20.0097 15.5046 21.413 16.0543 22.8018C16.6185 24.1906 17.2117 25.6373 17.3853 26.0134L17.6891 26.7078H21.4215C24.2425 26.7078 25.1973 26.6644 25.313 26.5197C25.3853 26.4329 25.7615 25.6228 26.1231 24.7548C26.4993 23.8723 26.8609 23.0333 26.9333 22.8741C26.9893 22.7509 27.2187 22.1942 27.494 21.5261C27.5743 21.3312 27.6585 21.1269 27.7434 20.9211C28.1051 20.0097 28.5246 18.9971 28.6693 18.6788L28.7193 18.5566C28.877 18.1711 29.194 17.3967 29.4649 16.7258C29.7687 15.9735 30.0725 15.2936 30.1449 15.2213C30.2027 15.1345 30.2606 14.9898 30.2606 14.8885C30.2606 14.7873 30.4197 14.3677 30.6078 13.9482C31.3167 12.3858 32.4306 9.66607 32.4306 9.50695C32.4306 9.39121 31.6494 9.34781 29.9134 9.34781H27.3962L27.2226 9.81074C27.1358 10.0711 26.9911 10.4039 26.9188 10.5341C26.8465 10.6787 26.7886 10.8523 26.7886 10.9391C26.7886 11.0259 26.6584 11.3587 26.5137 11.7059C26.2389 12.3279 25.5879 13.9627 23.7506 18.7511C21.9133 23.5251 21.7542 23.8868 21.5661 23.9157C21.4359 23.9447 21.1032 23.2647 20.5969 21.8904C20.1773 20.762 19.4974 18.9826 19.0923 17.9555C18.9042 17.4537 18.6858 16.8849 18.4858 16.3637C18.2705 15.8029 18.0764 15.2972 17.9639 14.9898Z" fill="white"/>
<path d="M64.1819 11.5296C64.0889 11.288 63.9859 11.0204 63.8811 10.7511L63.3459 9.34781H60.7563C59.2373 9.34781 58.1813 9.40568 58.1813 9.47801C58.1813 9.56481 58.4127 10.2013 58.7021 10.8957C58.9914 11.5901 59.6858 13.2683 60.2355 14.6281C60.6563 15.655 61.302 17.2339 61.9977 18.9348C62.7133 20.6845 63.4817 22.5634 64.1126 24.1038C64.6479 25.4203 64.9806 26.187 65.1108 26.4185C65.2121 26.6065 65.8052 26.6355 69.0312 26.6355C72.2573 26.6355 72.8505 26.6065 72.9517 26.4185C73.1108 26.1436 73.5738 25.0586 73.8197 24.3931C73.921 24.1183 74.1525 23.5541 74.3261 23.1635C74.4996 22.7584 74.9336 21.7168 75.2953 20.8488L75.3172 20.7955C76.5593 17.7688 77.0184 16.6501 77.2772 16.0748C77.3893 15.8284 77.6574 15.1829 77.9407 14.5011C78.0232 14.3024 78.107 14.1007 78.1886 13.9048C78.2823 13.6762 78.3886 13.4156 78.5005 13.1413C78.8206 12.3567 79.1862 11.4601 79.4328 10.8813C79.7655 10.0856 80.0259 9.42014 80.0259 9.39121C80.0259 9.36228 78.883 9.36228 77.4798 9.37674L74.9336 9.42014L74.138 11.4455C73.8994 12.0577 73.6653 12.6481 73.4931 13.0821C73.3521 13.4378 73.2526 13.6885 73.2266 13.7601C73.1542 13.9193 72.5756 15.4093 71.9246 17.0875C71.4595 18.2759 70.8838 19.7596 70.4451 20.89C70.2697 21.342 70.1162 21.7375 70.0005 22.0351C69.581 23.0911 69.1759 23.9591 69.0891 23.9591C68.9445 23.9591 68.5828 23.1056 67.2952 19.6915C67.1056 19.1886 66.8503 18.5214 66.6068 17.8851C66.423 17.4047 66.2459 16.9421 66.109 16.5811C65.9893 16.2656 65.8512 15.899 65.7124 15.5305C65.4821 14.9189 65.2498 14.302 65.0963 13.9048C64.942 13.4804 64.7748 13.0495 64.6633 12.7623C64.6076 12.6188 64.5659 12.5112 64.5466 12.4581C64.4992 12.3539 64.3586 11.9887 64.1819 11.5296Z" fill="white"/>
</svg>
